<?xml version="1.0" encoding="UTF-8"?>
<svg id="_Шар_1" data-name="Шар 1" xmlns="http://www.w3.org/2000/svg" viewBox="0 0 1080 896.35">
  <path id="UA-53" d="M310.94,16.43l10.98,1.51,4.69,5.76,17.56-9.07,5.73,7.37,9.39,2.46,5.26-2.83,1.31-14.54,11.45-7.08,7.14,8.88,5.07,1.51,1.13,5.57,17.27.38.94,11.24,11.17-.47,2.53,8.12,4.41,3.4.28-4.53,8.92-3.49,4.69,1.51,1.78,5.85,5.54-9.82,7.51,8.4,4.69-4.72,10.51-2.64,45.72,12.84,7.23,5.48,6.38-.47,10.7-9.07,16.62-6.61,1.78-3.78-2.63-3.59-8.36-1.04-1.41-4.06,19.81-8.5h5.82l7.7,8.5,12.11-15.68,23.94,18.23-1.22,5.85,11.92-8.22,12.77,5.1-5.63,7.74,4.32,4.16,6.01-5.1.56-8.97,16.9-8.22,9.2,1.51,5.63-5.76,9.11,7.74,3.47,42.12,40.56,33.71-2.72,4.34,9.95,10.39-3.29,9.82,3.94,4.06,11.92,10.48,19.53,2.64,2.35,18.7,3.47,2.55.75-3.78,6.2,1.42,6.76,9.54-3.85,9.73-11.83,13.22,4.69,5.1-2.25,7.65,5.07,10.86,8.54,6.42,5.16-3.31,13.24,7.74,6.57-3.21,2.82,3.68,4.6-5.48,2.72,1.7-1.22,3.12,6.67.47.09-14.79,10.45-6.35,4.99,2.15-2.26,5.69,18.27-4.48,1.13-2.71,10.64.75,3.67-3.27,29.66,5.88h0l-3.2,10.17.94,14.28,9.32,12.6-33.8,44.24,8.66,24.27,3.01,2.89,6.59-1.77,8.57,17.08,9.04,7.37,5.55-1.12,6.97,7.84,7.44-6.91,6.97.19,4.61,13.07,17.61,2.8,6.12-2.61,23.44,13.63,1.6,12.51-6.5,2.43,3.11,7.56-.56,17.27,5.55,6.07,8.66,1.03.94,7.09-4.71,2.99,4.24,2.05-4.14,7.47,8.1,4.48,20.24,2.24,6.68,7.65,25.7-3.83-2.64,7,6.4,8.49,13.09,33.32-23.73,5.13-2.07,3.64,7.25,1.59.38,11.76,17.79,6.25-1.04,14.37-46.51-8.87-6.4,22.31,14.78,5.04-4.14,20.81,8.57,3.55-30.13,37.42,2.54,11.85-3.86,8.68-13.18-7.93,3.67-2.89-2.26-1.77-26.65,3.08-8.85-3.45-12.24.75-5.08-7.93-12.15-6.07-3.77,2.89-13.84,36.58,11.77,47.5h0l-2.54,1.21-.09-5.23-18.92-16.99-6.87,4.95-3.86,12.41-6.03,3.83-10.36-5.6.94-3.45,6.87.65,2.92-4.48-11.3-3.45-1.41-3.08-11.96,1.77,1.51,3.55-4.33,3.55-8.66-3.83-6.4,3.17-.19,14.28-7.72-1.31-10.64,6.72-4.99-1.31-4.9,6.72-4.33.84-3.86-4.76-7.34,1.96-5.46,6.16-6.21-.47.47,9.05-5.37-1.68-3.39,7,2.35,9.24-6.87,3.55-11.3-7.47-6.03,4.48-6.87-5.23-3.77,3.17-19.3-13.81,4.43,19.23-16.57,10.36-3.48,8.59-8.38,7.47,8.38,8.03-12.62,19.41-3.67,21.65,2.45,5.88,8.57,6.16-.28,7.56,3.95.56-.19,5.04-7.34.75-.47,4.95,7.34,4.29-16.57,1.4,1.13,16.89,8.29-3.27,4.8,3.55-8.94,8.77,1.6,9.99-6.78,11.01.47-7.19-3.11-2.43-11.11-.19-6.59-6.44-9.89-2.71-7.72-7.84-6.4,1.77-7.72-3.17-3.2-5.23,1.79-10.45-2.07-3.83-16.48-1.96-10.45-7.84-5.37-10.55-9.56.19-17.22-7.13-11.76-11.22h0l-24.93-17.11-17.59-3.99-14.77,2.66-9.5-8.08-6.11-10.74-8.84,2.38-.75,5.8-11.01,9.51,3.76,2.09-5.74,8.84-8.84,1.05,1.98,3.04-7.71-.38-3.48-8.84-20.04,7.32.94-17.68-2.16-.57-12.23-1.52-2.16,2.76-.19-3.04-5.64.1-1.79,14.07-15.71-12.36-10.25,1.62-1.79-3.61,4.8-1.81-9.41-20.72,10.07-11.03-4.8-10.65,1.51-7.03-5.74-4.94,1.13-3.14-7.9-1.62-5.27-4.85,7.62-2.66,4.05-10.46-8.56-7.98-2.92,1.33-.94-7.51-6.21-7.7-2.16.38,2.92,9.89.19,31.94-14.2,1.14-4.99-5.13-8.18,1.52-1.22-15.87-3.57-5.7,2.73-6.46-13.55-21.48-24.27-1.05-5.93-7.89-7.15-.86-3.2-5.04,1.22-11.03-4.52-4.18-13.83,6.08-12.7-1.43-10.72-5.23h0l-12.79-1.33-16.93,8.75-5.93-9.03-8.56-3.61-19.66,4.56-8.09-6.46-5.93,3.9-6.49-11.98-8.65-3.42-5.08-6.65-12.98-4.28-12.7-10.74,3.76-6.27-4.61-.29-.75-2.85,5.27-4.94,9.69-24.62,10.16,12.83,17.78,2.09,18.53,10.65,27.28.86-.85-10.36-7.24-5.7-7.15.29-4.33-7.7,1.22-12.07-9.31-6.27,6.77-5.61.85-24.71,10.82-.38,12.51-12.64-.47-23,2.45-2.57-18.63-13.59,4.99-5.32-4.8-15.87,3.39-6.18-8-1.9-6.59-9.22-28.13-10.17-.38-18.11-5.45-9.35-12.58-1.79-4.13-15.39-16.81,4.44-4.41-13.03-19.72-25.5,5.35-5,3.66,4.63,10.33-6.42-6.48-7.55,1.5-10.95,3.19-1.32-3.76-3.4,2.72-12.28-14.83-9.73-4.6-25.97-6.38-1.04,1.03-6.52-5.63-4.53-3.19,9.07-3.38.47-17.46-21.91,4.88-7.65-6.38-6.8,16.52-3.97-1.78-12.09-39.06-11.43-4.32-10.39-15.87-12.65,3.94-5.85-2.53-2.08h0l-8.45-9.63,4.88-16.71-1.88-2.17,13.33-8.97-3.47-5.57,6.85-9.92-2.25-5.76h0l23-5.19,3.29,3.87,3.19-2.74,4.98,3.78,3.47-7.65-3.29-5.48,11.74-3.31,1.13-8.12,9.29-4.25-2.35-6.04,2.35-3.97,13.8-1.32,1.41,6.61,7.32,3.68,2.44-2.27,13.33,6.42,15.21-.28-1.97,14.73,12.49,12.37,11.74-7.18,21.97,1.61,1.03-5.67,12.39-1.7-.47,6.52h21.5l1.13,2.64,2.07-3.4,4.51,5,1.97-2.36,6.67,3.21,3-4.25-4.32-2.74,1.13-4.53,14.93-1.51,25.25-17.38-1.13-7.65,8.92-2.93-2.44-3.4,4.41-4.06,4.6.76,1.97-8.03,3.47-1.42-1.78-6.14,12.77.47,3.38-14.64,6.1-.66,7.89-8.59Z"/>
</svg>