<?xml version="1.0" encoding="UTF-8"?>
<svg id="_Шар_1" data-name=" Шар 1" xmlns="http://www.w3.org/2000/svg" viewBox="0 0 1080 896.35">
  <defs>
    <style>
      .cls-1 {
        fill: #020202;
      }
    </style>
  </defs>
  <path class="cls-1" d="M-1.77,50.34c.52.38,1.14.58,1.77.58.31,0,.61-.05.91-.14l7.31-2.33c.63-.2,1.18-.61,1.56-1.16l6.05-8.78c.64-.93.71-2.13.17-3.12l-2.49-4.62,2.83-7.99c.32-.9.19-1.89-.34-2.68-.53-.79-1.41-1.28-2.36-1.32,0,0-13.6-.58-13.64-.58-.77,0-1.52.3-2.08.83-.59.57-.92,1.35-.92,2.17v1.68c0,.81.33,1.59.92,2.16.56.54,1.31.84,2.08.84.04,0,3.45-.13,3.45-.13l3.57.22-1.53,4.34c-.28.8-.21,1.68.19,2.42l2.13,3.96-3.51,5.09-5.21,1.67c-1.24.4-2.09,1.55-2.09,2.86v1.62c0,.96.46,1.86,1.23,2.42Z"/>
  <path class="cls-1" d="M1080,124.66c-.07,0-.14,0-.21,0l-15.1,1.05c-.69.05-1.31.34-1.8.79-.29.27-.53.61-.7.98-.46,1-.31,2.2.36,3.08l3.5,4.63-1.65-1.08c-.08-.05-.19-.12-.28-.16-.01,0-.03,0-.04-.02-.18-.09-.37-.16-.56-.21-.07-.02-.14-.03-.21-.05-.13-.02-.26-.04-.39-.05-.06,0-.12-.02-.18-.02-.75,0-1.5.28-2.07.82l-.73.69-8.53-7.82c-.24-.22-.51-.4-.81-.53-.02,0-.04-.01-.06-.02-.13-.05-.26-.1-.39-.14-.06-.02-.13-.02-.19-.03-.09-.02-.19-.04-.28-.05h0s0,0,0,0l-3.93-.38-3.86-6.32-.54-1.08c-.45-.89-1.31-1.51-2.3-1.63-.13-.02-.25-.02-.38-.02-.86,0-1.68.37-2.26,1.02l-5.46,6.16-6.41.14h-.89c-.86,0-1.64.38-2.18.96,0,0,0,0-.01,0-.02.02-.03.04-.04.05-.11.12-.21.25-.3.39-.04.06-.06.12-.09.18-.06.11-.12.22-.16.34-.03.08-.05.16-.08.24-.03.11-.06.21-.08.32-.02.1-.02.19-.03.29,0,.08-.02.15-.02.23,0,.05,0,.1,0,.14l.19,3.92v.09s-9.6-6.99-9.6-6.99c-.52-.38-1.14-.58-1.76-.58-.47,0-.93.11-1.37.33-.11.05-.19.13-.29.2-.1.07-.21.13-.31.21-.11.09-.19.2-.28.3-.07.07-.14.13-.2.22l-.05.08s0,0,0,0l-11.18,15.57c-.47.66-.66,1.48-.52,2.27.04.2.09.39.16.58.22.56.6,1.04,1.1,1.38l5.92,4.03-2.2,1.49-9.67-.48-.7-.09c-.12-.01-.24-.02-.36-.02-1.26,0-2.39.82-2.83,1.99-.06.16-.11.34-.14.52l-2.15,11.55s-3.23-.1-3.26-.1c-.14,0-.28.01-.42.03-.03,0-.07.02-.1.02-.1.02-.21.04-.31.07-.05.01-.09.04-.14.05-.08.03-.17.06-.25.09-.05.02-.09.05-.14.08-.08.04-.15.08-.23.12-.04.02-.07.05-.11.08-.08.05-.16.11-.23.17-.03.02-.05.05-.07.07-.08.07-.16.14-.23.22-.01.02-.03.03-.04.05-.08.09-.15.18-.22.28,0,0,0,0,0,0-.08.11-.15.23-.21.36-.05.11-.1.22-.14.33l-.13.37-7.09-3.34s-.34-.17-.4-.2h0s-.86-.43-.86-.43c-.41-.2-.86-.3-1.31-.3-.33,0-.67.05-.99.16-.05.02-.09.04-.13.06-.01,0-.03,0-.04.01-.03.01-.05.03-.08.04-.14.06-.28.13-.41.22-.06.04-.11.08-.17.12-.1.08-.2.15-.29.24-.06.06-.12.12-.18.19-.07.08-.14.17-.21.26-.05.08-.1.16-.15.24-.03.05-.07.1-.09.15-.04.09-.08.18-.12.27l-.44,1.19-8.39-4.19-.37-.28c-.54-.41-1.18-.62-1.82-.62-.77,0-1.54.29-2.12.87l-.1.1s-.03.03-.06.07c0,0-.01,0-.02.01l-11.21,12.01s-.05.05-.07.08l-.09.1-12.76,5.53c-1.1.48-1.81,1.57-1.81,2.76,0,.07,0,.13,0,.2l.4,6.1-4.95,6.81-.08-1.25c0-.15-.03-.3-.06-.45,0,0,0,0,0-.01-.13-.59-.44-1.11-.86-1.52-.01-.01-.03-.03-.04-.04-.08-.07-.17-.13-.25-.2-.04-.03-.07-.06-.11-.08-.08-.05-.17-.09-.25-.14-.05-.03-.1-.06-.15-.09-.14-.07-.29-.12-.44-.16l-7.78-2.22c-.28-.09-.57-.13-.86-.13-.61,0-1.2.19-1.7.53l-11.75-1.12-1.39-.14c-.1-.01-.2-.02-.3-.02-.43,0-.84.1-1.22.27-.04.02-.07.04-.11.05-.15.07-.28.16-.42.25-.04.03-.09.06-.13.1-.04.04-.09.06-.14.1-.06.06-.11.13-.17.19-.04.04-.08.07-.11.11-.02.02-.03.05-.04.07-.1.13-.19.27-.27.41-.03.06-.07.11-.1.17-.09.18-.15.37-.2.57,0,.02-.02.05-.02.07-.04.21-.07.42-.07.63,0,.01,0,.02,0,.03,0,.25.03.51.1.76l2.73,9.94s-3.3,1.14-4.86,1.68c-4.43-.89-25.77-5.15-27.68-5.53l-.15-.03c-.2-.04-.39-.06-.59-.06-.73,0-1.45.27-2.01.77l-2.62,2.36-9.2-.66c-.07,0-.14,0-.22,0-1.21,0-2.31.73-2.77,1.86l-.58,1.41-8.23,2.04c.16-1.29-.54-2.57-1.79-3.11l-6.09-2.64c-.38-.17-.79-.25-1.19-.25-.54,0-1.09.15-1.57.44l-10.89,6.67c-.89.54-1.43,1.5-1.43,2.54l-.06,10.95-2.54-1.58c-.37-.23-.77-.37-1.17-.42-.14-.02-.27-.03-.41-.03-.86,0-1.71.37-2.3,1.07l-1.78,2.11-.19-.25c-.29-.38-.66-.67-1.07-.87-.41-.2-.86-.3-1.31-.3s-.89.1-1.31.3l-5.11,2.49-11.4-6.63c-.47-.27-.99-.41-1.51-.41-.56,0-1.12.16-1.61.47l-3.15,2-5.22-3.9-3.81-8.11,1.89-6.39c.3-1.01.04-2.11-.67-2.89l-2.42-2.62,9.06-10.07c.24-.26.43-.57.56-.9l3.95-9.94c.38-.95.25-2.02-.35-2.85l-7.01-9.83c-.43-.6-1.06-1.02-1.78-1.18l-7.26-1.65c-.22-.05-.44-.07-.66-.07l-1.74-13.76c-.17-1.35-1.23-2.42-2.58-2.6l-18.31-2.46-10.41-9.1-2.01-2.06,2.57-7.63c.04-.13.08-.27.11-.4s.04-.27.05-.41c.04-.82-.25-1.63-.84-2.23l-7.81-8.11,1.41-2.24c.8-1.28.53-2.95-.63-3.91l-38.33-31.67-3.22-38.92c-.04-.6-.27-1.17-.64-1.64-.12-.16-.26-.3-.42-.43l-9.73-8.23c-.56-.48-1.25-.71-1.94-.71-.19,0-.39.02-.58.06-.57.11-1.12.39-1.56.84l-4.6,4.67-7.11-1.16c-.16-.03-.32-.04-.48-.04-.45,0-.9.1-1.31.3l-17.01,8.22c-.18.09-.34.19-.5.3-.46.35-.81.82-1.01,1.36l-12.6-5c-.36-.14-.73-.21-1.11-.21-.6,0-1.19.18-1.7.52l-5.09,3.49c-.14-.17-.31-.33-.5-.47l-24.24-18.34c-.54-.41-1.18-.61-1.81-.61-.22,0-.45.02-.67.07-.65.15-1.26.51-1.71,1.09l-9.32,12-4.51-4.95c-.57-.62-1.37-.98-2.22-.98h-6.22c-.4,0-.8.08-1.18.24l-20.03,8.54c-.18.08-.35.17-.51.28-.79.54-1.27,1.41-1.31,2.34-.02.37.04.76.17,1.13l1.85,5.29c.38,1.08,1.33,1.85,2.46,1.99l6.93.86.11.15-.03.06-14.66,5.8c-.3.12-.58.29-.83.49l-9.42,7.93-3.37.25-5.9-4.45c-.3-.23-.64-.39-1-.49l-44.34-12.38c-.26-.07-.54-.11-.81-.11-.24,0-.49.03-.73.09l-10.6,2.65c-.53.13-1.01.4-1.39.79l-1.74,1.74-5.31-5.91c-.57-.64-1.38-.99-2.23-.99h0c-.05,0-.11,0-.16,0-.05,0-.11,0-.16,0-.96.1-1.81.66-2.29,1.5l-2,3.53c-.18-.1-.37-.18-.56-.25l-5.31-1.7c-.3-.1-.61-.14-.92-.14-.37,0-.74.07-1.09.2l-9.26,3.6-1.57-5.02c-.39-1.26-1.56-2.1-2.86-2.1-.04,0-6.86.28-7.72.32-.06,0-.09,0-.09,0l-.66-7.81c-.03-.38-.14-.74-.3-1.07-.48-.98-1.48-1.65-2.63-1.68l-14.28-.31-.57-2.79c-.06-.27-.15-.53-.27-.77-.37-.72-1.02-1.27-1.82-1.51l-4.24-1.26-6.61-8.17c-.59-.73-1.45-1.11-2.33-1.11-.13,0-.27,0-.4.03-.4.05-.8.19-1.17.42l-12.13,7.46c-.2.12-.38.27-.54.43-.5.49-.81,1.15-.88,1.86l-1.11,12.24-1.8.96-6.22-1.62-5.16-6.6c-.58-.75-1.47-1.15-2.36-1.15-.46,0-.93.11-1.37.33l-14.72,7.56-2.72-3.33c-.32-.39-.74-.68-1.2-.87-.05-.02-.11-.05-.16-.07-.18-.06-.36-.1-.55-.13l-8.98-1.23-3.29-5.77,13.25-16.41c.32-.4.54-.87.62-1.38l.85-4.94c.15-.87-.09-1.77-.66-2.44-.57-.68-1.41-1.07-2.29-1.07h-1.94c-1.46,0-2.71,1.05-2.96,2.49l-.58,3.36-14.56,18.01c-.19.24-.35.5-.46.78-.16.42-.23.86-.2,1.3.03.44.16.88.39,1.29l3.56,6.24.93,1.63-4.61,4.99-5.06.55c-.95.1-1.77.65-2.25,1.44-.16.26-.28.55-.35.86l-2.66,11.46s-10.4-.38-10.44-.38c-.92,0-1.8.43-2.37,1.16-.42.54-.63,1.2-.62,1.87,0,.04,0,.07,0,.11.01.24.05.47.12.7l1.08,3.7-.47.19c-.22.09-.43.21-.62.34-.57.41-.99,1.02-1.16,1.72l-1.14,4.6-1.28-.21c-.16-.03-.32-.04-.48-.04-.74,0-1.47.28-2.03.79l-5.21,4.77c-.98.9-1.24,2.32-.69,3.49l-4.23,1.38c-1.39.45-2.25,1.84-2.04,3.29l.84,5.65-21.38,14.63-14,1.4c-.82.08-1.53.49-2.02,1.08,0,0,0,0,0,0-.09.12-.18.24-.26.37,0,.01-.01.03-.02.04-.07.12-.13.25-.19.38,0,0,0,.02,0,.03-.05.14-.1.27-.13.42,0,0-.76,3.03-1.17,4.65-.04.17-.08.33-.11.46-.05.22-.1.38-.12.47-.01.04-.02.06-.02.07l-.08-.04c-.41-.2-.86-.29-1.29-.29-.59,0-1.17.17-1.67.51l-2.22-2.45c-.14-.16-.3-.3-.47-.42-.51-.37-1.12-.57-1.75-.57h0c-.09,0-.19,0-.28.01-.06,0-.12.03-.18.04-.83.13-1.58.59-2.05,1.3h-16.81l.23-3.15h0s0-.03,0-.05c.05-.88-.29-1.75-.94-2.35-.56-.52-1.29-.81-2.05-.81-.13,0-.27,0-.41.03l-13.76,1.88c-1.12.15-2.05.92-2.42,1.97-.05.15-.09.3-.12.46l-.48,2.6-17.87-1.3c-.07,0-.15,0-.22,0-.55,0-1.09.15-1.56.44l-8.9,5.41-8.39-8.26,1.78-13.21c.03-.22.03-.43.02-.65-.05-.64-.31-1.26-.75-1.75-.14-.16-.3-.3-.47-.43-.51-.37-1.13-.58-1.77-.58h0s-7.68.14-11.99.21c-.19,0-.37,0-.54,0-.35,0-.67.01-.95.02-.85.02-1.37.02-1.37.02l-12.53-6c-.41-.2-.86-.29-1.29-.29h0c-.55,0-1.1.15-1.58.45-.16.1-.31.21-.45.34l-.82.75-2.89-1.44-1.13-5.29c-.3-1.4-1.53-2.37-2.93-2.37-.09,0-.19,0-.29.01l-14.59,1.39c-.95.09-1.81.63-2.29,1.45l-2.74,4.61c-.47.79-.55,1.76-.22,2.62l1.06,2.71-5.99,2.73c-.94.42-1.59,1.3-1.73,2.32l-.8,5.72-9.99,2.8c-.9.25-1.64.91-1.98,1.78s-.26,1.85.22,2.66l2.73,4.51-.42.92-1.46-1.1c-.26-.19-.53-.34-.82-.44-.01,0-.03-.01-.04-.02-.04-.01-.08-.02-.13-.03-.27-.08-.54-.12-.81-.12-.69,0-1.39.24-1.95.72l-.64.54-.96-1.13c-.58-.68-1.41-1.05-2.28-1.05-.22,0-.44.02-.66.07l-15.9,3.56,2-2.62c.57-.75.76-1.73.5-2.64l-1.32-4.63c-.31-1.1-1.22-1.92-2.35-2.13l-12.17-2.22c-.18-.03-.36-.05-.54-.05-.28,0-.57.04-.84.12l-6.56,1.92-.98-3.53,7.23-11.27c.72-1.12.61-2.59-.27-3.59-.58-.67-1.41-1.03-2.26-1.03-.43,0-.86.09-1.26.28l-13.46,6.25-6.64-23.61c-.28-.99-1.04-1.75-1.99-2.05l-1.46-.5c-.32-.11-.65-.16-.97-.16-.62,0-1.23.19-1.74.56-.79.56-1.26,1.47-1.26,2.44v2.17c0,.27.04.55.11.81l7.8,27.68c.24.85.84,1.55,1.64,1.91.4.18.83.27,1.25.27s.86-.09,1.26-.28l4.26-1.98c-.46.72-.58,1.63-.35,2.45l2.71,9.72c.21.77.73,1.43,1.43,1.82.45.25.95.38,1.46.38.28,0,.56-.04.83-.12l10.31-2.98,7.82,1.42-4.18,5.48c-.54.7-.74,1.61-.54,2.47l.36,1.61c-.05.47,0,.95.18,1.41l.31.79.14.62c.1.44.3.82.56,1.16l.86,2.19-5.71,8.22c-.69.99-.72,2.29-.08,3.31l1.66,2.65-10.49,7.01c-.72.48-1.19,1.24-1.31,2.09s.14,1.71.71,2.36l1.03,1.19-4.23,14.38c-.29.99-.05,2.06.63,2.83l6.05,6.86-3.99-.47c-.12-.01-.23-.02-.35-.02-1.08,0-2.08.58-2.62,1.54l-7.28,13.04-7.65-4.87c-.49-.31-1.05-.47-1.61-.47-.5,0-.99.12-1.44.37-.96.53-1.56,1.54-1.56,2.63v2.27c0,1.02.52,1.98,1.39,2.53l11.01,7.02c.49.31,1.05.47,1.61.47.25,0,.49-.03.73-.09.8-.2,1.48-.73,1.89-1.45l8.22-14.72,1.3.15s.02.09.02.13c.01.12.03.24.05.36.02.08.03.15.06.23.04.12.08.23.13.35.03.07.06.14.1.21.06.12.14.23.22.34.04.05.07.11.11.16.13.16.28.31.44.44l7.57,6,7.57,6,3.92,9.4c.35.84,1.06,1.47,1.93,1.73l35.52,10.33.81,5.45-13.96,3.33c-1.04.25-1.87,1.03-2.18,2.06-.31,1.03-.04,2.14.69,2.92l5.15,5.44-3.39,5.27c-.52.81-.61,1.81-.28,2.68.11.29.27.57.47.82l17.55,21.89c.57.72,1.44,1.12,2.34,1.12.14,0,.28,0,.42-.03l4.36-.61c.26-.04.5-.1.74-.2.7-.29,1.27-.84,1.58-1.54l-.02.12c-.03.2-.04.41-.03.61.06,1.39,1.09,2.59,2.52,2.83l4.3.7,4,22.44c.12.66.45,1.23.91,1.66.15.14.32.27.5.38l12.2,7.96-2.14,9.59c-.24,1.06.12,2.15.92,2.88l.02.02c-.12.27-.21.55-.25.85l-1.58,11.43c-.12.85.14,1.72.7,2.37l3.48,4.04-2.98,1.84-1.97-2.48c-.52-.65-1.29-1.06-2.12-1.12-.07,0-.15,0-.22,0h0c-.75,0-1.49.29-2.04.8l-6.54,6.08c-.14.13-.27.28-.38.43-.78,1.06-.78,2.54.05,3.61l19.06,24.51,4.32,12.66c.42,1.24,1.58,2.03,2.84,2.03.25,0,.51-.03.76-.1l13.2-3.46,3.11,11.52c.31,1.16,1.29,2.02,2.48,2.19l10.81,1.53,3.74,6.38.35,22.98c0,.31.06.62.15.9.29.86.95,1.56,1.84,1.88l26.42,9.45,5.81,8.05c.42.58,1.04,1,1.74,1.16l2.93.69-.91,1.65c-.39.71-.48,1.55-.24,2.33l4.05,13.24-3.95,4.17c-.59.63-.89,1.48-.81,2.34.08.86.53,1.64,1.23,2.15l15.13,10.93c-.26.46-.39.98-.38,1.52l.42,20.53-9.7,9.7-9.7.33c-1.38.05-2.52,1.02-2.82,2.32-.04.19-.07.38-.08.57l-.78,22.55-6.11,5.01c-.74.6-1.14,1.52-1.09,2.47.05.95.54,1.82,1.33,2.35l8.02,5.35-.96,9.38c-.06.62.07,1.24.38,1.79l4.59,8.08c.53.94,1.53,1.52,2.61,1.52h0s2.9-.11,4.69-.18c.16,0,.32-.01.46-.02.28-.01.52-.02.69-.03.17,0,.26-.01.26-.01l4.44,3.46.3,3.67-20.74-.64-17.08-9.71c-.35-.2-.74-.33-1.14-.37l-15.62-1.82-9.75-12.19c-.14-.18-.31-.34-.48-.48-.53-.42-1.18-.65-1.86-.65h0c-.15,0-.29.01-.44.03-1.06.16-1.95.87-2.34,1.86l-9.57,24.06-4.81,4.47c-.81.76-1.14,1.9-.86,2.97l1.05,3.93c.22.81.75,1.47,1.45,1.85l-.81,1.34c-.77,1.27-.5,2.9.64,3.86l12.95,10.83c.07.06.16.11.24.16.23.16.48.3.75.39l11.46,3.74,4.28,5.56c.33.43.78.76,1.28.96l7.2,2.81,6.03,11.01c.4.73,1.09,1.27,1.9,1.47.24.06.49.09.73.09.58,0,1.15-.17,1.64-.49l4.16-2.71,5.89,4.65c.53.42,1.19.65,1.86.65.22,0,.45-.03.67-.08l18.05-4.15,5.93,2.47,5.49,8.28c.57.86,1.52,1.34,2.5,1.34.46,0,.93-.11,1.36-.33l15.95-8.16.6.06,5.31.55-.74,1.88-21.76,20.28c-.31.29-.56.64-.72,1.03l-4.97,11.84c-.39.92-.29,1.98.26,2.81l5.69,8.64c.37.55.9.97,1.53,1.19l33.14,11.35-.04,4.77-22.54,9.79c-.96.42-1.64,1.31-1.78,2.35s.27,2.08,1.09,2.74l4.74,3.81,3.28,15.33-3.77,7.04c-.4.74-.46,1.61-.19,2.41s.87,1.43,1.65,1.77l5.72,2.46c-1.3.32-2.25,1.48-2.28,2.85l-.04,2.22-26.72,5.71-.47-2.41c-.28-1.42-1.52-2.42-2.94-2.42-.11,0-.23,0-.34.02l-7.31.81-.19-.74c-.3-1.16-1.26-2.02-2.44-2.2l-7.13-1.1c-.15-.02-.31-.04-.46-.04-.27,0-.53.04-.79.11-.46.13-.88.37-1.23.69-.04.03-.08.06-.12.09-.08.08-.13.18-.2.26-.1.12-.21.24-.29.38l-3.27,5.78c-.48.85-.52,1.87-.1,2.75l1.26,2.69-12.19.83-.47-2.45c-.2-1.05-.95-1.92-1.97-2.27-.32-.11-.65-.16-.98-.16-.18,0-.36.02-.53.05-.53.09-1.02.33-1.44.69l-.33.29-.66.57s-.09.07-.14.11l-3.77,3.3-.15-.24c-.12-.2-.28-.37-.44-.53-.32-.31-.7-.56-1.13-.71l-12.45-4.26c-.32-.11-.64-.16-.97-.16-.62,0-1.23.19-1.75.56-.79.56-1.26,1.48-1.26,2.45,0,.11,0,.23.02.34l-4.62-22.86c-.13-.78-.57-1.46-1.2-1.92-.11-.08-.22-.17-.35-.24-.44-.23-.93-.35-1.41-.35-.43,0-.85.09-1.25.27l-4.11,1.88-.77-3.55,1.77-1.92c.69-.75.95-1.79.7-2.78-.25-.99-.99-1.78-1.95-2.1l-6.27-2.1-2.85-6.14c-.47-1.01-1.46-1.67-2.56-1.73-.05,0-.1,0-.16,0-1.05,0-2.03.55-2.57,1.46l-5.89,9.85-9.21-1.31-.37-.22.96-3.09c.17-.55.18-1.15.02-1.71l-1.76-6.25-1.37-4.89c-.22-.78-.74-1.43-1.45-1.82-.45-.25-.94-.37-1.44-.37-.29,0-.58.04-.87.13l-.62.19-.36-1.84s0,0,0,0h0c-.02-.11-.06-.21-.1-.31-.03-.08-.05-.17-.08-.25-.06-.14-.14-.27-.22-.4-.02-.04-.04-.08-.06-.12-.22-.32-.51-.6-.84-.82-.49-.32-1.06-.48-1.63-.48-.21,0-.43.02-.64.07l-14.34,3.12-2.79-3.5-1.23-1.53c-.58-.72-1.44-1.12-2.34-1.12-.22,0-.44.02-.65.07-1.12.25-1.99,1.11-2.26,2.22l-.38,1.57-4.46.12c-1.58.04-2.85,1.3-2.92,2.88l-.25,6.14-5.48.3c-.35.02-.69.1-1.01.23-.94.39-1.64,1.25-1.8,2.3l-.04.25-3.89,28.25-5.72-3.16c-.45-.25-.95-.38-1.45-.38-.43,0-.86.09-1.26.28-.38.18-.7.44-.97.74-.04.04-.09.08-.12.12-.04.05-.07.12-.11.18-.09.13-.19.27-.26.42-.04.08-.05.17-.08.25-.05.14-.11.28-.14.42h0s0,0,0,0l-2.28,10.18-11.58,3.41c-1.06.31-1.85,1.18-2.08,2.23-.03.15-.05.31-.06.46l-.43,7.14c-.06,1,.38,1.97,1.18,2.57l5.09,3.86-.24,7.73-.17.16-10.79.49v-.08c.05-.22.06-.44.05-.66-.03-.44-.15-.86-.36-1.25-.1-.19-.23-.37-.38-.54-.57-.65-1.4-1.03-2.26-1.03,0,0-.19,0-.52.01-2.32.05-11.54.25-11.54.25l-5.72-5.28-.81-.74c-.42-.38-.93-.63-1.47-.73-.18-.03-.37-.05-.55-.05-.07,0-.15,0-.22,0-.62.05-1.2.28-1.67.67-.16.13-.3.27-.43.43l-1.46,1.8c-.43.54-.67,1.2-.67,1.89v3.03c0,1.27.8,2.4,2,2.83.33.12.67.17,1,.17.18,0,.35-.02.52-.05,0,0,0,0,.01,0,.51-.09.99-.32,1.4-.66l4.17,3.84c.55.51,1.28.79,2.03.79.02,0,8.07-.17,8.14-.17l-.36,2.23c-.03.17-.03.35-.03.52,0,0,0,.01,0,.02,0,.13.02.26.04.39.01.07.02.13.03.2.03.11.06.22.1.33.03.08.06.16.1.24.04.09.08.19.14.28.06.1.12.19.19.28.04.06.07.12.12.17,0,0,.02.01.02.02.15.18.33.33.52.46.05.04.11.08.16.11.19.12.39.23.61.3l.04.02s0,0,0,0l4.11,1.4.6.25c.24.1.49.16.74.2.21.05.43.07.64.07.51,0,1.01-.13,1.46-.38.72-.4,1.25-1.09,1.45-1.89l.13-.51.76-1.4,10.14-.46c.55-.03,1.07-.21,1.53-.52.12-.08.25-.17.36-.28l1.16-1.08,1.83-1.7s.05-.07.09-.1c.1-.1.2-.21.29-.33.03-.03.05-.07.07-.11.09-.13.18-.27.24-.42,0-.01,0-.02.01-.03.15-.34.25-.72.27-1.12l.39-12.34c0-.24-.02-.48-.07-.71,0,0,0-.01,0-.02-.05-.21-.12-.41-.2-.6-.02-.04-.04-.08-.06-.13-.08-.15-.17-.3-.28-.44-.04-.05-.07-.09-.11-.14-.04-.05-.07-.1-.11-.14-.09-.09-.18-.16-.28-.24-.03-.02-.04-.05-.07-.07l-.09-.07s0,0,0,0l-4.91-3.73.06-1.07,11.04-3.25c1.04-.31,1.84-1.16,2.08-2.22l1.5-6.67,5.02,2.77s.1.05.15.08l1.08.59c.45.25.95.37,1.45.37.47,0,.93-.11,1.36-.33.89-.45,1.49-1.31,1.61-2.3l4.34-31.47,4.91-.27h.83c1.42,0,2.61-1.03,2.92-2.36.04-.18.07-.37.08-.57h0s0-.01,0-.01l.25-5.99,2.78-.07s.8,0,.82,0l1.33,1.66h0c.57.79,1.48,1.24,2.43,1.24h0c.21,0,.43-.02.64-.07l12.4-2.7.43,2.21c.16.83.67,1.56,1.4,2,.47.28,1.01.43,1.55.43.29,0,.58-.04.87-.13l1.03-.31,1.38,4.91-1.67,5.36c-.41,1.31.12,2.74,1.3,3.45l4.5,2.75c.35.21.74.35,1.14.41l13.46,1.92c.14.02.28.03.42.03,1.02,0,1.99-.52,2.54-1.4.01-.02,2.18-3.64,2.72-4.54.08-.13.12-.2.12-.2.37.57.92,1.01,1.58,1.23l1.93.64c0,.2.02.4.07.6l2.61,12,.03.12c.03.13.09.25.14.37.03.08.05.17.09.25.01.03.04.05.05.08.09.17.19.33.31.47.28.34.63.62,1.03.81.41.19.85.29,1.29.29s.86-.09,1.26-.28l.97-.45,3.04-1.39,6.2,30.72c.25,1.22,1.23,2.15,2.43,2.36.17.03.35.05.52.05h0s.09,0,.14,0l8.73-.4h1.1c.9,0,1.75-.43,2.32-1.13.43-.53.66-1.19.67-1.87,0-.22-.02-.44-.06-.65l-1.36-6.68,2.68.92,2.08,3.3.19.31c.17.28.4.51.64.72.42.35.91.59,1.46.68.15.02.3.04.46.04.72,0,1.42-.26,1.97-.74l.57-.49c.05-.04.1-.08.15-.13l2.41-2.11c.56.64,1.38,1.04,2.27,1.04.07,0,.13,0,.2,0l22.15-1.48h1.41c1.04,0,2.01-.54,2.55-1.42.55-.88.6-1.99.13-2.92l-3.26-6.94.35-.62.6.09.44,1.68c.04.16.1.32.16.47,0,0,0,.01,0,.02.06.13.13.25.2.37.01.02.02.05.04.07.06.09.13.17.2.25.04.05.07.1.11.14.05.06.12.11.17.16.06.06.12.12.19.17.04.03.09.06.13.09.22.16.46.29.72.38.07.02.14.04.21.05.09.02.18.05.27.07.16.03.33.04.5.04.11,0,.22,0,.33-.02l7.03-.77.55,2.78.04.18c.31,1.4,1.55,2.35,2.93,2.35.21,0,.42-.02.63-.07l35.42-7.57c1.36-.29,2.34-1.48,2.37-2.87l.04-1.79,5.97-.63c.8-.08,1.53-.49,2.03-1.11.5-.63.73-1.43.63-2.23l-.54-4.49c-.13-1.06-.81-1.97-1.79-2.4l-9.53-4.11,2.09-3.9c.34-.63.44-1.35.29-2.05l-4.03-18.81c-.05-.25-.14-.49-.26-.71-.02-.03-.03-.07-.05-.1,0-.02-.02-.03-.03-.05-.13-.23-.3-.45-.49-.64l17.87-7.77s0,0,0,0l.14-.06s.03-.02.05-.03c.11-.05.22-.11.32-.17.01,0,.03-.02.04-.03.11-.07.22-.15.32-.23,0,0,0,0,0,0,.64-.54,1.06-1.35,1.07-2.26l.1-11.48v-.02s0,0,0,0h0c0-.07-.01-.14-.01-.21,0-.09,0-.18-.02-.26-.01-.08-.04-.15-.05-.23-.02-.08-.03-.16-.05-.23-.03-.1-.07-.19-.11-.28-.02-.05-.04-.1-.06-.15-.34-.69-.95-1.24-1.71-1.5l-34.91-11.96-3.32-5.05,3.54-8.45,21.81-20.31c.16-.15.31-.32.43-.51.06-.09.1-.2.16-.29.05-.1.12-.19.16-.3h0s0,0,0,0v-.02s1.49-3.78,1.49-3.78l6.58,3.17c.31.15.64.24.97.28l12.59,1.4c.11.01.22.02.33.02.41,0,.82-.08,1.2-.25l11.13-4.85.95.87-.98,8.8c-.02.17-.02.34-.01.51.02.34.1.67.23.99.07.16.15.31.24.45l3.49,5.45c.48.76,1.28,1.25,2.17,1.36l5.64.67,4.94,6.5c.54.71,1.37,1.14,2.26,1.18l21.65.92,10.76,16.88-2,4.67c-.39.91-.3,1.95.22,2.78l3.17,5.01,1.18,15.14c.07.85.49,1.63,1.16,2.14.53.41,1.17.62,1.83.62.18,0,.36-.02.54-.05l6.83-1.25,3.62,3.69c.52.53,1.22.83,1.95.88.06,0,.13.02.19.02h0c.08,0,.16,0,.24,0l14.95-1.19c1.57-.12,2.77-1.44,2.76-3.01l-.02-4.03,4.42,4.02c.4.36.89.61,1.42.72l3.42.7c-.09.96.28,1.92,1.04,2.57l4.21,3.59-1.01,4.67c-.03.16-.06.32-.06.48-.03.48.06.96.27,1.4l3.64,8-8.3,9c-.82.89-1.03,2.18-.52,3.28l7.5,16.37-1.6.59c-.8.3-1.43.92-1.75,1.71-.08.2-.13.4-.17.61-.1.62-.01,1.26.27,1.83l2.5,5.01c.51,1.03,1.56,1.66,2.68,1.66.15,0,.31-.01.46-.04l8.84-1.38,15.04,11.7c.54.42,1.19.63,1.84.63.39,0,.77-.07,1.14-.23,1-.41,1.7-1.32,1.83-2.39l.99-7.75c.26.2.56.35.89.45.3.09.6.14.9.14.9,0,1.77-.41,2.35-1.14l2.24-2.83,7.94.98-.79,14.81c-.05,1,.4,1.97,1.21,2.57.13.1.27.18.41.26.43.22.9.33,1.38.33h0c.34,0,.69-.06,1.02-.18l16.96-6.13,2.15,5.4c.43,1.09,1.47,1.83,2.64,1.89,0,0,.02,0,.05,0l9.85.48s.1,0,.15,0c1.07,0,2.07-.57,2.6-1.51.39-.68.49-1.48.31-2.22l2.74-.32c.88-.1,1.67-.59,2.16-1.33l6.31-9.63c.46-.7.6-1.56.4-2.37-.16-.63-.51-1.18-1-1.59l6.52-5.57c.56-.48.93-1.15,1.02-1.89l.43-3.24,2.98-.79,4.43,7.7c.17.3.4.57.67.8l9.58,8.07c.54.46,1.23.71,1.93.71.18,0,.35-.02.53-.05l13.82-2.46,15.35,3.44,21.09,14.33-4.69,23.39-1.9.95c-.77.38-1.33,1.08-1.55,1.91l-4.74,17.86c-.07.26-.1.52-.1.79l.06,9.36-2.64-.31-1.69-11.2c-.12-.83-.59-1.57-1.29-2.04-.5-.34-1.09-.51-1.68-.51-.23,0-.46.03-.69.08l-6.82,1.61c-1.43.34-2.4,1.66-2.3,3.11l-1.18.21-2.21-1.9c-.56-.48-1.25-.72-1.96-.72-.44,0-.87.09-1.28.29l-7.13,3.38-1.58-6.96c-.31-1.37-1.53-2.33-2.92-2.33-.04,0-7.18.31-7.18.31l-2.24-2.68c-.57-.68-1.42-1.08-2.3-1.08h0s-.06,0-.1,0c-.92.03-1.78.48-2.33,1.23l-7.78,10.66-7.89,1.18-3.82-3.68c-.56-.54-1.31-.84-2.08-.84-.19,0-.38.02-.57.05l-7.35,1.43c-1.1.21-1.95,1-2.28,2.01-.11.34-.16.7-.14,1.07l.95,20.76c.03.57.21,1.11.54,1.58l2.67,3.83c.57.82,1.5,1.28,2.46,1.28.37,0,.75-.07,1.12-.22l1.38-.55,2.14,7.12c.27.91.96,1.64,1.85,1.96l10.39,3.76c.33.12.67.18,1.02.18.09,0,.18,0,.27-.01l8.31-.75,13.46,13.12c.56.55,1.32.85,2.09.85.12,0,.25,0,.37-.02l1.84-.23.56,2.81c.29,1.42,1.54,2.4,2.94,2.4.16,0,.33-.01.5-.04l2.38-.4h15.14c1.53,0,2.81-1.15,2.98-2.67l.51-4.61c.1-.93-.24-1.86-.92-2.51-.56-.53-1.3-.82-2.06-.82-.17,0-.33.01-.5.04l-14.14,2.37-.52-2.61c-.28-1.42-1.53-2.42-2.94-2.42-.12,0-.25,0-.38.02l-4.05.51-13.38-13.04c-.56-.55-1.32-.85-2.09-.85-.09,0-.18,0-.27.01l-9.49.86-7.03-2.54-2.98-9.92c-.24-.81-.81-1.48-1.57-1.84-.41-.2-.85-.3-1.3-.3-.38,0-.76.07-1.12.22l-2.39.96-.66-14.4.67-.13,3.73,3.59c.42.41.95.68,1.51.78.19.04.38.05.57.05.15,0,.3-.01.44-.03l12.32-1.84c.79-.12,1.51-.55,1.98-1.2l5.29-7.25c.55.52,1.29.81,2.05.81.04,0,5.51-.24,5.51-.24l1.48,6.49c.26,1.15,1.17,2.03,2.32,2.27l3.98.82c.2.04.4.06.61.06.44,0,.88-.1,1.28-.29l6.35-3.01,1.55,1.33c.55.47,1.24.72,1.95.72.17,0,.34-.01.51-.04l8.12-1.41c.05,0,.1-.02.15-.03l1.04,6.89c.2,1.34,1.28,2.38,2.62,2.53l11.9,1.38c.12.01.23.02.35.02.74,0,1.45-.27,2-.77.64-.57,1-1.39,1-2.25l-.09-14.26,4-15.07,2.07-1.03c.62-.31,1.11-.82,1.39-1.44.09-.21.16-.42.21-.65l4.28-21.31,6.21,5.86c.27.25.58.45.92.59l16.66,6.83s.08.03.14.05c.07.03.14.05.14.05.33.12.69.19,1.04.19.02,0,8.4-.14,8.4-.14l4.12,8.17c.21.41.5.76.87,1.04l10.4,7.87c.42.32.93.52,1.45.59l13.99,1.67.37.69-1.55,9.12c-.12.71.02,1.44.4,2.06l3.42,5.62c.33.54.83.97,1.41,1.21l7.99,3.31c.37.15.76.23,1.15.23.27,0,.54-.04.8-.11l4.19-1.17,5.94,6.08c.37.38.84.65,1.35.79l8.73,2.41,5.86,5.76c.55.54,1.28.85,2.05.86l9.68.16.3.24-.58,8.74c-.02.34.01.68.1,1,.27.96,1,1.74,1.98,2.06.3.1.61.14.91.14,1.02,0,2-.53,2.56-1.44l8.71-14.26c.37-.61.51-1.33.4-2.03l-1.27-7.99,7.92-7.84c.62-.62.94-1.47.88-2.34-.06-.87-.5-1.67-1.2-2.2l-5.93-4.41c-.53-.39-1.15-.59-1.79-.59-.37,0-.75.07-1.11.21l-3.37,1.34-.47-7.01,15-1.28c.16-.01.32-.04.48-.08,1.08-.27,1.94-1.13,2.19-2.24.29-1.27-.28-2.59-1.4-3.25l-6.08-3.59,3.16-.32c1.49-.15,2.64-1.38,2.69-2.87l.25-6.57c.06-1.54-1.05-2.87-2.58-3.08l-1.11-.16.16-4.25c.04-1-.43-1.95-1.24-2.54l-7.71-5.59-1.49-3.6,3.2-19,6.03-9.37,6.03-9.37c.29-.45.45-.96.47-1.46.03-.51-.07-1.02-.3-1.48-.15-.31-.35-.59-.61-.84l-5.54-5.35,5.03-4.52c.34-.31.61-.69.78-1.11l2.95-7.32,15.36-9.68c1.08-.68,1.61-1.96,1.33-3.21l-2.05-9,10.58,7.64c.53.38,1.14.57,1.76.57.69,0,1.39-.24,1.95-.72l1.74-1.49,4.62,3.54c.54.41,1.18.62,1.83.62s1.26-.2,1.8-.6l4.11-3.08,8.96,5.97c.5.33,1.08.5,1.66.5.47,0,.95-.11,1.39-.34l7.76-4.04c1.23-.64,1.86-2.05,1.52-3.4l-2.09-8.26,1.14-2.38,3.17,1c.3.09.6.14.9.14.66,0,1.3-.21,1.83-.63.78-.6,1.21-1.54,1.16-2.53l-.29-5.64,1.94.15c.08,0,.15,0,.23,0,.86,0,1.68-.37,2.25-1.02l4.76-5.42,3.37-.9,2.44,3.04c.58.72,1.44,1.12,2.34,1.12.19,0,.38-.02.57-.05l5.09-.99c.75-.15,1.42-.57,1.86-1.19l3.31-4.6,2.56.67c.25.07.51.1.77.1.57,0,1.13-.16,1.61-.47l9.25-5.9,7,1.2c.17.03.34.04.5.04.7,0,1.38-.24,1.92-.69.67-.56,1.07-1.39,1.08-2.27l.17-12.51,2.3-1.16,7.13,3.18c.39.17.81.26,1.22.26,0,0,0,0,0,0,0,0,0,0,0,0,.51,0,1.02-.13,1.48-.39.15-.09.3-.19.43-.3l5.15-4.26c.85-.7,1.23-1.8,1.04-2.85l3.53-.53.29.65c.35.78,1.03,1.37,1.85,1.63l.31.1c-.43.38-.75.88-.91,1.46l-1.31,4.85c-.36,1.34.24,2.75,1.46,3.42l11.08,6.05c.45.25.94.37,1.44.37.56,0,1.13-.16,1.62-.47l6.55-4.2c.6-.38,1.04-.96,1.25-1.64l3.42-11.07,2.91-2.12,14.47,13.11.09,4.83c.02,1.02.56,1.97,1.43,2.5.48.29,1.02.44,1.57.44.45,0,.89-.1,1.31-.3l3.58-1.74,7.87-3.32c.38-.16.72-.4,1-.69.28-.29.5-.64.65-1.03l1.46-3.91,2.5,1.88,2.03,9.87c.22,1.08,1.02,1.94,2.08,2.26.28.09.57.13.86.13.61,0,1.2-.19,1.7-.53.15-.1.29-.21.42-.34.12-.12.22-.25.32-.38.13-.18.25-.38.34-.59l1.22-2.92,1.9-4.56,4.87-2.24,3.29,3.94,1.42,1.69c.44.53,1.03.87,1.66,1,.21.05.42.07.64.07.66,0,1.33-.22,1.88-.67l.79-.64,5.12-4.19,4.36.35c-.05.17-.09.34-.11.52l-.5,3.97c-.14,1.1.34,2.18,1.24,2.82l3.89,2.77-3.24.64-.83.16c-.36.07-.7.21-1,.39-.01,0-.03.01-.04.02-.55.35-.96.88-1.19,1.49-.03.07-.06.15-.09.22-.01.04-.01.08-.02.13-.03.14-.07.28-.08.42-.02.19-.02.38,0,.57l.46,6.52c.09,1.3,1.02,2.4,2.29,2.71l12.66,3.04s.46.11.46.11c.23.05.45.08.68.08.73,0,1.43-.27,1.97-.74.32-.28.59-.64.77-1.05l1.44-3.27,1.46.23,4.65,7.84c.39.66,1.01,1.14,1.75,1.35l8.32,2.41.07.38-2.6,2.91c-.63.7-.89,1.66-.71,2.58.18.92.79,1.71,1.63,2.12l11.98,5.83-.21,1.24c-.19,1.08.23,2.18,1.09,2.86l14.94,11.86c.44.35.97.56,1.51.63v.21c0,1.1.6,2.1,1.56,2.63l17.06,9.34,6.22,6.75c.24.26.52.47.82.63l-.32,1.53c-.22,1.07.15,2.17.98,2.88.55.48,1.25.73,1.96.73.35,0,.7-.06,1.04-.18l8.24-3.03c.12-.04.24-.1.35-.16l14.54,2.35c.16.03.32.04.48.04.71,0,1.4-.25,1.94-.72.67-.57,1.06-1.41,1.06-2.28h0v-1.95c0-1.47-1.07-2.73-2.52-2.96l-12.24-1.98-2.05-4.32s-.04-.09-.07-.13c0-.01-.01-.03-.01-.03-.39-.76-1.07-1.3-1.86-1.52-.04-.01-.07-.01-.11-.02-.23-.06-.46-.09-.7-.09-.12,0-.25,0-.37.02-.1.01-.19.04-.29.06-.06.01-.12.02-.17.03-.02,0-.03.01-.05.02-1.01.31-1.8,1.14-2.04,2.19l-.35,1.54c-.2-.1-.42-.18-.64-.23-.22-.05-.45-.08-.68-.08-.14,0-.28,0-.42.03l-2.45.35-4.94-5.35-.07-.08s0,0,0,0h0c-.22-.24-.48-.44-.76-.6l-15.21-8.34v-5.19c0-.27-.05-.52-.11-.77,0-.02-.01-.03-.02-.05-.06-.22-.15-.44-.27-.64-.01-.03-.03-.05-.04-.08-.25-.42-.61-.77-1.03-1.03-.02-.01-.04-.03-.06-.05-.03-.02-.07-.02-.1-.04-.16-.08-.33-.15-.51-.21-.06-.02-.12-.04-.18-.06-.23-.05-.46-.09-.7-.09-.27,0-.53.04-.79.11-.26.07-.51.18-.74.31l-2.61,1.55-10-7.94.32-1.87.02-.13s0,0,0,0h0s0-.07,0-.11c.02-.13.03-.26.03-.39,0-.02,0-.04,0-.06,0-.14,0-.28-.03-.42,0-.02,0-.03-.01-.05-.16-.93-.75-1.76-1.64-2.19l-9.47-4.61c.55-.68.77-1.58.6-2.44l-1.1-5.73c-.21-1.11-1.03-2-2.11-2.32l-9.34-2.7-4.84-8.15c-.46-.77-1.23-1.29-2.11-1.43l-3.5-.55c.24-1.16-.23-2.37-1.21-3.06l-.63-.44-8.83-6.27h1.8c1.3,0,2.45-.84,2.85-2.08.4-1.24-.04-2.59-1.09-3.35l-.86-.62-6.77-4.96c-.45-.33-.98-.53-1.53-.57l-9.69-.78c-.05,0-.13,0-.2,0-.01,0-.02,0-.04,0,0,0,0,0,0,0-.01,0-.03,0-.04,0-.7,0-1.37.24-1.91.69l-3.61,2.98-3.99-4.76c-.29-.35-.65-.62-1.05-.8-.02,0-.04-.01-.06-.02-.18-.08-.36-.14-.55-.19-.19-.04-.39-.06-.59-.06-.02,0-.04,0-.06,0,0,0,0,0,0,0s0,0,0,0c-.21,0-.43.02-.64.07-.21.05-.42.11-.62.21l-8.67,3.99c-.21-.45-.52-.85-.93-1.15l-9.17-6.88c-.54-.43-1.2-.66-1.88-.66-.25,0-.51.03-.76.1-.92.24-1.67.9-2.02,1.78l-.11.27-2.93,7.88-1.63.69-9.87-40.2,12.42-33.15.75-.58,8.42,4.25,4.6,7.22c.55.87,1.51,1.39,2.53,1.39.06,0,.12,0,.19,0l11.4-.71,5.65,2.23,2.23.88c.35.14.72.21,1.1.21.12,0,.23,0,.35-.02l19.27-2.25s0,.08,0,.12c.06.98.6,1.87,1.44,2.38l13.72,8.33,1.03.62c.47.28,1.01.43,1.55.43.3,0,.61-.05.91-.14.82-.26,1.49-.86,1.84-1.65l4.26-9.67c.13-.29.21-.59.24-.9.02-.15.02-.31.01-.47,0-.16-.03-.31-.06-.47l-2.11-9.92,28.48-35.69c.59-.74.79-1.71.56-2.62-.23-.91-.88-1.66-1.75-2.02l-6.39-2.67,3.5-17.75c.04-.18.05-.37.06-.55.01-1.09-.57-2.1-1.52-2.64-.16-.09-.33-.17-.5-.23l-11.4-3.93,4.12-14.45,42.04,8.08c.19.04.38.05.57.05.67,0,1.32-.22,1.85-.64.68-.54,1.1-1.34,1.15-2.21v-.13s1.12-15.5,1.12-15.5h0c.06-.84-.24-1.64-.78-2.24-.32-.36-.74-.64-1.21-.81l-15.18-5.38-.3-9.4c-.02-.72-.3-1.39-.76-1.91l16.53-3.61c.86-.19,1.59-.74,2-1.51.41-.77.47-1.69.15-2.5l-1.39-3.58-11.56-29.66c-.1-.25-.23-.48-.39-.7l-4.97-6.7,2.34-6.27c.37-1,.19-2.11-.48-2.94-.57-.71-1.43-1.11-2.33-1.11-.15,0-.3.01-.45.03l-24.08,3.62-5.22-6.03c-.49-.57-1.19-.94-1.94-1.02l-18.97-2.11-3.62-2.02,2.55-4.65c.2-.36.32-.75.36-1.15s0-.81-.12-1.2c-.11-.36-.3-.7-.53-.99.62-.65.93-1.55.81-2.47l-1.08-8.2c-.07-.51-.26-.98-.55-1.37-.48-.66-1.22-1.11-2.07-1.21l-1.46-.18-6.1-.73-3.25-3.58s0-.24.02-.66c.1-2.94.48-14.68.48-14.72,0-.39-.08-.77-.22-1.14l-1.52-3.72,3.12-1.18c1.3-.49,2.09-1.81,1.92-3.18l-1.68-13.3c-.12-.92-.66-1.74-1.46-2.21l-23.28-13.65c-.47-.27-.99-.41-1.52-.41-.4,0-.81.08-1.18.24l-5.25,2.26-13.4-2.15-3.86-11.02c-.41-1.18-1.51-1.97-2.75-2.01,0,0-7.77-.21-7.8-.21-.2,0-.4.02-.59.06-.06.01-.11.04-.17.05-.13.03-.26.07-.39.12-.09.04-.17.09-.26.14-.09.05-.18.08-.26.14-.08.05-.15.12-.22.18-.08.06-.16.12-.23.19l-4.36,4.09-4.34-4.93c-.58-.65-1.4-1.02-2.25-1.02-.2,0-.4.02-.6.06l-4.02.82-6.54-5.39-8.18-16.45c-.52-1.04-1.57-1.66-2.69-1.66-.26,0-.52.03-.78.1l-4.89,1.32-.62-.6-7.27-20.54,17.52-23.12,14-18.49c.39-.52.61-1.17.61-1.82s-.2-1.26-.58-1.78l-8.67-11.81-.78-11.91,2.18-7,1.99-.5c.16-.04.31-.1.46-.16.05-.02.09-.05.14-.07.1-.05.19-.1.28-.16.05-.03.1-.07.14-.1.08-.06.16-.12.23-.19.05-.04.09-.08.13-.12.03-.03.07-.06.1-.09l4.93-1.71c.37-.13.7-.33.99-.57.19-.16.34-.35.48-.55.49-.71.69-1.61.44-2.5l-2.06-7.51,3.85.37.93,1.32,1.08,1.51c.57.79,1.48,1.25,2.44,1.25.14,0,.28,0,.42-.03,1.11-.16,2.04-.92,2.41-1.97l.45-1.29h.05s.23,3.62.23,3.62c.08,1.33,1.03,2.44,2.33,2.74l5.29,1.2c.22.05.44.07.66.07.95,0,1.85-.45,2.43-1.24l9.23-12.7c.41-.57.61-1.26.57-1.96l-.29-4.41,10.52-4.56c.38-.16.72-.4,1-.71l9.57-10.25,10.92,5.47c.42.21.88.32,1.34.32.37,0,.74-.07,1.09-.21.79-.31,1.41-.94,1.71-1.74l.49-1.31,8.47,4c.13.06.26.1.39.14.09.03.17.07.27.1.23.05.46.08.69.08.19,0,.37-.02.56-.05.09-.02.18-.05.27-.08.09-.03.19-.04.28-.08,0,0,0,0,0,0,0,0,0,0,0,0,.12-.05.23-.12.34-.18.07-.04.15-.07.22-.12.07-.04.12-.1.18-.15.1-.08.21-.16.3-.25.03-.03.05-.07.08-.1.25-.28.46-.6.59-.96,0,0,.02-.05.04-.12.16-.45.72-2.07.72-2.07,0,0,3.84.11,3.87.11h0c.35,0,.7-.07,1.03-.19.03-.01.07-.02.1-.03,0,0,0,0,0,0,.35-.15.68-.36.95-.63.21-.21.39-.44.53-.7.01-.02.03-.04.04-.06.01-.03.02-.05.03-.08.13-.26.22-.53.27-.81l2.12-11.42,7.76.38s.3.01.35.01c.15,0,.31-.01.46-.04.02,0,.04-.01.06-.01.13-.02.26-.05.39-.09,0,0,0,0,.01,0,.29-.09.56-.23.81-.4l9.51-6.44c.82-.56,1.32-1.49,1.32-2.48,0-.99-.49-1.92-1.31-2.48l-7.74-5.27,5.41-7.54,12.28,8.93,1.63,1.18c.52.38,1.14.57,1.76.57.49,0,.98-.12,1.43-.36,1.01-.55,1.62-1.63,1.57-2.78l-.44-9.21,4.47-.1c.83-.02,1.62-.38,2.17-1.01l2.41-2.71,2.42,3.96c.49.8,1.33,1.33,2.27,1.42l4.75.46,10.03,9.21.66.6c.43.39.94.63,1.48.73.18.03.36.05.54.05.74,0,1.48-.27,2.05-.81l1.26-1.18,4.27,2.8c.49.32,1.07.49,1.65.49.22,0,.45-.02.67-.07.79-.18,1.48-.68,1.9-1.38l4-6.63c.32-.52.46-1.12.43-1.71s-.23-1.16-.6-1.65l-1.3-1.72,5.9-.41c1.57-.11,2.79-1.42,2.79-2.99v-1.93c0-.83-.35-1.63-.95-2.19-.56-.52-1.29-.81-2.05-.81ZM861.62,284.57c-.19.45-.27.95-.22,1.44.02.25.08.49.16.73l8.55,24.15c.15.44.41.83.74,1.15l3.43,3.33c.57.55,1.32.85,2.09.85.26,0,.53-.03.79-.1l3.7-1.01,6.86,13.78c.19.38.45.71.78.98l9.17,7.55c.54.45,1.22.68,1.91.68.2,0,.4-.02.6-.06l3.52-.72,5.81,6.6c.1.12.22.22.34.32.04.03.06.07.1.09.02.02.05.03.07.04.47.33,1.02.53,1.6.56.05,0,.09,0,.14,0,.76,0,1.5-.29,2.06-.82l.37-.35s.1-.08.15-.13l6.14-5.75,2.32.07,3.71,10.59c.09.26.22.5.37.72.46.66,1.17,1.12,1.99,1.25l17.73,2.83c.15.02.29.03.44.03.41,0,.81-.08,1.19-.24l4.28-1.84,19.05,11.17.9,7.06-4.21,1.59c-.19.07-.37.16-.54.27-.51.32-.91.78-1.15,1.34-.16.37-.25.77-.25,1.16,0,.2.01.4.05.59s.09.39.17.58l3.03,7.44-.53,16.23c-.03.78.25,1.54.78,2.11l5.82,6.41c.48.53,1.15.88,1.86.96l5.6.67.17,1.31-.41.26-3.41,2.19c-.91.58-1.44,1.62-1.38,2.7s.7,2.05,1.68,2.52l1.85.91-2.42,4.4c-.8,1.45-.27,3.26,1.17,4.07l8.76,4.89c.35.19.73.32,1.13.36l18.04,2.02,5.33,6.15.41.47c.29.33.64.59,1.03.77.14.06.29.1.44.15.06.02.11.04.17.06.21.05.42.07.64.07.15,0,.3-.01.45-.03l18.49-2.78-.36.96c-.24.64-.23,1.33-.03,1.96.02.08.03.15.06.23.02.06.07.11.1.17.08.17.16.33.27.48l6.12,8.19,10.66,27.38-18.61,4.06c-.81.18-1.51.69-1.93,1.4-.01.02-.03.03-.04.05h0s0,0,0,0l-.08.14-2.76,4.87c-.11.19-.18.4-.24.6,0,.02-.02.03-.02.05-.04.16-.06.32-.08.48,0,.08-.03.16-.03.25,0,.14.01.28.03.43.01.1.02.21.04.31.03.13.07.25.12.38.02.07.03.14.06.2.02.04.05.08.07.12.03.05.04.11.07.17.04.08.1.14.15.21.04.06.08.11.12.17.1.12.21.23.32.33.05.05.1.1.16.14.12.09.25.17.39.25.06.03.12.07.18.1.16.07.33.13.5.17.04.01.08.03.12.04l5.2,1.15.28,8.94c.02.78.35,1.49.87,2.01,0,0,0,0,0,0,.09.09.18.17.28.24.02.02.05.04.07.06.09.06.18.12.27.17.04.02.08.05.12.07.09.05.18.08.27.12.04.02.08.04.13.06l.07.02s0,0,0,0l3.91,1.39,10.84,3.84-.46,6.43-39.88-7.67-.73-.24c-.31-.1-.63-.15-.95-.15-.5,0-1,.13-1.45.37-.73.41-1.26,1.1-1.46,1.91l-6.63,23.28c-.04.15-.05.29-.07.44,0,.05-.02.1-.02.15,0,.13,0,.25,0,.37,0,.09,0,.17.02.26.02.11.04.22.07.33.02.1.05.19.09.28.04.1.07.2.12.29.05.11.11.2.18.3.04.06.07.13.11.19.01.02.03.03.04.05,0,0,0,0,0,0,.11.13.22.26.35.37.03.03.06.05.1.08.1.09.21.16.33.23.04.03.09.05.13.08.13.07.27.14.41.19.02,0,.04.02.06.03h.04s0,.02,0,.02l11.7,4.03-3.45,17.49c-.03.17-.05.35-.06.52-.02,1.21.69,2.35,1.84,2.83l4.09,1.71-25.87,32.41c-.56.7-.78,1.62-.59,2.5l2.27,10.65-1.36,3.09-3.92-2.38h.01c.09-.08.18-.17.26-.25.04-.04.07-.09.11-.14.06-.07.12-.14.17-.22.08-.11.15-.23.22-.35.03-.06.07-.13.1-.19.07-.14.12-.29.16-.45.01-.05.03-.1.04-.16.04-.18.06-.36.06-.55,0-.02,0-.04,0-.06,0,0,0-.02,0-.03,0-.05.01-.11,0-.16,0-.17-.04-.33-.08-.49,0,0,0,0,0,0-.15-.66-.51-1.26-1.05-1.69l-3.42-2.71c-.08-.06-.17-.12-.26-.17-.05-.03-.1-.08-.16-.11-.07-.04-.15-.07-.23-.1-.08-.03-.15-.07-.23-.1-.09-.03-.18-.05-.28-.07-.07-.02-.14-.04-.21-.05-.16-.03-.33-.04-.5-.04-.12,0-.23,0-.35.02l-24.93,2.91-7.75-3.05c-.35-.14-.72-.21-1.1-.21-.06,0-.12,0-.18,0l-9.6.59-3.76-5.92c-.29-.46-.7-.83-1.18-1.07l-12.42-6.25c-.21-.1-.43-.18-.65-.23,0,0,0,0-.01,0-.23-.05-.45-.08-.68-.08,0,0,0,0,0,0,0,0,0,0,0,0-.49,0-.97.12-1.41.35-.15.08-.29.17-.42.27l-4.31,3.33c-.44.34-.78.8-.97,1.32l-13.46,35.88c-.21.57-.25,1.18-.1,1.77l7.75,31.58-11.14-10.08c-.57-.51-1.29-.78-2.01-.78-.62,0-1.23.19-1.76.57l-7.47,5.42c-.53.38-.91.92-1.11,1.54l-1.04,3.36c-.02-.07-.04-.14-.07-.21-.32-.88-1.04-1.56-1.93-1.84l-10.33-3.18-.91-2.01c-.49-1.08-1.57-1.76-2.73-1.76-.15,0-.29.01-.44.03l-13.39,2c-.92.14-1.72.69-2.17,1.5s-.51,1.78-.15,2.63l.77,1.83-6.45-2.88c-.39-.17-.8-.26-1.22-.26-.46,0-.92.11-1.34.32l-7.06,3.53c-1,.5-1.64,1.52-1.66,2.65l-.12,9.75-3.19-.54c-.17-.03-.34-.04-.5-.04-.57,0-1.13.16-1.61.47l-9.04,5.76-3.74-.99c-.25-.07-.51-.1-.76-.1-.95,0-1.86.45-2.43,1.24l-4.16,5.76-.27.05-2.59-3.23c-.58-.72-1.44-1.12-2.34-1.12-.26,0-.52.03-.78.1l-7.92,2.13c-.57.15-1.08.47-1.48.92l-4.11,4.69-5.07-.38c-.08,0-.15,0-.22,0-.78,0-1.53.3-2.1.85-.62.6-.94,1.44-.9,2.3l.21,4.14-.5-.16c-.3-.09-.6-.14-.9-.14-1.13,0-2.19.64-2.7,1.7l-3.76,7.82c-.3.63-.38,1.35-.21,2.03l1.57,6.23-1.72.9-9.45-6.29c-.5-.34-1.08-.5-1.66-.5-.63,0-1.27.2-1.8.6l-3.91,2.93-4.81-3.69c-.54-.41-1.18-.62-1.83-.62-.69,0-1.38.24-1.94.71l-1.83,1.56-18.03-13.01c-.52-.38-1.14-.57-1.76-.57-.58,0-1.15.17-1.66.5-1.04.69-1.55,1.95-1.27,3.17l4.18,18.32-13.76,8.68c-.53.34-.95.83-1.18,1.42l-3.11,7.73-8.1,7.29c-.39.35-.66.79-.82,1.27-.1.29-.17.59-.17.9-.01.83.32,1.63.91,2.21l6.43,6.22-10.43,16.18c-.22.34-.37.73-.44,1.14l-3.56,21.17-.04.27c-.04.27-.04.54-.01.81,0,0,0,0,0,0,.03.26.1.52.2.77l2.55,6.19c.21.51.56.96,1.01,1.29l6.71,4.87-.22,6.06c-.02.52.1,1.02.32,1.46l-.95.1c-1.42.15-2.54,1.28-2.68,2.7l-.58,6.17c-.03.3-.01.59.05.88l-6.17.53c-1.63.14-2.85,1.56-2.74,3.19l1.24,18.57c.02.24.06.47.13.7.21.67.65,1.26,1.26,1.64.36.23.77.38,1.18.43.14.02.28.03.42.03.38,0,.75-.07,1.11-.21l4.56-1.81-3.96,3.92c-.69.68-1,1.65-.85,2.6l1.38,8.7-.4.66-2.27-1.79c-.13-.1-.27-.19-.41-.27-.43-.24-.91-.37-1.4-.37l-9.38-.16-5.37-5.29c-.36-.36-.81-.62-1.31-.75l-8.68-2.39-7.04-7.22c-.57-.59-1.35-.91-2.15-.91-.27,0-.54.04-.81.11l-5.36,1.5-4.94-2.05-1.63-2.68,1.52-8.98c.11-.66,0-1.33-.31-1.92l-2.37-4.42c-.46-.86-1.31-1.44-2.29-1.56l-15.22-1.83-8.43-6.37-5-9.91c-.51-1.01-1.55-1.65-2.68-1.65-.02,0-10.47.18-10.47.18l-15.07-6.17-9.85-9.3s-.04-.04-.05-.07c-.08-.12-.17-.23-.27-.34-.03-.04-.07-.07-.1-.11-.13-.13-.27-.25-.42-.36l-.29-.2-1.02-.96c-.13-.12-.27-.22-.41-.32-.04-.03-.09-.05-.13-.08-.11-.06-.21-.12-.33-.17-.05-.02-.1-.04-.15-.06-.13-.05-.26-.08-.39-.11-.03,0-.06-.02-.1-.02,0,0-.01,0-.02,0l-9.65-6.56-12.01-8.16-.16-.1c-.09-.06-.19-.1-.29-.15-.21-.1-.43-.19-.66-.24l-17.22-3.87c-.22-.05-.44-.07-.66-.07h0c-.18,0-.35.02-.53.05l-12.53,2.23-7.17-6.04-5.87-10.21c-.54-.95-1.55-1.5-2.6-1.5-.26,0-.52.03-.77.1l-9.81,2.61c-.15.04-.29.09-.43.15-.96.42-1.64,1.31-1.78,2.36l-.6,4.62-10.45,8.93c-.75.64-1.14,1.61-1.04,2.59.1.98.68,1.85,1.54,2.32l1.07.59-2.14,3.26-7.74.91-.45.05c-.55.06-1.06.28-1.49.61l-2.01-5.05c-.12-.29-.27-.56-.46-.79-.57-.7-1.43-1.1-2.32-1.1h0s-.04,0-.05,0c-.27,0-.55.05-.82.14-.05.01-.1.02-.14.04l-14.46,5.23.62-11.59c.08-1.42-.86-2.7-2.24-3.06l-2.83-.74c-.13-.03-.26-.06-.39-.08l-12.38-1.53s-.09,0-.13-.01c-.36-.16-.76-.24-1.18-.24-.02,0-7.2.12-7.2.12-1.49.03-2.73,1.14-2.93,2.62l-.94,7.29-9.91-7.71c-.53-.41-1.18-.63-1.84-.63-.15,0-.31.01-.46.04l-2.48.39c-.04-.25-.12-.5-.23-.73l-8.35-18.19,8.29-8.99c.82-.89,1.02-2.18.52-3.28l-4.32-9.49,1.29-5.96c.23-1.08-.15-2.2-.99-2.92l-3.85-3.27.52-1.44c.15-.41.2-.84.17-1.27-.03-.43-.16-.84-.37-1.22-.43-.76-1.17-1.3-2.02-1.47l-6.02-1.22.54-.19c.83-.29,1.49-.92,1.81-1.74l4.28-10.94c.34-.86.25-1.81-.19-2.59-.15-.26-.34-.5-.56-.71l-9.15-8.45c-.48-.44-1.08-.71-1.71-.78l-.32-2.52c-.07-.56-.3-1.08-.65-1.52l-6.48-7.95c-.58-.71-1.43-1.1-2.33-1.1h0c-.17,0-.34.01-.51.04l-3.69.64c-.84.15-1.59.65-2.04,1.38-.45.73-.57,1.62-.32,2.44l2.95,9.87.15,26.05-8.11.65-3.7-3.77c-.05-.06-.12-.12-.18-.18-.06-.06-.11-.12-.18-.18-.41-.34-.89-.56-1.4-.65-.17-.03-.34-.04-.52-.04s-.36.02-.55.05l-4.02.74-.85-10.92c-.04-.49-.2-.96-.46-1.38l-2.44-3.85,2-4.69c.39-.91.3-1.96-.23-2.79l-13.53-21.23c-.53-.83-1.42-1.34-2.4-1.38l-21.9-.93-4.81-6.33c-.49-.65-1.23-1.07-2.03-1.16l-5.4-.64-1.3-2.02,1.07-9.54c.11-.95-.25-1.9-.95-2.55l-5.15-4.72c-.56-.52-1.29-.79-2.03-.79-.4,0-.81.08-1.2.25l-12.86,5.59-10.45-1.16-7.61-3.68c-.05-.07-.12-.13-.18-.2-.06-.07-.12-.14-.18-.21-.1-.09-.2-.17-.31-.25-.07-.05-.13-.11-.21-.15-.12-.08-.26-.13-.39-.19-.07-.03-.13-.07-.2-.09-.21-.07-.42-.12-.65-.14h-.07s-.49-.06-.49-.06l-.3-.15c-.41-.2-.86-.3-1.31-.3-.18,0-.36.02-.54.05-.05,0-.11.03-.16.04-.11.03-.21.05-.32.08l-10.61-1.09c-.1-.01-.21-.02-.31-.02-.47,0-.94.11-1.36.33l-13.34,6.81-3.89-5.86c-.08-.12-.17-.24-.27-.35-.3-.33-.66-.59-1.07-.76l-8.76-3.66c-.37-.15-.76-.23-1.16-.23-.23,0-.45.03-.67.08l-.63.14-16.67,3.82-6.8-5.38c-.54-.43-1.2-.65-1.86-.65h0c-.57,0-1.14.16-1.64.49l-2.68,1.74-4.34-7.92c-.34-.62-.88-1.1-1.54-1.35l-7.61-2.98-4.38-5.67c-.18-.24-.4-.45-.65-.62-.07-.05-.14-.08-.21-.12-.06-.03-.11-.07-.18-.11-.13-.07-.27-.12-.42-.17l-.45-.15-11.55-3.77-8.98-7.51,2.67-4.4c.14-.22.24-.46.31-.71.22-.74.15-1.54-.22-2.24-.49-.93-1.42-1.54-2.47-1.6h-.19s1.13-1.06,1.13-1.06c.33-.3.58-.68.75-1.09l6.84-17.23,5.73,7.17c.2.25.44.45.7.62.39.25.82.43,1.29.48l16.63,1.93,17.27,9.83c.42.24.9.38,1.39.39,0,0,1.32.04,3.38.1.59.02,1.24.04,1.93.06.35.01.71.02,1.08.03.74.02,1.52.05,2.33.07.4.01.81.03,1.23.04,7.89.24,17.6.54,17.62.54h0c.62,0,1.21-.19,1.71-.54.17-.12.32-.25.46-.4.59-.62.88-1.46.81-2.31l-.94-11.32c-.07-.83-.48-1.6-1.14-2.12l-7.55-5.89c-.53-.41-1.18-.63-1.85-.63-.04,0-4.91.19-4.91.19l-2.33-4.1,1.1-10.78c.01-.14.02-.28.01-.41-.01-.36-.1-.71-.23-1.04-.02-.04-.03-.09-.05-.13-.23-.49-.59-.91-1.05-1.22l-4.96-3.3,2.7-2.21c.67-.55,1.07-1.36,1.1-2.22l.69-20.18,7.06-.24c.76-.03,1.48-.34,2.02-.88l12.55-12.55c.43-.43.72-.99.83-1.58.04-.2.05-.4.05-.6l-.43-20.59,1.97-2.04c.6-.63.91-1.48.83-2.35-.08-.87-.53-1.66-1.23-2.17l-15.08-10.89,2.06-2.17c.74-.78,1.01-1.91.69-2.94l-4.28-13.99,3.05-5.5c.34-.62.45-1.33.33-2.01-.04-.23-.11-.45-.21-.66-.38-.86-1.14-1.49-2.06-1.71l-7.46-1.75-5.62-7.79c-.27-.37-.61-.67-1.01-.88-.13-.07-.27-.13-.41-.18l-24.66-8.83-.32-20.86c0-.52-.15-1.03-.41-1.47l-5.6-9.54c-.03-.06-.08-.1-.11-.15-.08-.13-.17-.25-.27-.36-.04-.05-.09-.08-.14-.13-.12-.12-.25-.23-.39-.33-.02-.01-.05-.02-.07-.04-.35-.23-.75-.39-1.19-.46l-9.95-1.4-3.53-13.1c-.14-.5-.39-.94-.73-1.29-.56-.58-1.34-.93-2.17-.93h0c-.25,0-.51.03-.76.1l-13.5,3.54-3.1-9.11c-.11-.32-.27-.61-.47-.88l-14.13-18.17c.13.02.27.03.41.03.54,0,1.09-.15,1.58-.45l11.6-7.18c.75-.46,1.25-1.23,1.39-2.1s-.12-1.75-.69-2.42l-5.79-6.7.88-6.44,2.37-.97c.24-.1.46-.22.66-.38.6-.45,1.02-1.12,1.16-1.89.18-1.02-.18-2.05-.95-2.74l-3.02-2.72,2.25-10.12c.27-1.22-.24-2.48-1.29-3.16l-13.36-8.71-4.24-23.78c-.22-1.25-1.22-2.23-2.47-2.43l-2.91-.47.46-2.88c.17-1.07-.25-2.14-1.09-2.82l-6.9-5.52c-.54-.43-1.2-.66-1.87-.66-.28,0-.55.04-.82.12-.93.27-1.68.97-2,1.88l-2.25,6.35-12.69-15.82,3.56-5.55c.74-1.16.6-2.68-.34-3.68l-1.94-2.06,10.06-2.4c.38-.09.72-.25,1.02-.47.01,0,.02-.02.03-.02.13-.09.25-.2.36-.31.03-.03.06-.06.08-.09.09-.1.17-.19.24-.3.03-.05.06-.1.1-.14.06-.1.11-.19.16-.3.03-.06.06-.12.08-.19.04-.1.07-.19.1-.29.02-.07.04-.14.06-.22.02-.1.03-.2.04-.3,0-.08.02-.15.02-.23,0-.02,0-.04,0-.07,0-.15-.01-.3-.03-.44l-1.94-13.02c-.17-1.16-1-2.11-2.13-2.44l-36.28-10.55-3.46-8.27s0,0,0,0l-.05-.13c-.04-.1-.11-.19-.16-.28-.07-.12-.12-.25-.21-.36-.05-.07-.12-.12-.18-.19-.11-.13-.22-.26-.35-.37l-12.55-9.95,2.22-3.28c.87-1.29.62-3.03-.59-4.01l-2.88-2.35-6.44-7.3,4.14-14.09c.19-.65.15-1.33-.09-1.94l10.08-6.74c1.35-.9,1.74-2.71.87-4.09l-2.41-3.84,5.4-7.78c.57-.82.69-1.88.33-2.81l-.69-1.76,15.36-3.44,2.23,2.61c.59.69,1.44,1.05,2.28,1.05.17,0,.34-.01.51-.04.51-.09,1.01-.31,1.43-.67l1.38-1.17,3.2,2.41c.53.4,1.16.6,1.81.6.25,0,.49-.03.74-.09.88-.22,1.61-.83,1.99-1.66l4.04-8.85c.12-.27.19-.55.23-.83.09-.67-.03-1.37-.39-1.96l-.73-1.21,6.87-1.92c1.15-.32,2-1.29,2.16-2.48l.86-6.22,7.77-3.53c1.31-.59,1.98-2.02,1.68-3.38-.03-.15-.07-.3-.13-.45l-1.88-4.81.24-.4,7.75-.74.71,3.32c.19.89.78,1.65,1.59,2.05l8.04,4.02c.43.21.89.32,1.34.32.74,0,1.47-.27,2.04-.8l.85-.79,10.59,5.07c.4.19.85.29,1.29.29h0s7.32-.14,9.6-.18c.42,0,.67-.01.67-.01l-1.34,9.98c-.12.93.2,1.87.87,2.54l12.86,12.67c.58.57,1.34.86,2.11.86.54,0,1.07-.14,1.56-.44l10.83-6.58,20.69,1.5c.07,0,.15,0,.22,0h0c.9,0,1.72-.4,2.28-1.05.33-.39.57-.87.67-1.41l.64-3.44,4.23-.58-.17,2.38h0c-.05.62.11,1.24.42,1.77.11.18.23.34.37.49.57.61,1.36.96,2.2.96h19.07l.78,1.83c.27.64.77,1.14,1.37,1.45.05.03.1.07.15.09.16.07.34.11.51.16.07.02.13.05.2.06,0,0,0,0,0,0,0,0,0,0,0,0,.18.03.35.05.53.05.2,0,.41-.02.61-.06.09-.02.18-.06.26-.08.1-.03.21-.06.31-.1.1-.04.2-.11.3-.17.08-.04.16-.08.23-.13.1-.07.18-.15.27-.23.07-.06.14-.11.2-.17,0,0,0,0,0,0,0,0,0,0,0,0,.14-.15.27-.32.38-.5l.19-.3,1.51,1.67c.57.63,1.38.99,2.22.99.02,0,.04,0,.05,0,.87-.02,1.68-.4,2.24-1.07l.63-.75,4.36,2.09c.42.2.86.3,1.3.3.95,0,1.87-.45,2.45-1.26l3.94-5.55c.48-.67.66-1.51.5-2.32s-.65-1.52-1.35-1.96l-1.04-.65,9.98-1c.5-.05.98-.23,1.39-.51l24.95-17.07c.83-.57,1.31-1.5,1.31-2.49,0-.14-.01-.28-.03-.42l-.68-4.59,6.64-2.16c.91-.3,1.62-1.01,1.92-1.92.22-.68.19-1.41-.08-2.07-.09-.22-.2-.43-.34-.62l-1.05-1.46.22-.2,3.39.55c.16.03.33.04.49.04.17,0,.34-.01.5-.04,1.15-.2,2.12-1.05,2.41-2.24l1.62-6.56,2.27-.92c.54-.22.98-.57,1.3-1.01.53-.73.73-1.69.46-2.61l-.42-1.43s7.64.28,7.68.28c1.39,0,2.6-.96,2.92-2.32l2.79-12.01,3.42-.37c.72-.08,1.39-.41,1.88-.95l6.43-6.95,6.97.95,4.01,4.9c.59.71,1.45,1.1,2.32,1.1.46,0,.93-.11,1.37-.33l14.63-7.52,3.69,4.72c.07.09.15.16.22.24.04.04.07.08.11.12.1.09.2.16.31.24.03.02.05.04.08.06.27.18.57.31.89.4l9.69,2.52c.25.06.5.1.75.1.49,0,.98-.12,1.42-.36l5.84-3.13c.44-.24.81-.58,1.08-.99.03-.04.04-.08.06-.12.1-.17.2-.34.27-.53.02-.06.02-.13.04-.19.05-.17.1-.35.12-.53l1.13-12.42,6.34-3.9,4.85,6c.38.47.9.82,1.48.99l2.87.85.76,3.74c.28,1.37,1.47,2.37,2.87,2.4l13.8.3.68,8.1c.11,1.36,1.13,2.45,2.43,2.7.18.04.37.05.57.05,0,0,0,0,0,0,0,0,0,0,0,0,.04,0,8.74-.37,8.74-.37l1.62,5.15c.05.15.1.29.17.43.2.41.5.77.86,1.05l5.9,4.53c.53.41,1.18.62,1.83.62.42,0,.84-.09,1.24-.27,1.01-.46,1.68-1.44,1.75-2.54l.23-3.61,4.9-1.91.73.24.46.15,1.76,5.74c.02.08.06.15.09.22.03.06.05.13.07.19.02.05.05.09.08.14.04.08.09.17.14.24.01.02.03.04.05.06.07.1.14.19.22.28,0,0,.01,0,.02.02.09.1.19.2.3.28,0,0,0,0,0,0,.11.09.22.17.34.25,0,0,.01,0,.02,0,.24.15.5.26.78.33,0,0,0,0,0,0,.14.04.28.06.43.08.11.01.22.02.33.02.27,0,.53-.04.78-.1.76-.21,1.42-.71,1.82-1.41l3.71-6.54,4.22,4.69c.55.61,1.33.97,2.15.99.03,0,.05,0,.08,0,.8,0,1.56-.32,2.12-.88l4.44-4.45,8.02-2,42.19,11.77,6.63,5c.52.39,1.16.6,1.81.6h0c.07,0,.15,0,.22,0l6.8-.5c.63-.05,1.23-.29,1.71-.7l10.03-8.44,15.71-6.21c.71-.28,1.28-.82,1.61-1.5l2.12-4.47c.24-.5.33-1.04.28-1.57s-.24-1.05-.57-1.49l-3.11-4.22c-.49-.66-1.23-1.1-2.05-1.2l-1.93-.24,11.49-4.9h3.03l6.98,7.65c.57.63,1.38.99,2.22.99.04,0,.08,0,.12,0,.73-.03,1.41-.34,1.94-.84.11-.11.23-.21.32-.34l.48-.62,9.44-12.14,17.87,13.53-1.15,5.47c-.19.88.04,1.81.61,2.51.57.7,1.43,1.11,2.33,1.11.16,0,.32-.02.48-.04.06,0,.11-.03.16-.04.1-.02.2-.05.3-.08.06-.02.11-.04.16-.06.09-.04.19-.08.28-.12.05-.02.09-.05.13-.08.06-.03.12-.06.18-.1l11.68-8,5.54,2.2-2.88,3.94c-.11.15-.21.31-.28.48-.16.33-.25.68-.28,1.03-.08.88.24,1.78.91,2.43l5.38,5.15c.58.55,1.33.83,2.07.83.69,0,1.38-.23,1.94-.71l6.74-5.69c.47-.4.8-.92.96-1.51.05-.19.09-.39.1-.6l.42-6.67,13.03-6.3,8.09,1.32c.16.03.32.04.48.04.8,0,1.57-.32,2.14-.9l3.19-3.24,4.69,3.97,3.21,38.55.03.4s.01.07.02.11c.09.77.46,1.49,1.06,1.99l36.58,30.24-1.16,1.84c-.09.15-.17.3-.23.45-.45,1.09-.23,2.36.61,3.23l8.42,8.73-2.58,7.65c-.09.27-.14.54-.15.81-.04.82.26,1.64.85,2.24l4.25,4.35c.05.06.11.11.17.16l11.67,10.2c.44.39.99.64,1.58.71l16.02,2.15,1.93,15.25c.1.82.54,1.56,1.21,2.05l3.69,2.7,1.2.87c.39.28.83.46,1.3.53.15.02.31.04.46.04.37,0,.73-.07,1.08-.2.47-.18.89-.48,1.21-.86.25-.3.42-.65.54-1.02.03-.1.08-.2.11-.31l.22-1.11.52.12,4.36,6.13-2.64,6.62-11.47,12.75c-.11.12-.2.26-.29.39-.01.02-.03.04-.05.06-.06.1-.1.21-.15.32-.06.13-.1.25-.14.38-.03.11-.07.22-.09.33,0,.02,0,.04,0,.06-.14.88.11,1.8.76,2.5l3.57,3.86-1.59,5.38-.03.11s0,0,0,0h0c-.02.07-.03.14-.04.21-.02.11-.05.21-.06.32,0,.07,0,.14,0,.22-.02.47.07.94.27,1.38l5.13,10.92c.21.45.53.83.92,1.13l8.93,6.67c.53.4,1.16.6,1.79.6.56,0,1.12-.16,1.61-.47l3.48-2.22,11.08,6.44c.46.27.99.41,1.51.41.45,0,.9-.1,1.31-.3l3.58-1.74.28-.14,1.47,1.9c.07.09.16.17.24.25.07.08.14.16.22.23.08.06.17.11.25.17.1.07.19.14.3.2.09.05.2.07.29.11.11.04.21.09.33.12.11.03.22.03.33.04.11.02.22.04.34.05.02,0,.05,0,.07,0,.88,0,1.72-.39,2.29-1.06l.6-.71c.42.27.91.44,1.42.47l8.73.61c.07,0,.14,0,.21,0,.57,0,1.12-.16,1.6-.46,0,0,0,0,0,0,.16-.1.31-.21.44-.34.61-.57.95-1.36.95-2.19l.08-16.47,5.42-3.32-1.11,2.82c-.09.23-.15.48-.18.72,0,.03-.01.05-.01.08,0,.08,0,.15,0,.23,0,.06,0,.12,0,.18,0,.04.01.09.01.13,0,.09.01.18.03.27,0,.01,0,.03,0,.04.1.52.33,1.01.69,1.42.43.49,1.01.82,1.63.96.21.04.42.07.63.07.24,0,.48-.03.72-.09l19.77-4.89c.93-.23,1.69-.89,2.05-1.77l.18-.43,7.75.55c.07,0,.14,0,.21,0,.74,0,1.45-.27,2-.77l2.34-2.1,22.15,4.43-1.82,5.79c-.11.35-.16.73-.13,1.1l.86,13.01.08,1.24c.04.57.24,1.12.57,1.58l7.35,10.03-30.91,40.8c-.15.2-.28.42-.37.64ZM881.16,669.89l-.94,3.04-2.57,1.65-.08-.04c.32-.22.59-.5.81-.84l1.86-2.88,1.2-1.86-.29.94ZM155.14,769.33l.69,3.39h0s-.69-3.39-.69-3.39ZM377.28,691.12c.42.21.88.31,1.34.31.42,0,.84-.09,1.24-.27l1.59-.72,4.29,3.96-2.23,5.7-6.16,2.13-.07-11.12ZM976.17,695.65l-2.54-.61,3.08-.61-.54,1.22Z"/>
  <path class="cls-1" d="M1080.69,59.54c-.09-.02-.19-.04-.28-.05l-23.22-14.59-11.26-18.45-2.1-14.29c-.11-.77-.52-1.47-1.14-1.94l-8.24-6.33,2.29-2.62c.77-.89.96-2.14.47-3.21-.49-1.07-1.55-1.76-2.73-1.76h-2.55c-.87,0-1.69.38-2.26,1.03l-4.62,5.31c-.54.62-.8,1.45-.72,2.27.08.82.5,1.58,1.16,2.08l10.81,8.3,1.96,13.31c.06.4.2.78.41,1.13l12.39,20.28c.24.4.57.73.96.98l26.41,16.6c.49.31,1.04.46,1.6.46.5,0,1-.12,1.45-.37.96-.53,1.55-1.53,1.55-2.63v-2.58c0-1.39-.96-2.6-2.31-2.92Z"/>
</svg>