<?xml version="1.0" encoding="UTF-8"?>
<svg id="_Шар_1" data-name="Шар 1" xmlns="http://www.w3.org/2000/svg" viewBox="0 0 1080 1080">
  <defs>
    <style>
      .cls-1 {
        fill: #fff;
      }
    </style>
  </defs>
  <g id="UA-53">
    <path class="cls-1" d="M376.19,98.4l4.37,5.43c.64.79,1.5,1.37,2.47,1.66l2.19.65.53,2.63c.46,2.29,2.45,3.96,4.79,4.01l12.78.28.56,6.75c.22,2.6,2.39,4.58,4.98,4.58.07,0,.14,0,.21,0l7.33-.31,1.39,4.45c.31.98.91,1.84,1.72,2.47l4.41,3.4c.89.69,1.97,1.04,3.05,1.04.7,0,1.41-.15,2.07-.45,1.68-.76,2.81-2.4,2.92-4.24l.08-1.35,4.29-1.68.51.16,1.02,3.35c.58,1.91,2.25,3.3,4.24,3.51.18.02.36.03.54.03,1.79,0,3.46-.96,4.35-2.54l2.11-3.74,2.86,3.2c.92,1.03,2.22,1.63,3.6,1.67.04,0,.09,0,.13,0,1.33,0,2.61-.53,3.55-1.47l3.71-3.74,7.88-1.98,43.53,12.23,6.47,4.9c.87.66,1.93,1.01,3.02,1.01.12,0,.25,0,.37-.01l6.38-.47c1.05-.08,2.06-.49,2.86-1.17l10.08-8.54,15.86-6.31c1.18-.47,2.13-1.37,2.67-2.51l1.78-3.78c.78-1.66.6-3.61-.49-5.09l-2.63-3.59c-.56-.76-1.32-1.34-2.18-1.69l9.22-3.96h2.58l6.21,6.86c.95,1.05,2.3,1.64,3.71,1.64.07,0,.13,0,.2,0,1.48-.06,2.86-.77,3.76-1.94l9.08-11.75,17.48,13.31-.58,2.77c-.42,2,.43,4.05,2.13,5.18.84.56,1.8.84,2.77.84s1.98-.29,2.84-.88l9.72-6.7,4.31,1.72-1.85,2.54c-1.47,2.02-1.22,4.81.58,6.54l4.32,4.16c.96.93,2.21,1.4,3.47,1.4,1.15,0,2.3-.39,3.23-1.19l6.01-5.1c1.04-.88,1.67-2.14,1.75-3.5l.38-6.06,12.85-6.25,7.63,1.25c.27.04.54.07.81.07,1.33,0,2.63-.53,3.57-1.5l2.37-2.43,3.98,3.38,3.3,40.06c.11,1.34.75,2.58,1.79,3.43l37.19,30.92-.4.64c-1.22,1.94-.96,4.46.63,6.11l7.86,8.21-2.33,6.96c-.59,1.77-.15,3.73,1.15,5.07l3.94,4.06c.09.09.19.18.29.27l11.92,10.48c.74.65,1.65,1.07,2.63,1.2l15.72,2.13,1.87,14.88c.17,1.36.9,2.6,2,3.41l3.47,2.55c.87.64,1.91.97,2.96.97.61,0,1.22-.11,1.81-.34,1.06-.41,1.93-1.16,2.49-2.11l3.76,5.31-2.52,6.38-11.23,12.56c-1.72,1.92-1.7,4.83.05,6.72l2.78,3.02-1.45,4.93c-.34,1.17-.25,2.42.27,3.53l5.07,10.86c.35.74.87,1.39,1.53,1.88l8.54,6.42c.89.67,1.94,1,3,1,.93,0,1.87-.26,2.7-.79l2.59-1.65,10.6,6.2c.78.45,1.65.68,2.52.68.75,0,1.5-.17,2.19-.51l2.89-1.41.33.43c.92,1.21,2.34,1.93,3.86,1.96.04,0,.08,0,.11,0,1.3,0,2.55-.51,3.48-1.41.68.42,1.46.67,2.27.73l6.67.47c.12,0,.24.01.35.01,1.25,0,2.47-.47,3.4-1.33,1.01-.94,1.59-2.26,1.6-3.64l.08-11.99,3.24-1.97c-.18,1.4.24,2.83,1.19,3.92.96,1.1,2.34,1.72,3.77,1.72.4,0,.8-.05,1.19-.14l18.27-4.48c1.32-.32,2.44-1.17,3.12-2.33l7.11.5c.12,0,.23.01.35.01,1.22,0,2.4-.45,3.32-1.26l1.81-1.61,21.75,4.31-1.53,4.85c-.19.59-.26,1.21-.22,1.83l.94,14.28c.06.96.4,1.87.97,2.64l7.09,9.58-31.52,41.25c-1.03,1.35-1.31,3.12-.74,4.72l8.66,24.27c.26.73.69,1.39,1.25,1.93l3.01,2.89c.94.91,2.19,1.39,3.46,1.39.43,0,.87-.06,1.3-.17l2.65-.71,6.74,13.43c.32.63.76,1.19,1.31,1.63l9.04,7.37c.9.73,2.02,1.13,3.16,1.13.33,0,.66-.03.99-.1l2.74-.55,5.06,5.69c.89,1.01,2.15,1.61,3.5,1.67.08,0,.16,0,.24,0,1.26,0,2.48-.48,3.4-1.34l5.94-5.52,1.49.04,3.47,9.82c.61,1.73,2.12,2.99,3.93,3.27l17.61,2.8c.26.04.52.06.79.06.67,0,1.34-.14,1.96-.4l3.81-1.63,19.14,11.13.78,6.13-2.78,1.04c-1.27.47-2.29,1.44-2.83,2.68-.54,1.24-.56,2.65-.04,3.9l2.7,6.57-.53,16.19c-.04,1.31.43,2.58,1.31,3.54l5.55,6.07c.81.88,1.91,1.45,3.1,1.59l4.81.57v.07s-2,1.27-2,1.27c-1.53.97-2.42,2.7-2.31,4.51.09,1.62.96,3.08,2.31,3.93l-1.59,2.87c-.64,1.16-.8,2.53-.43,3.8.37,1.28,1.22,2.35,2.39,3l8.1,4.48c.58.32,1.21.52,1.87.59l18.31,2.03,5.4,6.19c.96,1.1,2.33,1.71,3.77,1.71.24,0,.49-.02.74-.05l17.4-2.59c-.22,1.34.11,2.72.94,3.83l5.99,7.95,10.69,27.21-17.98,3.89c-1.39.3-2.59,1.18-3.29,2.41l-2.07,3.64c-.79,1.38-.87,3.05-.22,4.51.65,1.45,1.95,2.51,3.5,2.85l3.45.75.25,7.87c.07,2.06,1.39,3.87,3.34,4.56l14.19,4.99-.36,4.96-40.99-7.81c-.32-.06-.63-.09-.94-.09-2.19,0-4.18,1.45-4.8,3.62l-6.4,22.31c-.74,2.56.67,5.25,3.19,6.11l10.64,3.63-3.29,16.52c-.47,2.34.79,4.68,2.99,5.6l2.4.99-25.94,32.22c-.94,1.17-1.31,2.71-.99,4.18l2.2,10.26-.9,2.02-2.67-1.6c.28-.63.43-1.32.43-2.02,0-1.53-.71-2.98-1.91-3.93l-2.26-1.77c-.88-.69-1.97-1.07-3.09-1.07-.19,0-.38.01-.57.03l-25.41,2.94-7.69-3c-.58-.23-1.2-.34-1.82-.34-.1,0-.2,0-.3,0l-9.31.57-3.5-5.46c-.49-.76-1.17-1.37-1.98-1.78l-12.15-6.07c-.71-.35-1.47-.53-2.23-.53-1.08,0-2.16.35-3.05,1.04l-3.77,2.89c-.74.57-1.3,1.33-1.63,2.2l-13.84,36.58c-.36.95-.42,1.99-.18,2.97l7.33,29.6-8.93-8.02c-.95-.85-2.14-1.28-3.34-1.28-1.02,0-2.04.31-2.92.94l-6.87,4.95c-.88.63-1.53,1.54-1.85,2.57l-.62,2c-.63-.92-1.56-1.61-2.65-1.94l-9.15-2.8-.48-1.04c-.82-1.8-2.61-2.92-4.54-2.92-.24,0-.49.02-.74.05l-11.96,1.77c-1.53.23-2.87,1.15-3.63,2.5-.54.96-.74,2.06-.59,3.13l-4.51-1.99c-.64-.28-1.33-.43-2.02-.43-.76,0-1.52.17-2.22.52l-6.4,3.17c-1.68.83-2.75,2.54-2.78,4.41l-.11,8.44-1.96-.33c-.28-.05-.56-.07-.83-.07-.94,0-1.87.26-2.67.77l-8.8,5.56-2.89-.76c-.42-.11-.85-.16-1.27-.16-1.57,0-3.09.74-4.04,2.06l-3.44,4.72-1.72-2.13c-.96-1.19-2.4-1.85-3.88-1.85-.43,0-.86.06-1.29.17l-7.34,1.96c-.95.25-1.8.78-2.45,1.51l-3.82,4.3-3.74-.28c-.13,0-.25-.01-.37-.01-1.3,0-2.56.51-3.49,1.42-1.03,1-1.57,2.4-1.5,3.84l.11,2.11s0,0-.01,0c-1.87,0-3.65,1.06-4.5,2.82l-3.39,7c-.51,1.06-.64,2.27-.35,3.41l1.37,5.39-.73.38-8.85-5.85c-.84-.55-1.8-.83-2.76-.83-1.05,0-2.1.33-2.98.99l-3.01,2.24-3.88-2.95c-.9-.68-1.96-1.02-3.03-1.02-1.15,0-2.29.39-3.22,1.18l-.79.67-16.14-11.55c-.87-.62-1.89-.93-2.91-.93-.97,0-1.93.28-2.77.84-1.73,1.15-2.57,3.26-2.1,5.28l3.63,15.75-13.55,8.47c-.89.56-1.59,1.38-1.98,2.36l-3.05,7.51-7.51,6.69c-1.04.93-1.65,2.25-1.67,3.64-.03,1.39.53,2.74,1.54,3.7l5.39,5.16-10.36,15.94c-.37.57-.62,1.22-.74,1.89l-3.67,21.65c-.16.93-.05,1.89.31,2.76l2.45,5.88c.36.86.94,1.6,1.7,2.14l6.39,4.59-.18,4.88c-.02.58.06,1.15.22,1.68-2.04.5-3.58,2.24-3.78,4.38l-.47,4.95c-.03.27-.03.53-.01.79l-4.66.39c-2.72.23-4.75,2.59-4.57,5.32l1.13,16.89c.11,1.59.97,3.04,2.32,3.89.81.51,1.74.77,2.67.77.44,0,.88-.06,1.31-.18l-.67.66c-1.16,1.14-1.69,2.76-1.44,4.36l1.19,7.43-.99-.77c-.86-.67-1.91-1.04-2.99-1.06l-9.12-.15-5.17-5.05c-.61-.59-1.36-1.02-2.17-1.25l-8.59-2.35-6.78-6.88c-.95-.97-2.24-1.49-3.56-1.49-.44,0-.89.06-1.33.18l-4.75,1.32-4.63-1.9-1.37-2.23,1.47-8.6c.19-1.1,0-2.24-.53-3.22l-2.07-3.83c-.77-1.43-2.19-2.39-3.81-2.58l-15.14-1.8-8.45-6.34-4.84-9.51c-.85-1.68-2.58-2.73-4.46-2.73-.03,0-.07,0-.1,0l-8.51.17-15.39-6.37-11.08-10.57c-.19-.18-.4-.35-.62-.5l-24.93-17.11c-.52-.36-1.11-.61-1.72-.75l-17.59-3.99c-.36-.08-.74-.12-1.11-.12-.3,0-.59.03-.89.08l-12.44,2.24-7.03-5.98-5.68-9.98c-.9-1.59-2.58-2.53-4.34-2.53-.43,0-.87.06-1.3.17l-8.84,2.38c-1.95.53-3.4,2.18-3.66,4.19l-.51,3.91-9.56,8.26c-1.24,1.07-1.87,2.67-1.71,4.3.13,1.27.74,2.43,1.69,3.26l-1.61,2.47-6.51.77c-.89.1-1.71.44-2.4.96l-1.58-4c-.77-1.96-2.66-3.17-4.65-3.17-.57,0-1.15.1-1.71.3l-12.93,4.72.54-10.12c.13-2.37-1.43-4.5-3.72-5.1l-2.16-.57c-.22-.06-.44-.1-.66-.13l-12.23-1.52c-.21-.03-.41-.04-.62-.04s-.39.01-.59.03c-.55-.21-1.14-.32-1.76-.32-.03,0-.06,0-.09,0l-5.64.1c-2.49.04-4.56,1.9-4.88,4.37l-.67,5.31-8.77-6.9c-.89-.7-1.98-1.07-3.09-1.07-.26,0-.52.02-.78.06l-1.55.24c-.07-.4-.2-.8-.37-1.17l-8.04-17.72,7.84-8.59c1.35-1.47,1.69-3.61.87-5.43l-4.12-9.15,1.16-5.43c.38-1.79-.24-3.64-1.63-4.83l-3.13-2.7c.45-1.34.31-2.81-.38-4.04-.71-1.26-1.94-2.16-3.36-2.45l-3.08-.63c.52-.5.93-1.11,1.19-1.79l4.05-10.46c.74-1.91.24-4.07-1.25-5.46l-8.56-7.98c-.6-.56-1.3-.95-2.06-1.16l-.25-1.99c-.12-.92-.49-1.79-1.07-2.52l-6.21-7.7c-.96-1.19-2.4-1.86-3.89-1.86-.29,0-.58.02-.87.08l-2.16.38c-1.4.25-2.63,1.08-3.38,2.29-.75,1.21-.95,2.68-.55,4.05l2.72,9.21.16,26.59-7.23.58-3.35-3.44c-.95-.98-2.25-1.52-3.59-1.52-.3,0-.61.03-.91.08l-2.71.5-.8-10.33c-.06-.81-.32-1.59-.75-2.27l-2.19-3.5,1.72-4.07c.64-1.51.49-3.23-.38-4.61l-13.55-21.48c-.88-1.39-2.38-2.26-4.01-2.33l-21.91-.94-4.51-6c-.82-1.09-2.05-1.8-3.4-1.96l-4.79-.57-.98-1.55,1.03-9.28c.17-1.58-.41-3.14-1.57-4.22l-4.52-4.18c-.94-.87-2.16-1.33-3.4-1.33-.68,0-1.37.14-2.01.42l-12.6,5.54-10.5-1.18-9.95-4.85c-.53-.26-1.09-.42-1.67-.48l-12.79-1.33c-.17-.02-.35-.03-.52-.03-.8,0-1.58.19-2.29.56l-12.93,6.68-3.45-5.26c-.54-.83-1.32-1.48-2.24-1.86l-8.56-3.61c-.62-.26-1.28-.39-1.94-.39-.38,0-.76.04-1.13.13l-17.3,4.02-6.2-4.95c-.91-.73-2.01-1.09-3.12-1.09-.95,0-1.91.27-2.75.82l-1.38.91-3.9-7.19c-.56-1.03-1.47-1.84-2.56-2.27l-7.36-2.91-4.24-5.55c-.61-.8-1.45-1.4-2.41-1.71l-12.06-3.97-8.71-7.37,1.58-2.63c.9-1.5.95-3.35.14-4.9-.37-.7-.88-1.28-1.5-1.73l.4-.38c.54-.51.96-1.13,1.23-1.82l6.51-16.54,4.77,6.02c.82,1.04,2.02,1.71,3.34,1.86l16.76,1.97,17.64,10.14c.71.41,1.51.64,2.33.66l27.28.86c.05,0,.1,0,.16,0,1.37,0,2.68-.56,3.62-1.55.98-1.03,1.48-2.43,1.36-3.85l-.85-10.36c-.11-1.39-.8-2.66-1.89-3.52l-7.24-5.7c-.88-.7-1.97-1.07-3.09-1.07-.07,0-.13,0-.2,0l-4.09.16-2.05-3.65,1.06-10.5c.19-1.83-.65-3.62-2.18-4.65l-3.77-2.54,1.62-1.35c1.1-.91,1.76-2.25,1.81-3.68l.69-20.05,6.16-.22c1.27-.04,2.48-.57,3.38-1.48l12.51-12.64c.95-.96,1.47-2.27,1.45-3.62l-.43-20.94,1.02-1.08c.99-1.04,1.49-2.46,1.36-3.9-.13-1.43-.87-2.74-2.03-3.59l-14.06-10.26,1.12-1.2c1.22-1.3,1.65-3.16,1.14-4.86l-4.19-13.87,2.38-4.34c.75-1.37.82-3.01.18-4.43-.63-1.43-1.9-2.47-3.41-2.83l-6.17-1.47-5.5-7.7c-.59-.83-1.42-1.45-2.37-1.8l-24.9-9-.3-14.68c-.02-.85-.25-1.68-.68-2.41l-5.45-9.35c-.77-1.32-2.1-2.22-3.61-2.43l-9.31-1.33-3.28-12.2c-.6-2.23-2.62-3.71-4.83-3.71-.42,0-.85.05-1.28.17l-12.29,3.25-2.91-8.61c-.18-.52-.44-1.02-.78-1.46l-13.83-17.88c.63-.11,1.24-.33,1.81-.69l10.33-6.42c1.24-.77,2.08-2.04,2.3-3.48.22-1.44-.2-2.91-1.15-4.02l-5.01-5.85.81-5.88.54-.22c1.58-.66,2.72-2.08,3.01-3.77.29-1.69-.3-3.41-1.57-4.56l-1.6-1.45,2.09-9.44c.45-2.03-.4-4.12-2.14-5.26l-13.03-8.54-4.22-23.84c-.37-2.09-2.02-3.72-4.12-4.06l-1.47-.24.25-1.6c.28-1.77-.41-3.55-1.8-4.68l-5.63-4.53c-.9-.72-2.01-1.1-3.13-1.1-.46,0-.92.06-1.37.19-1.56.44-2.81,1.62-3.35,3.15l-1.34,3.82-11.84-14.85,2.96-4.64c1.23-1.93,1-4.45-.57-6.11l-.49-.52,8.15-1.96c2.52-.6,4.16-3.03,3.78-5.59l-1.78-12.09c-.28-1.93-1.67-3.52-3.54-4.07l-36.76-10.76-3.4-8.18c-.32-.78-.84-1.46-1.5-1.99l-12.26-9.78,1.37-2.03c1.44-2.14,1.02-5.02-.98-6.66l-2.22-1.82-6.37-7.26,4.11-14.08c.21-.7.25-1.43.15-2.14l9.3-6.26c2.23-1.5,2.88-4.51,1.45-6.79l-1.74-2.78,4.99-7.21c.95-1.37,1.15-3.12.54-4.66l-.13-.34,14.37-3.25,1.33,1.56c.86,1.01,2.09,1.64,3.42,1.75.13.01.26.02.39.02,1.19,0,2.35-.42,3.26-1.21l.13-.11,1.76,1.34c.88.67,1.94,1.02,3.02,1.02.41,0,.82-.05,1.23-.15,1.47-.37,2.7-1.4,3.33-2.78l3.47-7.65c.66-1.45.59-3.12-.19-4.51l5.44-1.53c1.91-.54,3.32-2.16,3.6-4.13l.75-5.4,6.8-3.11c2.41-1.1,3.54-3.89,2.58-6.36l-1.36-3.49,6.54-.63.48,2.25c.32,1.48,1.29,2.74,2.64,3.43l7.32,3.68c.71.36,1.48.53,2.25.53,1.21,0,2.41-.44,3.34-1.28l10.26,4.94c.68.33,1.42.5,2.17.5.03,0,.06,0,.09,0l9.39-.17-1.2,8.96c-.21,1.55.32,3.11,1.44,4.22l12.49,12.37c.96.95,2.24,1.45,3.52,1.45.9,0,1.8-.24,2.61-.73l10.36-6.34,20.37,1.49c.12,0,.25.01.37.01,2.4,0,4.48-1.71,4.92-4.1l.38-2.1,2.69-.37-.03.37c-.1,1.38.38,2.75,1.33,3.77.95,1.02,2.27,1.59,3.66,1.59h18.22c.8,1.51,2.33,2.51,4.05,2.63.12,0,.24.01.36.01.84,0,1.65-.21,2.36-.59l.49.55c.95,1.05,2.3,1.65,3.72,1.65.03,0,.06,0,.09,0,1.17-.02,2.28-.45,3.15-1.2l3.22,1.55c.7.34,1.44.5,2.17.5,1.58,0,3.12-.75,4.09-2.11l3-4.25c.79-1.12,1.09-2.51.82-3.86-.15-.73-.45-1.42-.89-2.01l8.22-.83c.84-.08,1.64-.38,2.33-.86l25.25-17.38c1.57-1.08,2.39-2.96,2.11-4.85l-.51-3.48,4.92-1.61c1.51-.5,2.7-1.69,3.19-3.2.38-1.16.32-2.41-.15-3.51l1.16.19c.27.04.55.07.82.07,2.26,0,4.29-1.54,4.85-3.81l1.36-5.55,1.11-.45c2.21-.9,3.45-3.22,3.03-5.52l5.88.22c.06,0,.12,0,.19,0,2.32,0,4.34-1.6,4.87-3.88l2.58-11.17,2.57-.28c1.21-.13,2.32-.7,3.15-1.59l6.12-6.66,6.44.89,3.45,4.23c.98,1.2,2.41,1.84,3.88,1.84.78,0,1.56-.18,2.29-.56l13.86-7.16,3.18,4.09c.68.87,1.62,1.49,2.68,1.77l9.39,2.46c.42.11.84.16,1.26.16.82,0,1.64-.2,2.37-.6l5.26-2.83c1.48-.8,2.46-2.28,2.61-3.95l1.09-12.05,5.57-3.44M377.32,91.82l-11.45,7.08-1.31,14.54-5.26,2.83-9.39-2.46-5.73-7.37-17.56,9.07-4.69-5.76-10.98-1.51-7.89,8.59-6.1.66-3.38,14.64-12.77-.47,1.78,6.14-3.47,1.42-1.97,8.03-4.6-.76-4.41,4.06,2.44,3.4-8.92,2.93,1.13,7.65-25.25,17.38-14.93,1.51-1.13,4.53,4.32,2.74-3,4.25-6.67-3.21-1.97,2.36-4.51-5.01-2.07,3.4-1.13-2.64h-21.5l.47-6.52-12.39,1.7-1.03,5.67-21.97-1.61-11.74,7.18-12.49-12.37,1.97-14.73-15.21.28-13.33-6.42-2.44,2.27-7.32-3.68-1.41-6.61-13.8,1.32-2.35,3.97,2.35,6.04-9.29,4.25-1.13,8.12-11.74,3.31,3.29,5.48-3.47,7.65-4.98-3.78-3.19,2.74-3.29-3.87-23,5.19,2.25,5.76-6.85,9.92,3.47,5.57-13.33,8.97,1.88,2.17-4.88,16.71,8.45,9.63,2.53,2.08-3.94,5.85,15.87,12.65,4.32,10.39,39.06,11.43,1.78,12.09-16.52,3.97,6.38,6.8-4.88,7.65,17.46,21.91,3.38-.47,3.19-9.07,5.63,4.53-1.03,6.52,6.38,1.04,4.6,25.97,14.83,9.73-2.72,12.28,3.76,3.4-3.19,1.32-1.5,10.95,6.48,7.55-10.33,6.42-3.66-4.63-5.35,5.01,19.72,25.5,4.41,13.03,16.81-4.44,4.13,15.39,12.58,1.79,5.45,9.35.38,18.11,28.13,10.17,6.59,9.22,8,1.9-3.39,6.18,4.8,15.87-4.99,5.32,18.63,13.59-2.45,2.57.47,23-12.51,12.64-10.82.38-.85,24.71-6.77,5.61,9.31,6.27-1.22,12.07,4.33,7.7,7.15-.29,7.24,5.7.85,10.36-27.28-.86-18.53-10.65-17.78-2.09-10.16-12.83-9.69,24.62-5.27,4.94.75,2.85,4.61.29-3.76,6.27,12.7,10.74,12.98,4.28,5.08,6.65,8.65,3.42,6.49,11.98,5.93-3.9,8.09,6.46,19.66-4.56,8.56,3.61,5.93,9.03,16.93-8.75,12.79,1.33,10.72,5.23,12.7,1.43,13.83-6.08,4.52,4.18-1.22,11.03,3.2,5.04,7.15.86,5.93,7.89,24.27,1.05,13.55,21.48-2.73,6.46,3.57,5.7,1.22,15.87,8.18-1.52,4.99,5.13,14.21-1.14-.19-31.94-2.92-9.89,2.16-.38,6.21,7.7.94,7.51,2.92-1.33,8.56,7.98-4.05,10.46-7.62,2.66,5.27,4.85,7.9,1.62-1.13,3.14,5.74,4.94-1.51,7.03,4.8,10.65-10.07,11.03,9.41,20.72-4.8,1.81,1.79,3.61,10.25-1.62,15.71,12.36,1.79-14.07,5.64-.1.19,3.04,2.16-2.76,12.23,1.52,2.16.57-.94,17.68,20.04-7.32,3.48,8.84,7.71.38-1.98-3.04,8.84-1.05,5.74-8.84-3.76-2.09,11.01-9.51.75-5.8,8.84-2.38,6.11,10.74,9.5,8.08,14.77-2.66,17.59,3.99,24.93,17.11,11.76,11.22,17.21,7.13,9.56-.19,5.37,10.55,10.45,7.84,16.48,1.96,2.07,3.83-1.79,10.45,3.2,5.23,7.72,3.17,6.4-1.77,7.72,7.84,9.89,2.71,6.59,6.44,11.11.19,3.11,2.43-.47,7.19,6.78-11.01-1.6-9.99,8.94-8.77-4.8-3.55-8.29,3.27-1.13-16.89,16.57-1.4-7.34-4.29.47-4.95,7.34-.75.19-5.04-3.95-.56.28-7.56-8.57-6.16-2.45-5.88,3.67-21.65,12.62-19.41-8.38-8.03,8.38-7.47,3.48-8.59,16.57-10.36-4.43-19.23,19.3,13.81,3.77-3.17,6.87,5.23,6.03-4.48,11.3,7.47,6.87-3.55-2.35-9.24,3.39-7,5.37,1.68-.47-9.05,6.21.47,5.46-6.16,7.34-1.96,3.86,4.76,4.33-.84,4.9-6.72,4.99,1.31,10.64-6.72,7.72,1.31.19-14.28,6.4-3.17,8.66,3.83,4.33-3.55-1.51-3.55,11.96-1.77,1.41,3.08,11.3,3.45-2.92,4.48-6.87-.65-.94,3.45,10.36,5.6,6.03-3.83,3.86-12.41,6.87-4.95,18.92,16.99.09,5.23,2.54-1.21-11.77-47.5,13.84-36.58,3.77-2.89,12.15,6.07,5.08,7.93,12.24-.75,8.85,3.45,26.65-3.08,2.26,1.77-3.67,2.89,13.18,7.93,3.86-8.68-2.54-11.85,30.13-37.42-8.57-3.55,4.14-20.81-14.78-5.04,6.4-22.31,46.51,8.87,1.04-14.37-17.8-6.25-.38-11.76-7.25-1.59,2.07-3.64,23.73-5.13-13.09-33.32-6.4-8.49,2.64-7-25.7,3.83-6.68-7.65-20.24-2.24-8.1-4.48,4.14-7.47-4.24-2.05,4.71-2.99-.94-7.09-8.66-1.03-5.55-6.07.56-17.27-3.11-7.56,6.5-2.43-1.6-12.51-23.44-13.63-6.12,2.61-17.61-2.8-4.61-13.07-6.97-.19-7.44,6.91-6.97-7.84-5.55,1.12-9.04-7.37-8.57-17.08-6.59,1.77-3.01-2.89-8.66-24.27,33.8-44.24-9.32-12.6-.94-14.28,3.2-10.17-29.66-5.88-3.67,3.27-10.64-.75-1.13,2.71-18.27,4.48,2.26-5.69-4.99-2.15-10.45,6.35-.09,14.79-6.67-.47,1.22-3.12-2.72-1.7-4.6,5.48-2.82-3.68-6.57,3.21-13.24-7.74-5.16,3.31-8.54-6.42-5.07-10.86,2.25-7.65-4.69-5.1,11.83-13.22,3.85-9.73-6.76-9.54-6.2-1.42-.75,3.78-3.47-2.55-2.35-18.7-19.53-2.64-11.92-10.48-3.94-4.06,3.29-9.82-9.95-10.39,2.72-4.34-40.56-33.71-3.47-42.12-9.11-7.74-5.63,5.76-9.2-1.51-16.9,8.22-.56,8.97-6.01,5.1-4.32-4.16,5.63-7.74-12.77-5.1-11.92,8.22,1.22-5.86-23.94-18.23-12.11,15.68-7.7-8.5h-5.82l-19.81,8.5,1.41,4.06,8.36,1.04,2.63,3.59-1.78,3.78-16.62,6.61-10.7,9.07-6.38.47-7.23-5.48-45.72-12.84-10.52,2.64-4.69,4.72-7.51-8.4-5.54,9.82-1.78-5.85-4.69-1.51-8.92,3.49-.28,4.53-4.41-3.4-2.53-8.12-11.17.47-.94-11.24-17.27-.38-1.13-5.57-5.07-1.51-7.14-8.88h0ZM127.78,169.17h0,0ZM185.42,183.33h0,0ZM1063.15,530.68h0,0Z"/>
  </g>
</svg>