<?xml version="1.0" encoding="UTF-8"?>
<svg id="_Шар_1" data-name="Шар 1" xmlns="http://www.w3.org/2000/svg" viewBox="0 0 1080 1080">
  <circle cx="482.79" cy="390.04" r="11.35"/>
  <circle cx="288.5" cy="366.5" r="11.5"/>
  <circle cx="432.27" cy="815.29" r="11.35"/>
  <circle cx="778.11" cy="562.37" r="19.06"/>
  <g>
    <path d="M803.26,543.3c-.59,0-1.08-.2-1.48-.6-.4-.4-.6-.89-.6-1.48v-27.08c0-.61.2-1.11.6-1.5.4-.39.89-.58,1.48-.58h21.28c.61,0,1.11.19,1.5.58.39.39.58.89.58,1.5v27.08c0,.59-.19,1.08-.58,1.48-.39.4-.89.6-1.5.6s-1.08-.2-1.48-.6c-.4-.4-.6-.89-.6-1.48v-25.48h-17.12v25.48c0,.59-.19,1.08-.58,1.48-.39.4-.89.6-1.5.6Z"/>
    <path d="M844.13,543.46c-2.16,0-4.07-.47-5.72-1.42s-2.95-2.25-3.9-3.92c-.95-1.67-1.42-3.58-1.42-5.74s.47-4.11,1.42-5.78c.95-1.67,2.25-2.97,3.9-3.92,1.65-.95,3.56-1.42,5.72-1.42s4.03.47,5.68,1.42c1.65.95,2.95,2.25,3.9,3.92.95,1.67,1.42,3.59,1.42,5.78s-.47,4.07-1.4,5.74c-.93,1.67-2.23,2.97-3.88,3.92-1.65.95-3.56,1.42-5.72,1.42ZM844.13,539.86c1.39,0,2.61-.32,3.68-.96,1.07-.64,1.9-1.52,2.5-2.64.6-1.12.9-2.41.9-3.88s-.3-2.77-.9-3.9c-.6-1.13-1.43-2.02-2.5-2.66-1.07-.64-2.29-.96-3.68-.96s-2.61.32-3.68.96-1.91,1.53-2.52,2.66c-.61,1.13-.92,2.43-.92,3.9s.31,2.76.92,3.88c.61,1.12,1.45,2,2.52,2.64,1.07.64,2.29.96,3.68.96Z"/>
    <path d="M869.42,521.46c.4,0,.76.11,1.08.32.32.21.57.55.76,1l8.24,17.88c.24.53.27,1.01.08,1.42s-.51.73-.96.94c-.59.27-1.09.33-1.52.2-.43-.13-.79-.47-1.08-1l-7.52-17.08h2.04l-7.76,17.08c-.24.51-.59.83-1.06.98-.47.15-.98.09-1.54-.18-.51-.24-.86-.56-1.06-.96-.2-.4-.17-.87.1-1.4l8.28-17.88c.4-.88,1.04-1.32,1.92-1.32Z"/>
    <path d="M886.73,543.34c-.59,0-1.07-.19-1.46-.58-.39-.39-.58-.87-.58-1.46v-17.8c0-.61.19-1.11.58-1.48s.87-.56,1.46-.56,1.11.19,1.48.56c.37.37.56.87.56,1.48v17.8c0,.59-.19,1.07-.56,1.46-.37.39-.87.58-1.48.58ZM900.09,543.34c-.59,0-1.07-.19-1.46-.58-.39-.39-.58-.87-.58-1.46v-11.44c0-1.68-.41-2.93-1.24-3.74-.83-.81-1.91-1.22-3.24-1.22s-2.53.48-3.44,1.44c-.91.96-1.36,2.19-1.36,3.68h-2.52c0-1.73.35-3.26,1.04-4.58.69-1.32,1.65-2.35,2.88-3.1,1.23-.75,2.63-1.12,4.2-1.12s2.87.33,4.04,1c1.17.67,2.09,1.65,2.74,2.94.65,1.29.98,2.86.98,4.7v11.44c0,.59-.19,1.07-.56,1.46-.37.39-.87.58-1.48.58ZM913.42,543.34c-.59,0-1.07-.19-1.46-.58-.39-.39-.58-.87-.58-1.46v-11.44c0-1.68-.41-2.93-1.24-3.74-.83-.81-1.91-1.22-3.24-1.22s-2.53.48-3.42,1.44-1.34,2.19-1.34,3.68h-3.32c0-1.73.37-3.26,1.12-4.58.75-1.32,1.79-2.35,3.14-3.1,1.35-.75,2.89-1.12,4.62-1.12,1.52,0,2.87.33,4.04,1,1.17.67,2.09,1.65,2.74,2.94.65,1.29.98,2.86.98,4.7v11.44c0,.59-.19,1.07-.56,1.46-.37.39-.87.58-1.48.58Z"/>
    <path d="M931.33,543.46c-1.95,0-3.69-.49-5.24-1.46-1.55-.97-2.77-2.29-3.66-3.96-.89-1.67-1.34-3.55-1.34-5.66s.49-4,1.46-5.68c.97-1.68,2.29-3.01,3.96-3.98,1.67-.97,3.54-1.46,5.62-1.46s3.95.49,5.6,1.46c1.65.97,2.97,2.3,3.94,3.98.97,1.68,1.46,3.57,1.46,5.68h-1.56c0,2.11-.45,3.99-1.34,5.66-.89,1.67-2.11,2.99-3.66,3.96-1.55.97-3.29,1.46-5.24,1.46ZM932.13,539.86c1.36,0,2.57-.33,3.64-.98,1.07-.65,1.91-1.55,2.52-2.68.61-1.13.92-2.41.92-3.82s-.31-2.73-.92-3.86-1.45-2.03-2.52-2.68c-1.07-.65-2.28-.98-3.64-.98s-2.54.33-3.62.98c-1.08.65-1.93,1.55-2.56,2.68-.63,1.13-.94,2.42-.94,3.86s.31,2.69.94,3.82c.63,1.13,1.48,2.03,2.56,2.68s2.29.98,3.62.98ZM941.09,543.34c-.59,0-1.07-.19-1.46-.58-.39-.39-.58-.87-.58-1.46v-6.12l.76-4.24,3.32,1.44v8.92c0,.59-.19,1.07-.58,1.46-.39.39-.87.58-1.46.58Z"/>
    <path d="M951.25,543.3c-.59,0-1.07-.19-1.46-.58-.39-.39-.58-.87-.58-1.46v-17.84c.05-.59.27-1.07.64-1.44.37-.37.84-.56,1.4-.56.61,0,1.11.19,1.48.56.37.37.56.87.56,1.48v6.88h7.76v.8c1.47,0,2.77.25,3.9.76,1.13.51,2.02,1.21,2.66,2.1s.96,1.93.96,3.1-.32,2.27-.96,3.2-1.53,1.67-2.66,2.2c-1.13.53-2.43.8-3.9.8h-9.8ZM957.89,532.5v-2.16h3.8c.67,0,1.21-.26,1.64-.78.43-.52.64-1.18.64-1.98,0-.69-.25-1.27-.76-1.72-.51-.45-1.15-.68-1.92-.68h-10v-3.76h10c1.25,0,2.37.25,3.34.74.97.49,1.74,1.17,2.3,2.04.56.87.84,1.86.84,2.98,0,1.55-.58,2.82-1.74,3.82s-2.61,1.5-4.34,1.5h-3.8ZM953.29,539.5h7.76c1.07,0,1.93-.26,2.6-.78.67-.52,1-1.19,1-2.02,0-.88-.33-1.6-1-2.16-.67-.56-1.53-.84-2.6-.84h-7.76v5.8Z"/>
    <path d="M982.69,543.46c-1.95,0-3.69-.49-5.24-1.46-1.55-.97-2.77-2.29-3.66-3.96-.89-1.67-1.34-3.55-1.34-5.66s.49-4,1.46-5.68c.97-1.68,2.29-3.01,3.96-3.98,1.67-.97,3.54-1.46,5.62-1.46s3.95.49,5.6,1.46c1.65.97,2.97,2.3,3.94,3.98.97,1.68,1.46,3.57,1.46,5.68h-1.56c0,2.11-.45,3.99-1.34,5.66-.89,1.67-2.11,2.99-3.66,3.96-1.55.97-3.29,1.46-5.24,1.46ZM983.49,539.86c1.36,0,2.57-.33,3.64-.98,1.07-.65,1.91-1.55,2.52-2.68.61-1.13.92-2.41.92-3.82s-.31-2.73-.92-3.86-1.45-2.03-2.52-2.68c-1.07-.65-2.28-.98-3.64-.98s-2.54.33-3.62.98c-1.08.65-1.93,1.55-2.56,2.68-.63,1.13-.94,2.42-.94,3.86s.31,2.69.94,3.82c.63,1.13,1.48,2.03,2.56,2.68s2.29.98,3.62.98ZM992.45,543.34c-.59,0-1.07-.19-1.46-.58-.39-.39-.58-.87-.58-1.46v-6.12l.76-4.24,3.32,1.44v8.92c0,.59-.19,1.07-.58,1.46-.39.39-.87.58-1.46.58Z"/>
  </g>
  <g>
    <path d="M498.7,378.69c-.44,0-.81-.15-1.11-.45s-.45-.67-.45-1.11v-20.31c0-.46.15-.83.45-1.12.3-.29.67-.44,1.11-.44.6,0,1.06.28,1.38.84l9.39,18.81h-.96l9.15-18.81c.32-.56.78-.84,1.38-.84.44,0,.81.15,1.11.44.3.29.45.67.45,1.12v20.31c0,.44-.16.81-.46,1.11-.31.3-.67.45-1.09.45-.44,0-.81-.15-1.11-.45s-.45-.67-.45-1.11v-15.99l.6-.15-7.86,16.02c-.34.52-.79.78-1.35.78-.66,0-1.14-.31-1.44-.93l-7.77-15.57.6-.15v15.99c0,.44-.15.81-.45,1.11s-.67.45-1.11.45Z"/>
    <path d="M533.2,378.84c-1.38,0-2.62-.29-3.71-.89-1.09-.59-1.95-1.46-2.58-2.59-.63-1.14-.95-2.54-.95-4.2v-7.38c0-.44.14-.8.43-1.09s.66-.44,1.1-.44.8.15,1.09.44.43.66.43,1.09v7.38c0,1.12.21,2.05.63,2.77.42.73.99,1.27,1.71,1.62.72.35,1.53.52,2.43.52s1.62-.17,2.29-.51c.67-.34,1.2-.8,1.6-1.38s.6-1.23.6-1.95h1.89c0,1.24-.3,2.36-.92,3.36s-1.44,1.79-2.49,2.37c-1.05.58-2.25.87-3.58.87ZM539.83,378.69c-.44,0-.81-.14-1.1-.43s-.43-.66-.43-1.1v-13.38c0-.46.14-.83.43-1.11.29-.28.66-.42,1.1-.42s.83.14,1.11.42c.28.28.42.65.42,1.11v13.38c0,.44-.14.81-.42,1.1-.28.29-.65.43-1.11.43Z"/>
    <path d="M548.29,385.71c-.44,0-.81-.14-1.1-.43s-.43-.66-.43-1.09v-13.68c.02-1.58.39-3,1.11-4.26.72-1.26,1.7-2.25,2.94-2.98,1.24-.73,2.64-1.09,4.2-1.09s2.99.36,4.23,1.09c1.24.73,2.22,1.73,2.96,2.98.73,1.26,1.1,2.68,1.1,4.26s-.34,3-1.01,4.24c-.67,1.25-1.58,2.24-2.74,2.97-1.16.73-2.47,1.09-3.93,1.09-1.18,0-2.26-.25-3.25-.74-.99-.49-1.83-1.15-2.54-2v8.1c0,.44-.14.8-.42,1.09s-.65.43-1.11.43ZM555.01,376.11c1.02,0,1.93-.24,2.73-.74.8-.49,1.44-1.16,1.91-2.01.47-.85.71-1.8.71-2.86s-.24-2.04-.71-2.9-1.11-1.52-1.91-2.01c-.8-.49-1.71-.73-2.73-.73s-1.91.25-2.71.73c-.81.49-1.45,1.16-1.91,2.01s-.69,1.81-.69,2.9.23,2.02.69,2.86c.46.85,1.09,1.52,1.91,2.01.81.49,1.71.74,2.71.74Z"/>
    <path d="M572.92,378.81c-1.26,0-2.38-.2-3.38-.58-.99-.39-1.77-.93-2.34-1.63-.57-.7-.85-1.5-.85-2.4s.25-1.67.76-2.31c.51-.64,1.25-1.18,2.22-1.62.97-.44,2.13-.79,3.5-1.05,1.36-.28,2.28-.62,2.76-1,.48-.39.72-.9.72-1.52s-.32-1.11-.96-1.42c-.64-.31-1.38-.47-2.22-.47-.7,0-1.4.11-2.09.33-.69.22-1.26.54-1.72.96-.3.28-.63.47-.99.57-.36.1-.65.08-.87-.06-.38-.24-.61-.55-.7-.93-.09-.38,0-.73.25-1.05.6-.74,1.44-1.33,2.53-1.79s2.3-.67,3.62-.67c1.12,0,2.14.18,3.06.52.92.35,1.65.87,2.21,1.54.55.68.82,1.52.82,2.52,0,1.16-.47,2.14-1.41,2.92-.94.79-2.37,1.4-4.29,1.81-1.58.32-2.67.7-3.27,1.12-.6.43-.89.95-.87,1.54.02.62.32,1.1.9,1.44s1.45.51,2.61.51c1.04,0,1.92-.1,2.66-.31.73-.21,1.31-.54,1.73-.98.28-.3.6-.5.96-.6.36-.1.73,0,1.11.33.34.28.51.6.51.96s-.15.7-.45,1.02c-.66.66-1.58,1.21-2.76,1.63-1.18.43-2.43.65-3.75.65Z"/>
    <path d="M591.07,378.81c-1.62,0-3.05-.35-4.29-1.07-1.24-.71-2.21-1.69-2.92-2.94s-1.06-2.69-1.06-4.31.35-3.08,1.06-4.33,1.68-2.23,2.92-2.94,2.67-1.06,4.29-1.06,3.02.35,4.26,1.06c1.24.71,2.21,1.69,2.92,2.94s1.06,2.7,1.06,4.33-.35,3.06-1.05,4.31-1.67,2.23-2.91,2.94c-1.24.71-2.67,1.07-4.29,1.07ZM591.07,376.11c1.04,0,1.96-.24,2.76-.72.8-.48,1.42-1.14,1.88-1.98.45-.84.67-1.81.67-2.91s-.23-2.07-.67-2.93c-.45-.85-1.08-1.51-1.88-1.99-.8-.48-1.72-.72-2.76-.72s-1.96.24-2.76.72-1.43,1.15-1.89,1.99c-.46.85-.69,1.83-.69,2.93s.23,2.07.69,2.91c.46.84,1.09,1.5,1.89,1.98.8.48,1.72.72,2.76.72Z"/>
    <path d="M605.41,385.71c-.44,0-.81-.14-1.1-.43s-.43-.66-.43-1.09v-13.68c.02-1.58.39-3,1.11-4.26.72-1.26,1.7-2.25,2.94-2.98,1.24-.73,2.64-1.09,4.2-1.09s2.99.36,4.23,1.09c1.24.73,2.22,1.73,2.96,2.98.73,1.26,1.1,2.68,1.1,4.26s-.34,3-1.01,4.24c-.67,1.25-1.58,2.24-2.74,2.97-1.16.73-2.47,1.09-3.93,1.09-1.18,0-2.26-.25-3.25-.74-.99-.49-1.83-1.15-2.54-2v8.1c0,.44-.14.8-.42,1.09s-.65.43-1.11.43ZM612.13,376.11c1.02,0,1.93-.24,2.73-.74.8-.49,1.44-1.16,1.91-2.01.47-.85.71-1.8.71-2.86s-.24-2.04-.71-2.9-1.11-1.52-1.91-2.01c-.8-.49-1.71-.73-2.73-.73s-1.91.25-2.71.73c-.81.49-1.45,1.16-1.91,2.01s-.69,1.81-.69,2.9.23,2.02.69,2.86c.46.85,1.09,1.52,1.91,2.01.81.49,1.71.74,2.71.74Z"/>
    <path d="M632.41,378.81c-1.62,0-3.05-.35-4.29-1.07-1.24-.71-2.21-1.69-2.92-2.94s-1.06-2.69-1.06-4.31.35-3.08,1.06-4.33,1.68-2.23,2.92-2.94,2.67-1.06,4.29-1.06,3.02.35,4.26,1.06c1.24.71,2.21,1.69,2.92,2.94s1.06,2.7,1.06,4.33-.35,3.06-1.05,4.31-1.67,2.23-2.91,2.94c-1.24.71-2.67,1.07-4.29,1.07ZM632.41,376.11c1.04,0,1.96-.24,2.76-.72.8-.48,1.42-1.14,1.88-1.98.45-.84.67-1.81.67-2.91s-.23-2.07-.67-2.93c-.45-.85-1.08-1.51-1.88-1.99-.8-.48-1.72-.72-2.76-.72s-1.96.24-2.76.72-1.43,1.15-1.89,1.99c-.46.85-.69,1.83-.69,2.93s.23,2.07.69,2.91c.46.84,1.09,1.5,1.89,1.98.8.48,1.72.72,2.76.72Z"/>
    <path d="M652.06,378.81c-1.5,0-2.83-.35-3.97-1.07-1.15-.71-2.06-1.69-2.72-2.94-.66-1.25-.99-2.69-.99-4.31s.35-3.08,1.06-4.33,1.68-2.23,2.92-2.94,2.67-1.06,4.29-1.06,3.02.35,4.26,1.06c1.24.71,2.21,1.69,2.92,2.94s1.06,2.7,1.06,4.33h-1.77c0,1.62-.31,3.06-.92,4.31-.61,1.25-1.45,2.23-2.5,2.94-1.06.71-2.28,1.07-3.66,1.07ZM652.6,385.5c-1.42,0-2.75-.28-3.99-.84s-2.29-1.38-3.15-2.46c-.26-.34-.36-.69-.29-1.05.07-.36.26-.65.58-.87.36-.24.73-.32,1.12-.24.39.08.71.28.94.6.54.68,1.22,1.21,2.04,1.59s1.75.57,2.79.57c.96,0,1.85-.23,2.66-.69.81-.46,1.46-1.14,1.94-2.04.48-.9.72-2,.72-3.3v-4.26l.99-2.64,1.95.63v6.48c0,1.58-.35,3.01-1.05,4.3s-1.67,2.32-2.92,3.08-2.7,1.14-4.33,1.14ZM652.66,376.11c1.04,0,1.96-.24,2.76-.72.8-.48,1.42-1.14,1.88-1.98.45-.84.67-1.81.67-2.91s-.23-2.07-.67-2.93c-.45-.85-1.08-1.51-1.88-1.99-.8-.48-1.72-.72-2.76-.72s-1.96.24-2.76.72-1.43,1.15-1.89,1.99c-.46.85-.69,1.83-.69,2.93s.23,2.07.69,2.91c.46.84,1.09,1.5,1.89,1.98.8.48,1.72.72,2.76.72Z"/>
  </g>
  <g>
    <path d="M302.13,355c-.56,0-.99-.24-1.29-.72-.3-.48-.33-.99-.09-1.53l8.43-20.13c.3-.7.79-1.05,1.47-1.05.72,0,1.21.35,1.47,1.05l8.46,20.19c.22.56.2,1.07-.08,1.52-.27.45-.7.67-1.27.67-.3,0-.59-.08-.86-.25s-.46-.41-.58-.71l-7.5-18.48h.96l-7.68,18.48c-.14.32-.35.56-.62.72-.27.16-.54.24-.83.24Z"/>
    <path d="M323.67,362.2c-.36,0-.72-.05-1.09-.15-.37-.1-.74-.25-1.09-.45-.44-.26-.73-.58-.87-.96s-.08-.75.18-1.11c.24-.34.53-.55.87-.63.34-.08.7-.01,1.08.21.22.12.42.21.62.27.19.06.38.09.58.09.64,0,1.25-.33,1.84-.99.59-.66,1.17-1.64,1.75-2.94l7.17-16.2c.18-.4.46-.67.83-.81.37-.14.75-.12,1.12.06.34.14.56.4.66.76.1.37.05.77-.15,1.19l-7.23,16.2c-.72,1.62-1.64,2.93-2.75,3.94-1.11,1.01-2.29,1.52-3.53,1.52ZM330.51,354.34c-.38.16-.73.18-1.06.04-.33-.13-.6-.38-.79-.76l-6.87-13.05c-.2-.38-.23-.74-.08-1.09.15-.35.42-.6.79-.76s.74-.17,1.07-.04.59.38.79.76l6.6,12.93c.2.38.27.76.21,1.15-.06.39-.28.67-.66.83Z"/>
    <path d="M339.72,347.38l.03-3.39c.02-2.36.67-4.52,1.96-6.48s3.29-3.55,6.01-4.77l5.61-2.49c.4-.16.76-.18,1.08-.08.32.11.55.34.69.71.14.38.17.72.11,1.04-.07.31-.37.58-.89.83l-6.09,2.79c-1.4.64-2.55,1.4-3.45,2.28-.9.88-1.56,1.87-1.99,2.96-.43,1.09-.67,2.26-.71,3.53l-.06,3.09h-2.31ZM347.97,355.12c-1.6,0-3.02-.33-4.26-.99-1.24-.66-2.21-1.58-2.91-2.75-.7-1.17-1.06-2.5-1.08-4h1.47c0-1.52.32-2.85.95-4s1.5-2.06,2.61-2.71c1.11-.66,2.39-.99,3.83-.99s2.71.33,3.83.99c1.11.66,1.98,1.56,2.61,2.71s.94,2.49.94,4-.34,2.83-1.02,4c-.68,1.17-1.62,2.08-2.82,2.75s-2.58.99-4.14.99ZM347.97,352.42c1,0,1.88-.21,2.62-.64.75-.43,1.34-1.03,1.77-1.79s.65-1.63.65-2.61-.22-1.84-.65-2.59-1.02-1.34-1.77-1.77c-.75-.43-1.62-.64-2.62-.64s-1.96.21-2.76.64c-.8.43-1.43,1.02-1.88,1.77-.45.75-.68,1.62-.68,2.59s.23,1.85.68,2.61c.45.76,1.07,1.35,1.88,1.79.8.43,1.72.64,2.76.64Z"/>
    <path d="M361.98,355c-.44,0-.79-.14-1.06-.43-.27-.29-.41-.66-.41-1.1v-13.35c0-.46.13-.83.41-1.11.27-.28.62-.42,1.06-.42s.83.14,1.11.42c.28.28.42.65.42,1.11v13.35c0,.44-.14.81-.42,1.1-.28.29-.65.43-1.11.43ZM363.12,347.83v-2.7h10.53v2.7h-10.53ZM374.31,355c-.44,0-.81-.14-1.09-.43-.29-.29-.44-.66-.44-1.1v-13.35c0-.46.15-.83.44-1.11.29-.28.65-.42,1.09-.42s.82.14,1.08.42.39.65.39,1.11v13.35c0,.44-.13.81-.39,1.1s-.62.43-1.08.43Z"/>
    <path d="M388.08,355.15c-1.38,0-2.62-.29-3.71-.89-1.09-.59-1.95-1.46-2.58-2.59-.63-1.14-.95-2.54-.95-4.2v-7.38c0-.44.14-.8.43-1.09s.66-.44,1.1-.44.8.15,1.09.44.43.66.43,1.09v7.38c0,1.12.21,2.05.63,2.78.42.73.99,1.27,1.71,1.62.72.35,1.53.52,2.43.52s1.62-.17,2.29-.51c.67-.34,1.2-.8,1.6-1.38s.6-1.23.6-1.95h1.89c0,1.24-.3,2.36-.92,3.36s-1.44,1.79-2.49,2.37c-1.05.58-2.25.87-3.58.87ZM394.71,355c-.44,0-.81-.14-1.1-.43s-.43-.66-.43-1.1v-13.38c0-.46.14-.83.43-1.11.29-.28.66-.42,1.1-.42s.83.14,1.11.42c.28.28.42.65.42,1.11v13.38c0,.44-.14.81-.42,1.1s-.65.43-1.11.43Z"/>
  </g>
  <g>
    <path d="M448.19,803.93c-.44,0-.81-.15-1.11-.45s-.45-.67-.45-1.11v-20.31c0-.46.15-.83.45-1.12s.67-.44,1.11-.44.83.15,1.12.44.44.67.44,1.12v8.61h4.92v2.76h-4.92v8.94c0,.44-.15.81-.44,1.11s-.67.45-1.12.45ZM463.85,803.54c-.28.28-.66.41-1.14.4-.48,0-.86-.17-1.14-.5l-9.84-11.46,9.18-10.98c.28-.34.64-.51,1.09-.53.45,0,.81.15,1.09.46.28.32.42.66.41,1-.01.35-.16.69-.43,1l-7.59,8.82,8.37,9.72c.28.32.44.66.46,1,.03.35-.12.7-.46,1.04Z"/>
    <path d="M469.79,810.95c-.44,0-.81-.14-1.1-.43s-.43-.66-.43-1.09v-13.68c.02-1.58.39-3,1.11-4.26.72-1.26,1.7-2.25,2.94-2.99,1.24-.73,2.64-1.09,4.2-1.09s2.99.37,4.23,1.09c1.24.73,2.22,1.73,2.96,2.99s1.1,2.68,1.1,4.26-.34,3-1.01,4.25c-.67,1.25-1.58,2.24-2.74,2.97-1.16.73-2.47,1.09-3.93,1.09-1.18,0-2.26-.25-3.25-.74-.99-.49-1.83-1.15-2.54-2v8.1c0,.44-.14.8-.42,1.09s-.65.43-1.11.43ZM476.51,801.35c1.02,0,1.93-.24,2.73-.74.8-.49,1.44-1.16,1.91-2.01.47-.85.71-1.8.71-2.87s-.24-2.04-.71-2.89c-.47-.85-1.11-1.52-1.91-2.01-.8-.49-1.71-.73-2.73-.73s-1.91.25-2.71.73c-.81.49-1.45,1.16-1.91,2.01-.46.85-.69,1.81-.69,2.89s.23,2.02.69,2.87c.46.85,1.09,1.52,1.91,2.01.81.49,1.71.74,2.71.74Z"/>
    <path d="M497.06,804.05c-1.66,0-3.13-.35-4.42-1.07-1.29-.71-2.3-1.69-3.03-2.94-.73-1.25-1.09-2.69-1.09-4.31s.34-3.08,1.03-4.33c.69-1.25,1.65-2.23,2.87-2.94s2.62-1.07,4.2-1.07,2.9.34,4.02,1.04c1.12.69,1.97,1.64,2.56,2.85.59,1.21.88,2.61.88,4.19,0,.38-.13.7-.39.94-.26.25-.59.38-.99.38h-12.09v-2.4h12l-1.23.84c-.02-1-.22-1.89-.6-2.68s-.92-1.42-1.62-1.88-1.55-.69-2.55-.69c-1.14,0-2.12.25-2.92.75-.81.5-1.42,1.18-1.84,2.05-.42.87-.63,1.86-.63,2.96s.25,2.08.75,2.94c.5.86,1.19,1.54,2.07,2.04s1.89.75,3.03.75c.62,0,1.25-.12,1.91-.34.65-.23,1.17-.5,1.57-.79.3-.22.62-.33.98-.35.35,0,.65.1.92.32.34.3.52.63.54.99.02.36-.14.67-.48.93-.68.54-1.53.98-2.54,1.32s-1.97.51-2.89.51Z"/>
    <path d="M509.51,803.93c-.44,0-.81-.14-1.1-.43s-.43-.66-.43-1.1v-13.35c0-.46.14-.83.43-1.11s.66-.42,1.1-.42c.64,0,1.18.31,1.62.93l6.21,8.97,6.21-8.97c.44-.62.98-.93,1.62-.93.46,0,.83.14,1.11.42s.42.65.42,1.11v13.35c0,.44-.14.81-.42,1.1s-.65.43-1.11.43-.8-.14-1.09-.43-.43-.66-.43-1.1v-10.92l.78.24-5.52,7.8c-.5.7-1.04,1.05-1.62,1.04-.58,0-1.11-.35-1.59-1.04l-5.43-7.8.78-.24v10.92c0,.44-.14.81-.42,1.1s-.65.43-1.11.43Z"/>
    <path d="M539.81,804.05c-1.66,0-3.13-.35-4.42-1.07-1.29-.71-2.3-1.69-3.03-2.94-.73-1.25-1.09-2.69-1.09-4.31s.34-3.08,1.03-4.33c.69-1.25,1.65-2.23,2.87-2.94s2.62-1.07,4.2-1.07,2.9.34,4.02,1.04c1.12.69,1.97,1.64,2.56,2.85.59,1.21.88,2.61.88,4.19,0,.38-.13.7-.39.94-.26.25-.59.38-.99.38h-12.09v-2.4h12l-1.23.84c-.02-1-.22-1.89-.6-2.68s-.92-1.42-1.62-1.88-1.55-.69-2.55-.69c-1.14,0-2.12.25-2.92.75-.81.5-1.42,1.18-1.84,2.05-.42.87-.63,1.86-.63,2.96s.25,2.08.75,2.94c.5.86,1.19,1.54,2.07,2.04s1.89.75,3.03.75c.62,0,1.25-.12,1.9-.34.65-.23,1.17-.5,1.57-.79.3-.22.62-.33.98-.35.35,0,.65.1.92.32.34.3.52.63.54.99.02.36-.14.67-.48.93-.68.54-1.53.98-2.54,1.32s-1.97.51-2.89.51Z"/>
    <path d="M552.2,803.93c-.44,0-.79-.14-1.06-.43-.27-.29-.41-.66-.41-1.1v-13.35c0-.46.13-.83.41-1.11.27-.28.62-.42,1.06-.42s.83.14,1.11.42c.28.28.42.65.42,1.11v13.35c0,.44-.14.81-.42,1.1-.28.29-.65.43-1.11.43ZM553.34,796.76v-2.7h10.53v2.7h-10.53ZM564.53,803.93c-.44,0-.81-.14-1.09-.43-.29-.29-.44-.66-.44-1.1v-13.35c0-.46.15-.83.44-1.11.29-.28.65-.42,1.09-.42s.82.14,1.08.42.39.65.39,1.11v13.35c0,.44-.13.81-.39,1.1s-.62.43-1.08.43Z"/>
    <path d="M576.38,799.01c-1.44,0-2.63-.33-3.57-.99-.94-.66-1.64-1.56-2.08-2.71-.45-1.15-.68-2.48-.68-3.98v-2.28c0-.46.15-.83.44-1.11.29-.28.65-.42,1.09-.42s.83.14,1.11.42c.28.28.42.65.42,1.11v2.28c0,1.44.29,2.62.85,3.54.57.92,1.58,1.38,3.02,1.38,1.14,0,2.07-.19,2.8-.57.73-.38,1.09-.87,1.09-1.47h1.59c0,.94-.26,1.77-.78,2.49-.52.72-1.24,1.29-2.15,1.7-.91.41-1.96.62-3.17.62ZM582.41,803.93c-.44,0-.81-.14-1.09-.43-.29-.29-.44-.66-.44-1.1v-13.35c0-.46.15-.83.44-1.11.29-.28.65-.42,1.09-.42s.83.14,1.11.42c.28.28.42.65.42,1.11v13.35c0,.44-.14.81-.42,1.1-.28.29-.65.43-1.11.43Z"/>
    <path d="M588.98,811.13c-.36,0-.72-.05-1.09-.15-.37-.1-.74-.25-1.09-.45-.44-.26-.73-.58-.87-.96s-.08-.75.18-1.11c.24-.34.53-.55.87-.63.34-.08.7-.01,1.08.21.22.12.42.21.62.27.19.06.38.09.58.09.64,0,1.25-.33,1.84-.99.59-.66,1.17-1.64,1.75-2.94l7.17-16.2c.18-.4.46-.67.83-.81.37-.14.75-.12,1.12.06.34.14.56.4.66.76.1.37.05.77-.15,1.19l-7.23,16.2c-.72,1.62-1.64,2.93-2.75,3.94-1.11,1.01-2.29,1.52-3.53,1.52ZM595.82,803.27c-.38.16-.73.18-1.06.04-.33-.13-.6-.38-.79-.76l-6.87-13.05c-.2-.38-.23-.74-.08-1.09.15-.35.42-.6.79-.76s.74-.17,1.07-.04.59.38.79.76l6.6,12.93c.2.38.27.76.21,1.15-.06.39-.28.67-.66.83Z"/>
    <path d="M607.21,803.96c-.44,0-.79-.15-1.05-.44-.26-.29-.39-.65-.39-1.09v-13.38c0-.46.13-.83.39-1.11s.61-.42,1.05-.42.83.14,1.12.42.44.65.44,1.11v5.01h3.84v2.82h-3.84v5.55c0,.44-.15.81-.44,1.09-.29.29-.67.44-1.12.44ZM619.09,803.57c-.26.24-.62.36-1.09.35s-.83-.15-1.09-.41l-7.29-7.83,6.87-7.68c.26-.28.62-.44,1.09-.48s.83.06,1.09.3c.3.28.47.6.51.95.04.35-.07.67-.33.94l-5.43,5.82,5.76,6.18c.26.26.39.57.39.92s-.16.67-.48.94Z"/>
  </g>
</svg>