<?xml version="1.0" encoding="UTF-8"?>
<svg id="_Шар_2" data-name="Шар 2" xmlns="http://www.w3.org/2000/svg" viewBox="0 0 1080 1080">
  <defs>
    <style>
      .cls-1 {
        fill: #ff0;
      }
    </style>
  </defs>
  <path class="cls-1" d="M1054.56,209l4.12-4.64,3.75,6.14,1.51.95,5.15.49,8.64,7.94v-5.43l-6.43-5.91-1.16-.51-4.82-.47-4.64-7.59-3.2-.29-5.33,6.01-7.57.17-1.96,2.1.37,7.56-12.77-9.28-2.8.45-10.5,14.64.49,2.82,7.89,5.38-5.45,3.69-10.87-.53-2.07,1.63-2.4,12.95-4.39-.13-1.95,1.34-.67,1.93-9.91-4.68-2.72,1.11-.91,2.42-11.15-5.57-2.35.42-11.63,12.46-13.04,5.65-1.2,1.96.43,6.41-7.81,10.73-1.38-.31-.28-4.42-1.45-1.8-6.57-1.87-2.08,1.08-.03-.04-1.44-.83-11.82-1.12-2.12,2.52,2.98,10.85-7.99,2.77-1.25,1.29-.06.21-17.66-3.53-.06-.02-9.86-1.97-3.66,3.28-10.6-.75-1.12,2.72-18.2,4.5,2.25-5.72-4.97-2.16-10.42,6.38-.09,18.39-6.66-.47,1.22-3.1-2.72-1.68-4.6,5.44-2.81-3.66-6.57,3.19-13.23-7.69-5.15,3.28-8.54-6.38-5.07-10.79,2.25-7.6-4.69-5.06,11.82-13.14,2.9-7.27.95-2.39-6.75-9.47-6.2-1.41-.75,3.75-3.47-2.53-2.34-18.58-19.51-2.62-11.92-10.42-3.94-4.03,3.28-9.76-9.94-10.31,2.72-4.32-40.52-33.49-3.48-41.84-9.09-7.69-5.63,5.72-9.2-1.5-16.88,8.16-.57,8.91-6,5.07-4.31-4.13,5.62-7.69-12.75-5.07-11.92,8.17,1.22-5.82-23.92-18.11-12.1,15.58-7.69-8.45h-5.82l-19.79,8.45,1.4,4.03,8.35,1.03,2.63,3.57-1.78,3.75-16.61,6.57-10.69,9-6.38.47-7.22-5.44-45.69-12.76-10.51,2.63-4.69,4.69-7.5-8.35-5.54,9.76-1.78-5.82-4.69-1.5-8.91,3.47-.28,4.5-4.41-3.38-2.53-8.06-11.17.47-.94-11.17-17.26-.37-1.12-5.54-5.07-1.5-7.13-8.82-11.44,7.04-1.32,14.45-5.25,2.81-9.38-2.44-5.72-7.32-16.9,8.68h-.01l-.63.33-.57-.7h0l-4.12-5.02-9.37-1.28.14-1.21-5.14-9.04,14.52-17.98.42-.92.81-4.74,5.43-1.46.54-3.62-4.5-2.83,5.16-15.97v-1.25s-.97-2.89-.97-2.89l8.53-4.46,1.07-1.67.93-18.86-.21-1.01-3.15-6.16,21.42-4.96.67-.28,7.97-5.35.26-1.79h-4.78l-5.38,3.61-23.56,5.45-1.33,2.86,4.07,7.97-.85,17.18-9.03,4.72-.97,2.4,1.3,3.89-5.43,16.82.84,2.31,1.94,1.21-2.24.6-1.45,1.6-.95,5.49-15.05,18.63-.19,2.25,5.82,10.23.51.34-6.65,7.2-6.1.66-3.38,14.54-12.75-.47,1.78,6.1-3.47,1.41-1.97,7.97-4.6-.75-4.41,4.03,2.44,3.38-8.91,2.91,1.13,7.6-25.24,17.26-14.92,1.5-1.12,4.5,4.31,2.72-3,4.22-6.66-3.19-1.97,2.35-4.5-4.97-2.07,3.38-1.12-2.63h-21.48l.47-6.47-12.39,1.68-1.03,5.63-21.95-1.59-11.73,7.13-12.47-12.29,1.97-14.64-15.2.29-13.32-6.38-2.44,2.25-7.32-3.66-1.41-6.57-13.79,1.32-2.34,3.94,2.34,6-9.28,4.22-1.13,8.07-11.72,3.28,3.28,5.44-3.47,7.6-4.97-3.75-3.19,2.72-3.29-3.85-21.09,4.74-.49-2.2,4.88-6.39.33-1.76-1.12-3.94-1.57-1.42-11.82-2.16-.92.05-5.53,1.62v1.69l6.09-1.76,11.82,2.15,1.13,4.04-.06.08-1.07-3.74-11.82-2.16-6.09,1.78v1.69l6.2-1.79,10.12,1.85.53,1.87-4.84,6.33-.36,1.65.75,3.38,2.39,1.52.2-.04,1.61,4.09-6.85,9.85,3.47,5.53-13.22,8.84v.19l1.78,2.14-1.78,6.05v13.99l4.07,4.51-.33.04-2.41,3.21-1.33-.15v4.29l2.11.25,1.83-.79,3.1-4.12v-.11s.84.69.84.69l-3.94,5.81,15.85,12.57,4.31,10.32,39.03,11.35,1.78,12.01-16.51,3.94,6.38,6.76-4.88,7.59,17.45,21.77,3.38-.47,3.19-9.01,5.63,4.51-1.04,6.47,6.38,1.03,4.6,25.8,14.82,9.66-2.72,12.2,3.75,3.37-3.19,1.32-1.5,10.88,6.48,7.5-10.32,6.38-3.66-4.59-5.35,4.97,19.7,25.33,4.41,12.94,16.79-4.41,4.13,15.29,12.57,1.79,5.44,9.28.38,24.3,28.04,10.04,6.57,9.1,7.98,1.87-3.38,6.1,4.78,15.67-4.97,5.25,18.58,13.42-2.44,2.53.47,22.7-12.48,12.48-10.79.37-.84,24.39-6.76,5.54,9.29,6.19-1.22,11.91,4.31,7.6,7.13-.28,7.23,5.63.84,10.22-27.2-.84-18.48-10.51-17.73-2.06-10.14-12.66-9.66,24.29-5.25,4.88.75,2.81,4.6.29-3.76,6.19,12.67,10.6,12.94,4.22,5.07,6.57,8.63,3.37,6.47,11.82,5.91-3.84,8.07,6.38,19.61-4.51,8.53,3.57,5.91,8.91,16.89-8.63,10.7,1.1-2.73,6.94-22.84,21.26-.48.69-4.88,11.64.18,1.87,5.44,8.26,1.02.79,35.59,12.2-.06,7.85-23.2,10.09-.46,3.39,4.23,3.4,3.73,17.44-3.78,7.05.97,2.78,12.34,5.31-6.69.72-1.79,1.95-.06,3.1-31.55,6.75-.73-3.73-2.18-1.6-8.52.94-.49-1.9-1.63-1.47-6.1-.93-2.05.99-2.81,4.97-.07,1.83,2.41,5.14-17.64,1.19-.51-2.67-3.28-1.14-5.65,4.94-1.28-2.05-1.05-.83-10.98-3.75-2.6,2.29,2.16,10.56-4.3.19-6.98-34.53-2.79-1.42-5.53,2.53-1.6-7.35,1.55-1.67-.84-3.26-5.93-1.97-2.55-5.5-3.53-.19-5.88,9.83-11.41-1.63-2.17-1.31,1.41-4.52.02-1.14-2.91-10.32-2.5-1.37-1.91.58-.61-3.17-2.39-1.57-15.21,3.3-3.73-4.66-3.5.78-.3,1.23-5.32.14-1.94,1.92-.3,7.38-6.82.37-1.87,1.72-4.39,31.83-7.48-4.13-2.92,1.31-2.37,10.58-12.57,3.7-1.43,1.8-.37,6.19.78,1.72,5.75,4.35-.32,10.04-1.38,1.28-11.75.53-1.66,1.04-.12.22v6.21l1.47-.57,1.61-2.96,11.36-.51,1.27-.53,2.53-2.34.64-1.41.37-11.91-.79-1.66-5.71-4.33.22-3.72,12.36-3.63,1.38-1.48,2.05-9.13,7.7,4.25,2.95-1.48,4.55-33.08,6.99-.37,1.89-1.92.3-7.33,4.98-.13,1.1-.9,2.44,3.05,1.99.71,14.41-3.13.65,3.34,2.54,1.53,2.08-.63,2.2,7.79-1.7,5.43.87,2.31,3.84,2.34.76.28,13.13,1.87,2-.95,4.63-7.73,1.32,2.85,1.18,1.06,3.82,1.27-.16.17-.48,1.78,2.34,10.78,2.79,1.4,5.49-2.52,6.82,33.74,2.05,1.6,8.35-.37,1.87-2.4-1.93-9.43,7,2.39,2.16,3.44,3.01.44,4.79-4.18.18.99,2.1,1.62,22.33-1.5,1.68-2.85-3.22-6.85,1.62-2.87,3.44.53.6,2.29,2.16,1.48,8.39-.92.78,3.92,2.38,1.57,35.08-7.51,1.58-1.91.06-2.93,7.07-.75,1.77-2.23-.38-3.1-1.19-1.59-11.51-4.96,3.1-5.77.19-1.36-4.03-18.86-.7-1.14-2.21-1.77,21.36-9.28,1.2-1.82.09-10.6-1.35-1.91-36.31-12.44-4.48-6.8,4.3-10.25,22.85-21.28.5-.74,3.04-7.74,8.89,4.29,12.67,1.41,13.79-6,4.5,4.12-1.22,10.88,3.19,4.98,7.13.84,5.91,7.79,24.2,1.03,13.51,21.2-2.72,6.38,3.57,5.63,1.21,15.66,8.17-1.5,4.97,5.07,14.16-1.13-.18-31.52-2.91-9.75,2.16-.38,6.19,7.6.94,7.41,2.9-1.31,8.54,7.88-4.03,10.32-7.6,2.62,5.25,4.79,7.88,1.59-1.12,3.1,5.72,4.88-1.5,6.94,4.78,10.5-10.04,10.89,9.38,20.45-4.78,1.78,1.78,3.56,10.23-1.59,15.66,12.2,1.79-13.89,5.63-.09.18,3,2.16-2.72,12.2,1.5,2.15.56-.93,17.45,19.98-7.22,3.47,8.72,7.69.38-1.97-3,8.82-1.04,5.72-8.72-3.75-2.06,10.97-9.39.75-5.72,8.82-2.34,6.1,10.6,9.47,7.97,14.73-2.63,17.55,3.94,23.84,16.2-.95.3-5.62,28.03-2.5,1.25-1.04,1.27-4.79,18.01-.06.53.08,12-6.75-.78-1.83-12.19-2.44-1.65-5.16,1.22-1.52,2.21.12.91-4.21.73-2.57-2.2-2.16-.29-8.12,3.84-1.27-.26-1.87-8.22-2.04-1.55-7.55.33-2.18-2.62-3.15.1-7.86,10.77-10.11,1.52-4.36-4.2-1.76-.52-6.29,1.22-1.62,2.05.94,20.46.36,1.05,2.16,3.09,2.39.71,2.84-1.15,2.75,9.16,1.23,1.31,10.13,3.66.86.11,9.41-.86,14.35,13.99,1.64.55,3.4-.42.77,3.89,2.29,1.59,14.75-2.47-.96,8.66-12.71,2.44-1.61,2.23,1.71,12.86-5.29,3.66-24.38,13.71-1.91-4.21-1.87-1.17-12.29.28-1.9,2.45,3.05,13.11-6.72,2.1-1.26-4.99-2.2-1.49-23.55,3.1-1.74,2.09.17,3.02-6.68.22-1.93,2.13.19,2.72-2.17.94-1.2,2.05.47,4.24h4.02l-.35-3.21,2.12-.91,1.2-1.97-.14-2.06,6.65-.22,1.93-2.11-.18-3.21,19.95-2.62,1.34,5.31,2.54,1.42,10.5-3.29,1.36-2.36-2.92-12.52,8.51-.19,2.27,4.99,2.8.91,26.36-14.82.16-.1,6.38-4.41.84-1.91-1.62-12.2,12.31-2.36,1.61-1.74,1.4-12.76-2.31-2.19-15.44,2.58-.75-3.81-2.21-1.6-4.3.54-14.32-13.96-1.58-.57-9.88.9-8.76-3.16-3.09-10.3-2.66-1.28-3.4,1.38-.92-1.32-.83-18.14,3.57-.7,4.32,4.16,1.68.54,11.91-1.78,1.32-.8,6.84-9.38,1.17,1.41,1.63.72,6.87-.3,1.78,7.85,1.55,1.51,3.19.66,1.26-.15,7.55-3.58,2.3,1.97,1.64.45,7.04-1.21,1.64-2.24-.14-1.02,1.29-.3,1.74,11.55,1.74,1.68,10.51,1.22,2.23-2-.09-13.99,4.48-16.88,2.57-1.28,1.07-1.4,5.57-27.75,10.01,9.44,17.17,7.04,11.07-.19,5.34,10.6,10.42,7.88,16.41,1.97,2.07,3.84-1.78,10.51,3.18,5.25,7.7,3.19,6.38-1.78,7.69,7.88,9.85,2.72,6.57,6.48,11.06.18,3.1,2.44-.47,7.23,6.76-11.07-1.6-10.04,8.91-8.82-4.78-3.56-8.26,3.28-1.12-16.98,16.51-1.41-7.32-4.31.47-4.98,7.32-.75.18-5.06-3.94-.56.29-7.6-8.54-6.19-2.44-5.91,3.66-21.77,12.57-19.51-8.35-8.07,8.35-7.5,3.47-8.63,16.51-10.42-4.41-19.32,19.23,13.88,3.75-3.19,6.85,5.26,6.01-4.51,11.25,7.51,6.85-3.57-2.34-9.28,3.37-7.04,5.35,1.69-.47-9.1,6.19.47,5.44-6.19,7.32-1.97,3.85,4.78,4.31-.84,4.88-6.76,4.97,1.32,10.6-6.76,7.7,1.31.18-14.35,6.38-3.19,8.63,3.85,4.32-3.57-1.5-3.56,11.91-1.78,1.41,3.09,11.26,3.47-2.91,4.51-6.85-.66-.94,3.47,10.32,5.63,6-3.85,3.85-12.47,6.85-4.98,18.31,16.59.58,2.33v.03l.06,3.38,1.05-.51,2.26,1.14,7.78-3.29,1.1-1.14,2.35-6.31,5.51,4.13,1.63,7.89,3.8.36,2.33-5.56,7.28-3.35,5.31,6.33,2.8.27,6.03-4.94,8.02.64,1.65,1.21-1.17.39-1.37,1.65-.37,3,.82,1.88,7.57,5.38-8.21,1.63-1.6,2.1.37,5.26,1.53,1.8,12.1,2.91,2.3-1.14,1.82-4.13,4.12.65,5.14,8.66,1.17.9,9.52,2.76.52,2.7-2.53,2.83.61,3.13,12.72,6.19-.4,2.27.73,1.91,14.54,11.54,2.26.15.64-.38v2.6l1.04,1.76,17.54,9.59,6.34,6.89,1.76.63.46-.07-.45,2.18,1.76,1.53v-7.93l-1.3.18-5.85-6.36-.51-.4-16.79-9.19v-4.91l-3.01-1.72-2.48,1.46-12.53-9.95.45-2.58-1.09-2.14-11.69-5.69,1.42-1.59.47-1.71-.93-4.88-1.41-1.54-9.94-2.88-5.22-8.79-1.41-.96-6.57-1.03-2.14,1.17-1.76,4.01-9.06-2.18-.14-2.03,11.02-2.19.77-3.59-10.37-7.38.07-.56,3.67-1.2.56-3.51-5.25-3.85-1.03-.38-9.38-.75-1.42.45-5.13,4.19-5.02-5.99-2.37-.54-9.38,4.32-1.01,1.05-.13.31-.47-2.29-.76-1.2-8.26-6.19-3.07.9-2.99,8.01-6.69,2.82-.12-.46h0s-.02-1.64-.02-1.64l-.66-1.44-.1-.1-10.35-42.14,13.79-36.77,3.76-2.91,12.1,6.1,5.06,7.97,12.2-.75,8.82,3.47,26.54-3.09,2.26,1.78-3.66,2.91,13.13,7.97,3.85-8.72-2.54-11.92,30.02-37.61-8.53-3.57,4.12-20.92-14.72-5.06,6.37-22.42,46.35,8.91.46-6.45v-8.2l-17.16-6.08-.38-11.82-7.22-1.6,2.06-3.66,22.7-4.95v-2.62l-12.1-31.08-6.38-8.53,2.63-7.04-25.61,3.85-6.66-7.7-20.17-2.25-8.07-4.5,4.13-7.5-4.22-2.07,4.69-3-.94-7.13-8.63-1.03-5.53-6.1.56-17.35-3.1-7.6,6.48-2.44-1.6-12.57-23.36-13.7-6.09,2.63-17.55-2.82-4.59-13.13-6.94-.19-7.42,6.94-6.94-7.88-5.53,1.13-9.01-7.41-8.53-17.17-6.57,1.78-3-2.9-8.63-24.39,33.67-44.47-9.28-12.66-.94-14.36,2.59-8.3.21.04,1.05-.07,9.75-3.38,1.28-2.42-2.71-9.87,8.03.77,1.53,2.16,3.52-.49.5-1.42,3.4.97.28,4.5,1.56,1.83,4.12.93,2.06-.77,9.01-12.38.38-1.31-.38-5.72,12.12-5.26.67-.47,10.89-11.67,11.8,5.9,2.77-1.08.92-2.47,9.95,4.7,2.75-1.15.92-2.65,4.63.14,2.03-1.63,2.4-12.92,9.79.48,1.22-.34,8.45-5.72v-3.31l-8.63-5.88,8.14-11.34,14.51,10.54,3.17-1.71-.46-9.68,6.39-.14,1.45-.67ZM164.12,870.54l-7.4,6.46h0s7.4-6.47,7.4-6.47h0Z"/>
</svg>