<?xml version="1.0" encoding="UTF-8"?>
<svg id="_Шар_3" data-name="Шар 3" xmlns="http://www.w3.org/2000/svg" viewBox="0 0 1080 896.35">
  <defs>
    <style>
      .cls-1 {
        fill: #020202;
      }
    </style>
  </defs>
  <path class="cls-1" d="M256.64,639.69l6.58,3.17c.3.15.63.24.97.28l12.59,1.4c.11.01.22.02.33.02.41,0,.82-.09,1.2-.25l11.13-4.85.95.87-.98,8.8c-.02.17-.02.34,0,.51.02.34.09.67.23.99.06.15.14.3.23.45l3.49,5.45c.49.75,1.28,1.25,2.18,1.36l5.63.67,4.94,6.5c.54.72,1.37,1.15,2.26,1.19l21.65.92,10.76,16.88-2,4.67c-.39.91-.3,1.95.23,2.78l3.17,5.02,1.18,15.13c.07.85.49,1.63,1.16,2.15.53.4,1.17.62,1.83.62.18,0,.36-.02.54-.05l6.83-1.25,3.62,3.68c.52.53,1.22.83,1.95.88.06.01.13.02.19.02.08,0,.16,0,.24-.01l14.95-1.19c1.56-.12,2.77-1.44,2.76-3.01l-.02-4.03,4.41,4.02c.4.36.89.61,1.42.72l3.42.7c-.09.95.29,1.92,1.04,2.56l4.21,3.59-1.01,4.66c-.04.16-.06.32-.07.48-.02.48.07.96.27,1.4l3.64,8-8.29,9c-.83.89-1.03,2.18-.53,3.28l7.51,16.37-1.61.6c-.79.29-1.43.92-1.74,1.71-.08.2-.14.4-.17.61-.1.62-.01,1.26.28,1.83l2.5,5.01c.51,1.03,1.56,1.66,2.68,1.66.15,0,.31,0,.46-.04l8.84-1.38,15.04,11.71c.53.41,1.18.63,1.84.63.39,0,.77-.07,1.14-.23,1-.41,1.7-1.32,1.84-2.39l.99-7.75c.26.19.57.35.89.45.3.09.6.14.9.14.9,0,1.77-.41,2.35-1.14l2.24-2.83,7.94.98-.79,14.81c-.05,1,.4,1.97,1.21,2.57.13.1.27.18.41.26.43.22.9.33,1.38.33.34,0,.69-.06,1.02-.18l16.96-6.13,2.14,5.4c.44,1.09,1.47,1.83,2.64,1.89h.05l9.85.48h.15c1.07,0,2.07-.57,2.6-1.51.4-.69.5-1.48.31-2.22l2.74-.32c.88-.1,1.67-.59,2.16-1.34l6.31-9.63c.46-.7.6-1.55.4-2.37-.16-.62-.51-1.18-1-1.59l6.52-5.57c.56-.48.93-1.15,1.02-1.89l.43-3.24,2.98-.79,4.43,7.71c.17.3.4.57.67.8l9.58,8.06c.54.46,1.23.71,1.93.71.18,0,.35-.02.53-.05l13.81-2.46,15.36,3.44,21.09,14.33,6.88,6,6.21,5.85c.27.26.58.46.92.6l16.66,6.83s.08.03.14.05c.07.03.15.05.15.05.33.13.68.19,1.04.19.02,0,8.4-.14,8.4-.14l4.12,8.17c.21.41.51.77.87,1.04l10.4,7.87c.42.32.93.52,1.45.59l13.99,1.67.37.69-1.55,9.12c-.12.71.02,1.44.4,2.06l3.42,5.62c.33.54.82.97,1.41,1.21l7.99,3.31c.37.15.76.23,1.15.23.27,0,.54-.04.8-.11l4.19-1.16,5.94,6.08c.37.38.84.65,1.35.79l8.73,2.41,5.86,5.77c.54.54,1.28.85,2.05.86l9.68.16.3.24-.57,8.74c-.03.35.01.68.1,1,.27.96,1,1.75,1.98,2.06.3.09.61.14.91.14,1.02,0,2-.53,2.56-1.44l8.71-14.26c.37-.6.52-1.33.4-2.03l-1.27-7.99,7.92-7.84c.62-.61.94-1.47.88-2.34s-.5-1.68-1.2-2.2l-5.93-4.41c-.53-.39-1.15-.59-1.79-.59-.37,0-.75.07-1.11.21l-3.37,1.34-.47-7.01,15-1.28c.16-.01.32-.04.47-.08,1.08-.27,1.94-1.13,2.2-2.24.29-1.28-.28-2.59-1.41-3.25l-6.08-3.59,3.16-.33c1.49-.15,2.64-1.37,2.7-2.87l.25-6.57c.06-1.53-1.06-2.86-2.58-3.08l-1.11-.16.16-4.25c.03-1-.43-1.95-1.24-2.54l-7.71-5.59-1.49-3.6,3.2-19,6.03-9.37,6.03-9.36c.29-.46.45-.96.48-1.47.02-.51-.08-1.01-.3-1.48-.15-.3-.36-.59-.62-.84l-5.53-5.35,5.03-4.52c.34-.3.6-.68.77-1.11l2.95-7.32,15.36-9.68c1.08-.68,1.61-1.97,1.32-3.21l-2.05-9,10.58,7.64c.53.38,1.15.57,1.76.57.69,0,1.39-.24,1.95-.72l1.74-1.48,4.62,3.54c.54.41,1.19.62,1.83.62s1.26-.2,1.8-.6l4.11-3.08,8.97,5.98c.5.33,1.08.5,1.66.5.47,0,.95-.11,1.39-.34l7.76-4.04c1.23-.64,1.86-2.05,1.52-3.4l-2.09-8.26,1.14-2.38,3.18,1c.29.09.6.14.9.14.65,0,1.3-.21,1.83-.63.78-.6,1.22-1.54,1.17-2.52l-.29-5.64,1.94.15c.08,0,.15,0,.23,0,.86,0,1.68-.37,2.25-1.02l4.77-5.42,3.37-.91,2.44,3.04c.58.72,1.44,1.12,2.34,1.12.19,0,.38-.02.57-.05l5.09-.99c.75-.15,1.42-.58,1.86-1.2l3.32-4.59,2.55.67c.26.07.51.1.77.1.57,0,1.13-.16,1.61-.47l9.26-5.9,6.99,1.2c.17.03.34.04.51.04.7,0,1.38-.24,1.92-.69.67-.56,1.07-1.39,1.08-2.27l.17-12.51,2.3-1.15,7.13,3.18c.39.17.81.26,1.22.26.51,0,1.02-.13,1.48-.39.15-.09.3-.19.43-.3l5.15-4.26c.85-.7,1.23-1.8,1.04-2.85l3.53-.53.3.65c.35.78,1.03,1.37,1.85,1.63l.31.09c-.43.38-.75.88-.91,1.47l-1.31,4.85c-.36,1.34.24,2.75,1.46,3.41l11.08,6.05c.45.25.95.37,1.44.37.56,0,1.13-.16,1.62-.47l6.55-4.2c.6-.39,1.04-.97,1.25-1.65l3.41-11.06,2.91-2.12,14.47,13.11.09,4.83c.02,1.03.56,1.97,1.43,2.51.48.29,1.02.44,1.57.44.45,0,.89-.1,1.31-.3l3.58-1.74,1.22-9.1-9.88-40.21,12.43-33.15.75-.58,8.42,4.26,4.6,7.22c.55.87,1.51,1.39,2.53,1.39.06,0,.12,0,.19,0l11.4-.7,5.65,2.22,2.23.88c.35.14.72.21,1.1.21.12,0,.23-.01.35-.02l19.27-2.25s0,.08.01.12c.06.98.59,1.87,1.43,2.37l13.72,8.33,1.03.62c.47.28,1.01.43,1.55.43.3,0,.61-.05.91-.14.82-.26,1.49-.86,1.84-1.65l4.25-9.67c.13-.29.21-.59.24-.9.02-.16.02-.31.02-.47-.01-.15-.03-.31-.07-.46l-2.1-9.93,28.47-35.69c.59-.74.8-1.7.57-2.62-.24-.91-.89-1.66-1.75-2.02l-6.39-2.66,3.49-17.76c.04-.18.06-.37.06-.55.01-1.09-.57-2.1-1.52-2.64-.16-.09-.33-.16-.5-.23l-11.4-3.92,4.11-14.45,42.04,8.08c.19.03.38.05.57.05.66,0,1.32-.22,1.85-.64.68-.53,1.1-1.34,1.15-2.21v-.13l1.11-15.5c.01-.07.01-.15.01-.22,0-.76-.29-1.47-.78-2.01-.33-.36-.74-.64-1.22-.81l-15.18-5.38-.29-9.4c-.02-.73-.3-1.4-.76-1.91l16.53-3.61c.86-.19,1.59-.74,2-1.51.42-.77.47-1.69.16-2.51l-1.4-3.58-11.56-29.66c-.09-.25-.22-.48-.38-.7l-4.97-6.7,2.34-6.27c.37-1,.19-2.11-.48-2.94-.57-.71-1.43-1.11-2.33-1.11-.15,0-.3.01-.45.03l-24.07,3.62-5.22-6.03c-.5-.57-1.19-.94-1.94-1.02l-18.97-2.11-3.62-2.03,2.56-4.65c.2-.35.32-.75.36-1.15.03-.4-.01-.8-.13-1.19-.11-.37-.3-.7-.53-.99.62-.65.92-1.56.8-2.47l-1.08-8.2c-.06-.51-.26-.98-.54-1.37-.48-.66-1.22-1.12-2.07-1.22l-1.47-.17-6.1-.74-3.25-3.58s0-.24.02-.66c.1-2.93.48-14.68.48-14.72,0-.39-.08-.78-.22-1.14l-1.52-3.72,3.12-1.17c1.3-.49,2.09-1.81,1.92-3.19l-1.68-13.3c-.12-.92-.66-1.74-1.46-2.21l-23.28-13.65c-.47-.27-.99-.41-1.52-.41-.4,0-.81.08-1.18.24l-5.26,2.26-13.4-2.15-3.86-11.02c-.41-1.18-1.5-1.98-2.75-2.01,0,0-7.77-.21-7.8-.21-.2,0-.4.02-.59.06-.06.01-.11.03-.17.05-.13.03-.26.07-.39.12-.09.04-.17.09-.25.14-.09.04-.18.08-.26.13-.08.06-.15.13-.23.19-.07.06-.16.12-.23.19l-4.36,4.09-4.35-4.93c-.57-.66-1.4-1.02-2.25-1.02-.2,0-.4.02-.6.06l-4.02.82-6.54-5.39-8.18-16.45c-.52-1.03-1.57-1.66-2.69-1.66-.26,0-.52.03-.78.1l-4.9,1.33-.61-.6-7.27-20.54,17.52-23.12,14-18.49c.4-.52.61-1.17.61-1.82s-.2-1.26-.58-1.78l-8.67-11.81-.78-11.91,2.18-7-3.39-7.4c-4.42-.89-25.77-5.15-27.67-5.53l-.15-.03c-.2-.04-.39-.06-.59-.06-.73,0-1.45.27-2.01.77l-2.62,2.36-9.2-.66c-.07-.01-.14-.01-.21-.01-1.21,0-2.31.73-2.77,1.86l-.58,1.4-8.23,2.04c.16-1.29-.54-2.57-1.79-3.11l-6.09-2.64c-.38-.17-.78-.25-1.19-.25-.54,0-1.09.15-1.57.44l-10.89,6.67c-.88.54-1.42,1.51-1.43,2.54l-.06,10.96-2.54-1.58c-.37-.23-.77-.37-1.17-.42-.14-.02-.27-.03-.41-.03-.86,0-1.71.37-2.29,1.07l-1.78,2.11-.19-.25c-.29-.38-.66-.67-1.07-.87-.41-.2-.86-.3-1.31-.3s-.89.1-1.31.3l-5.12,2.49-11.39-6.62c-.47-.27-.99-.41-1.51-.41-.56,0-1.12.16-1.61.47l-3.15,2-5.22-3.9-3.81-8.11,1.89-6.39c.3-1.01.04-2.11-.68-2.89l-2.42-2.62,9.06-10.06c.24-.27.43-.57.56-.9l3.95-9.94c.37-.95.24-2.02-.35-2.85l-7.01-9.83c-.42-.6-1.06-1.02-1.78-1.19l-7.25-1.65c-.22-.05-.44-.07-.66-.07l-1.74-13.76c-.17-1.35-1.23-2.41-2.58-2.59l-18.31-2.46-10.41-9.1-2.01-2.06,2.57-7.63c.05-.13.08-.27.11-.4.02-.14.04-.27.05-.41.04-.82-.26-1.63-.84-2.23l-7.81-8.11,1.41-2.24c.8-1.28.53-2.95-.63-3.91l-38.33-31.68-3.22-38.92c-.04-.6-.27-1.17-.64-1.63-.12-.16-.26-.3-.41-.43l-9.73-8.23c-.56-.48-1.25-.71-1.94-.71-.19,0-.39.02-.58.06-.57.11-1.12.39-1.56.84l-4.6,4.67-7.11-1.16c-.16-.03-.32-.04-.48-.04-.45,0-.9.1-1.31.3l-17.01,8.22c-.17.08-.34.19-.49.3-.46.35-.81.82-1.01,1.36l-12.6-5c-.36-.14-.74-.21-1.11-.21-.6,0-1.19.18-1.7.52l-5.08,3.49c-.15-.17-.32-.33-.5-.47l-24.24-18.34c-.54-.41-1.18-.61-1.81-.61-.22,0-.45.02-.66.07-.66.15-1.27.52-1.71,1.09l-9.32,12-4.51-4.95c-.57-.62-1.38-.98-2.22-.98h-6.22c-.4,0-.8.08-1.18.24l-20.03,8.54c-.18.08-.35.17-.51.28-.79.53-1.27,1.41-1.31,2.34-.02.38.04.76.17,1.13l1.85,5.29c.38,1.08,1.33,1.85,2.46,1.99l6.93.86.11.14-.03.06-14.66,5.8c-.3.12-.58.29-.83.49l-9.42,7.93-3.37.25-5.89-4.44c-.3-.23-.64-.4-1-.5l-44.34-12.38c-.27-.07-.54-.11-.81-.11-.24,0-.49.03-.73.09l-10.6,2.65c-.53.13-1.01.4-1.39.79l-1.74,1.74-5.32-5.91c-.57-.63-1.38-.99-2.23-.99-.05,0-.11.01-.16.01-.06,0-.11,0-.16,0-.96.1-1.81.66-2.29,1.5l-2,3.53c-.18-.1-.37-.18-.57-.25l-5.31-1.7c-.29-.09-.6-.14-.91-.14-.37,0-.74.07-1.09.2l-9.26,3.61-1.57-5.02c-.39-1.25-1.55-2.1-2.86-2.1-.04,0-6.86.28-7.72.32h-.08l-.66-7.8c-.03-.38-.14-.75-.3-1.07-.48-.98-1.47-1.65-2.63-1.68l-14.28-.31-.57-2.79c-.06-.27-.15-.53-.27-.77-.37-.72-1.02-1.27-1.82-1.51l-4.23-1.25-6.62-8.18c-.59-.72-1.45-1.11-2.33-1.11-.14,0-.27.01-.41.03-.4.05-.8.19-1.16.41l-12.13,7.46c-.2.13-.38.27-.54.43-.5.49-.81,1.15-.88,1.86l-1.11,12.24-1.8.96-6.22-1.62-5.17-6.6c-.58-.75-1.46-1.15-2.36-1.15-.47,0-.94.11-1.37.33l-14.72,7.56-2.73-3.32c-.32-.39-.74-.69-1.2-.87-.06-.02-.11-.06-.17-.07-.17-.06-.36-.11-.54-.13l-8.99-1.23-7.34,3.1-4.61,4.99-5.06.55c-.95.1-1.78.65-2.25,1.44-.16.26-.28.55-.35.86l-2.66,11.46s-10.4-.38-10.44-.38c-.92,0-1.8.43-2.37,1.16-.42.54-.63,1.2-.62,1.87,0,.04-.01.07-.01.11.01.23.05.47.12.7l1.08,3.7-.47.19c-.22.09-.43.21-.62.34-.57.41-.99,1.02-1.16,1.72l-1.14,4.6-1.28-.21c-.16-.03-.32-.04-.48-.04-.74,0-1.47.28-2.03.79l-5.21,4.77c-.98.9-1.24,2.32-.68,3.49l-4.23,1.38c-1.39.45-2.25,1.84-2.04,3.29l.84,5.65-21.38,14.63-14,1.41c-.81.08-1.53.48-2.01,1.08t-.01,0c-.1.11-.18.24-.26.36-.01.02-.01.03-.02.04-.07.12-.13.25-.18.38-.01.01-.01.02-.01.03-.06.13-.1.27-.13.42,0,0-.77,3.03-1.17,4.64-.04.17-.08.33-.12.46-.05.22-.09.38-.11.47,0,.04-.02.06-.02.06l-.08-.04c-.42-.19-.86-.29-1.3-.29-.59,0-1.17.17-1.67.51l-2.22-2.45c-.14-.16-.3-.3-.47-.42-.51-.37-1.12-.57-1.75-.57-.09,0-.19,0-.28.01-.06.01-.12.03-.18.04-.83.13-1.58.59-2.05,1.3h-16.81l.23-3.15v-.05c.05-.89-.29-1.75-.94-2.36-.56-.52-1.29-.81-2.05-.81-.13,0-.27.01-.41.03l-13.76,1.88c-1.12.15-2.05.92-2.42,1.97-.05.15-.09.3-.12.46l-.48,2.6-17.86-1.3c-.07-.01-.15-.01-.22-.01-.55,0-1.09.15-1.56.44l-8.9,5.41-8.39-8.26,1.78-13.21c.03-.22.04-.43.02-.65-.05-.64-.31-1.25-.75-1.74-.14-.16-.3-.31-.47-.43-.51-.37-1.13-.58-1.77-.58-.01,0-1.93.04-4.38.08-2.46.04-5.45.1-7.61.13-.19.01-.37.01-.54.01-.35.01-.67.01-.95.02-.85,0-1.37.02-1.37.02l-12.53-6c-.42-.19-.86-.29-1.3-.29-.55,0-1.1.15-1.58.45-.16.1-.31.21-.45.34l-.82.75-2.89-1.44-1.13-5.29c-.29-1.39-1.53-2.37-2.93-2.37-.09,0-.19,0-.28.01l-14.59,1.39c-.96.09-1.81.63-2.3,1.46l-2.74,4.61c-.47.79-.55,1.76-.21,2.62l1.05,2.71-5.99,2.73c-.94.42-1.59,1.3-1.73,2.32l-.8,5.71-9.99,2.8c-.9.25-1.64.91-1.98,1.79-.34.87-.26,1.85.22,2.65l2.73,4.51-.42.93-1.46-1.1c-.26-.2-.54-.34-.83-.44-.01-.01-.02-.01-.04-.02-.04-.01-.08-.02-.13-.03-.26-.07-.54-.12-.81-.12-.69,0-1.39.24-1.95.72l-.63.54-.97-1.13c-.58-.67-1.41-1.05-2.28-1.05-.22,0-.44.02-.66.07l-15.89,3.57-8.12,10.54-5.71,8.22c-.69.99-.72,2.29-.08,3.31l1.66,2.64-10.49,7.02c-.71.47-1.19,1.24-1.3,2.09-.12.85.14,1.71.7,2.36l1.03,1.19-4.23,14.38c-.29.99-.05,2.06.63,2.83l6.05,6.87-.34,7.93s.02.09.02.13c.01.13.03.25.06.36.01.08.03.16.05.23.04.12.08.24.13.35.03.07.06.14.1.21.06.12.14.23.22.34.04.06.07.11.11.16.13.16.28.31.45.44l15.14,12,3.92,9.4c.35.83,1.06,1.47,1.93,1.72l35.52,10.33.81,5.45-13.96,3.33c-1.04.25-1.87,1.04-2.17,2.06-.31,1.03-.05,2.14.69,2.92l5.15,5.44-3.39,5.28c-.53.81-.62,1.81-.29,2.68.11.29.27.56.47.82l17.55,21.89c.57.71,1.44,1.12,2.34,1.12.14,0,.28-.01.42-.03l4.36-.61c.25-.03.5-.1.73-.2.7-.29,1.27-.84,1.59-1.54l-.02.12c-.04.2-.05.41-.04.61.06,1.39,1.09,2.59,2.52,2.82l4.3.7,4,22.44c.11.65.44,1.23.9,1.66.16.14.33.27.51.38l12.2,7.96-2.14,9.59c-.23,1.05.12,2.15.92,2.88h.02c-.13.28-.21.56-.25.86l-1.58,11.43c-.12.85.13,1.72.7,2.37l3.47,4.03-2.98,1.85-1.97-2.48c-.52-.65-1.29-1.06-2.13-1.12-.07-.01-.15-.01-.22-.01-.76,0-1.49.28-2.04.8l-6.54,6.08c-.14.13-.27.28-.38.43-.78,1.06-.78,2.54.05,3.61l19.06,24.51,4.32,12.67c.42,1.24,1.58,2.03,2.84,2.03.25,0,.51-.03.76-.1l13.2-3.46,3.11,11.51c.32,1.16,1.29,2.02,2.48,2.19l10.81,1.53,3.74,6.38.35,22.98c.01.31.06.61.15.9.29.86.96,1.56,1.84,1.87l26.42,9.46,5.82,8.05c.42.58,1.04.99,1.74,1.16l2.93.69-.91,1.65c-.4.71-.49,1.55-.25,2.33l4.05,13.24-3.95,4.17c-.59.63-.89,1.48-.81,2.34.08.86.53,1.64,1.23,2.15l15.13,10.93c-.26.46-.39.99-.38,1.52l.42,20.53-9.69,9.7-9.7.33c-1.38.05-2.52,1.02-2.82,2.32-.05.19-.07.38-.08.58l-.78,22.55-6.11,5.01c-.74.6-1.14,1.52-1.1,2.47.05.95.54,1.82,1.34,2.35l8.01,5.34-.95,9.38c-.07.63.06,1.25.37,1.79l4.59,8.08c.54.94,1.53,1.52,2.61,1.52.01,0,.74-.03,1.69-.06.94-.04,2.1-.08,3-.12.17-.01.32-.02.46-.02.29-.01.53-.02.69-.03.17,0,.26,0,.26,0l4.44,3.46.3,3.67-20.73-.65-17.09-9.71c-.35-.2-.73-.32-1.13-.37l-15.63-1.82-9.75-12.18c-.14-.18-.3-.34-.48-.48-.53-.42-1.18-.65-1.86-.65-.15,0-.3.01-.44.03-1.06.16-1.95.87-2.35,1.86l-9.57,24.06-4.81,4.47c-.82.76-1.15,1.9-.86,2.97l1.05,3.93c.22.81.75,1.47,1.45,1.86l-.81,1.34c-.76,1.26-.49,2.9.65,3.85l12.95,10.83c.07.06.15.11.23.17.24.16.49.29.76.38l11.46,3.74,4.28,5.56c.34.43.78.77,1.29.96l7.2,2.82,6.03,11.01c.4.73,1.09,1.27,1.9,1.47.24.06.49.09.73.09.58,0,1.15-.17,1.64-.49l4.16-2.71,5.89,4.65c.53.43,1.19.65,1.86.65.22,0,.45-.03.67-.08l18.05-4.14,5.93,2.47,5.49,8.28c.57.86,1.52,1.34,2.5,1.34.46,0,.93-.11,1.37-.33l15.95-8.15.6.06,5.31.55M255.14,643.48,383.51,700.11l-6.16,2.13-.07-11.12c.42.2.88.31,1.34.31.42,0,.84-.09,1.24-.27l1.59-.72,4.29,3.97-2.23,5.7ZM881.16,669.89l-.93,3.04-2.57,1.65-.08-.05c.32-.22.59-.5.81-.83l1.86-2.89,1.2-1.86-.29.94ZM892.9,243.13l-30.91,40.8c-.15.2-.28.42-.37.64-.2.46-.27.95-.23,1.44.02.25.08.49.16.73l8.55,24.15c.16.44.41.83.74,1.15l3.43,3.33c.57.55,1.32.85,2.09.85.26,0,.53-.03.79-.1l3.7-1.01,6.86,13.78c.18.38.45.71.77.98l9.17,7.55c.54.44,1.22.68,1.91.68.2,0,.4-.02.6-.06l3.52-.72,5.81,6.59c.1.12.22.22.34.32.04.03.07.07.1.09.02.02.05.03.07.05.47.33,1.02.53,1.6.56h.14c.76,0,1.5-.29,2.06-.82l.37-.34s.09-.09.14-.13l6.14-5.76,2.32.07,3.71,10.59c.09.26.21.5.37.72.46.66,1.17,1.12,1.98,1.25l17.74,2.84c.15.02.29.03.44.03.41,0,.81-.08,1.19-.24l4.27-1.84,19.05,11.16.9,7.06-4.22,1.58c-.19.07-.37.16-.54.27-.5.32-.91.78-1.15,1.34-.16.37-.25.77-.25,1.16,0,.2.01.4.05.6.04.19.1.38.17.57l3.03,7.44-.53,16.23c-.02.78.26,1.54.78,2.12l5.82,6.41c.48.53,1.15.87,1.86.96l5.6.67.18,1.31-.42.27-3.41,2.18c-.91.59-1.44,1.62-1.38,2.7.07,1.08.71,2.05,1.68,2.52l1.85.91-2.42,4.4c-.79,1.45-.27,3.27,1.17,4.07l8.76,4.89c.35.19.73.32,1.13.36l18.03,2.02,5.33,6.15.41.47c.29.34.64.59,1.03.77.14.06.29.1.43.15.06.01.11.04.17.05.21.05.42.07.64.07.15,0,.3,0,.45-.03l18.49-2.78-.36.95c-.24.64-.23,1.33-.03,1.96.03.08.04.16.07.23.02.06.06.11.09.17.08.17.16.33.28.48l6.11,8.2,10.66,27.38-18.61,4.06c-.81.18-1.51.69-1.93,1.4-.01.02-.03.03-.04.05h0s-.08.15-.08.15l-2.76,4.87c-.11.2-.18.4-.24.61-.01.01-.02.03-.03.05-.04.16-.06.32-.07.48-.01.08-.03.16-.03.25-.01.14.01.28.03.42.01.11.02.21.04.31.03.13.07.26.12.38.02.07.03.14.06.2.02.05.05.08.07.13.03.05.04.11.07.16.05.08.11.14.16.21.04.06.08.12.12.17.1.12.21.23.32.33.06.05.11.1.16.14.13.1.26.18.39.25.06.04.12.07.18.1.16.08.33.13.5.18.04.01.08.03.12.04l5.2,1.15.28,8.93c.03.79.35,1.49.87,2.01,0,0,0,.01.01.01.08.09.18.16.27.24.03.02.05.04.07.06.09.06.18.12.27.17.04.02.08.05.12.07.09.05.18.08.27.12.04.02.08.04.13.06l.07.02,3.91,1.39,10.83,3.84-.46,6.44-39.88-7.67-.73-.25c-.31-.1-.63-.15-.95-.15-.5,0-1,.13-1.45.37-.74.41-1.27,1.1-1.46,1.92l-6.63,23.28c-.05.14-.06.29-.08.44,0,.05-.02.1-.02.15-.01.13,0,.25,0,.38.01.08.01.17.02.25.02.12.04.23.07.34.03.09.06.19.09.28.04.1.07.2.12.29.05.11.11.21.18.31.04.06.07.13.11.19.01.01.03.03.04.04,0,0,.01,0,.01,0,.1.13.22.26.35.37.03.03.06.05.09.08.11.08.22.16.33.23.04.03.09.06.13.08.13.07.27.14.41.19.02.01.04.02.06.03h.05s11.7,4.04,11.7,4.04l-3.45,17.49c-.04.17-.06.35-.06.52-.02,1.22.69,2.35,1.84,2.83l4.09,1.71-25.86,32.41c-.57.7-.78,1.62-.59,2.5l2.26,10.65-1.36,3.08-3.91-2.37h.01c.09-.08.18-.17.26-.25.04-.04.07-.09.11-.14.06-.07.12-.14.18-.21.08-.11.15-.23.21-.35.04-.06.07-.13.1-.19.07-.15.12-.29.16-.45.01-.05.03-.1.04-.15.04-.18.06-.37.06-.55,0-.03.01-.05.01-.07v-.02c0-.06,0-.11,0-.16,0-.17-.05-.33-.09-.49-.15-.66-.51-1.26-1.05-1.69l-3.42-2.71c-.08-.07-.17-.12-.25-.17-.06-.04-.11-.08-.17-.11-.07-.04-.15-.07-.23-.1-.07-.04-.15-.08-.22-.1-.09-.03-.19-.05-.28-.07-.07-.02-.14-.05-.21-.06-.16-.03-.33-.04-.5-.04-.12,0-.23.01-.35.02l-24.93,2.91-7.75-3.05c-.35-.14-.72-.21-1.1-.21-.06,0-.12,0-.18,0l-9.61.59-3.76-5.92c-.29-.46-.7-.83-1.18-1.07l-12.42-6.25c-.21-.11-.42-.18-.65-.24h-.01c-.22-.05-.45-.08-.68-.08-.49,0-.97.12-1.41.35-.15.08-.29.17-.42.27l-4.31,3.34c-.44.34-.77.8-.97,1.32l-13.46,35.88c-.21.56-.25,1.18-.1,1.77l7.75,31.58-11.14-10.08c-.56-.52-1.29-.78-2.01-.78-.62,0-1.23.19-1.76.57l-7.47,5.42c-.53.38-.92.92-1.11,1.55l-1.03,3.36c-.02-.08-.05-.15-.07-.22-.32-.88-1.04-1.56-1.94-1.84l-10.33-3.18-.91-2.01c-.49-1.08-1.57-1.76-2.73-1.76-.15,0-.29.01-.44.03l-13.39,2c-.92.14-1.72.69-2.17,1.5-.46.81-.51,1.78-.16,2.63l.77,1.83-6.45-2.87c-.39-.17-.8-.26-1.22-.26-.46,0-.92.11-1.34.32l-7.06,3.53c-1.01.5-1.65,1.52-1.66,2.64l-.13,9.75-3.19-.54c-.17-.03-.33-.04-.5-.04-.57,0-1.13.16-1.61.47l-9.04,5.75-3.74-.98c-.26-.07-.52-.1-.77-.1-.95,0-1.86.45-2.43,1.24l-4.16,5.76-.27.06-2.59-3.23c-.58-.72-1.44-1.12-2.34-1.12-.26,0-.52.03-.78.1l-7.92,2.13c-.57.16-1.08.48-1.48.92l-4.11,4.69-5.07-.38c-.07-.01-.15-.01-.22-.01-.78,0-1.53.3-2.1.85-.61.6-.94,1.44-.9,2.3l.22,4.14-.5-.15c-.3-.1-.6-.14-.9-.14-1.13,0-2.19.64-2.7,1.7l-3.76,7.82c-.31.63-.38,1.35-.21,2.03l1.57,6.23-1.72.9-9.45-6.29c-.5-.33-1.08-.5-1.66-.5-.63,0-1.27.2-1.8.6l-3.91,2.93-4.81-3.69c-.54-.41-1.19-.62-1.83-.62-.69,0-1.38.24-1.94.71l-1.83,1.56-18.03-13.01c-.53-.38-1.14-.57-1.76-.57-.58,0-1.15.17-1.66.5-1.04.69-1.54,1.95-1.26,3.17l4.17,18.32-13.76,8.67c-.53.34-.95.83-1.18,1.42l-3.11,7.73-8.11,7.29c-.38.35-.65.79-.82,1.27-.09.29-.16.59-.17.9-.01.84.32,1.64.91,2.22l6.43,6.21-10.43,16.19c-.22.34-.37.73-.44,1.13l-3.56,21.17-.04.27c-.04.27-.04.54-.01.8h0c.04.27.1.53.21.78l2.55,6.19c.21.52.56.96,1.01,1.29l6.71,4.87-.22,6.06c-.02.52.1,1.02.32,1.46l-.95.1c-1.42.14-2.54,1.27-2.68,2.7l-.58,6.17c-.02.3-.01.59.05.87l-6.17.53c-1.63.14-2.84,1.56-2.73,3.19l1.24,18.57c.01.24.06.47.13.7.21.67.65,1.25,1.26,1.64.36.23.77.37,1.18.43.14.02.28.03.42.03.37,0,.75-.07,1.11-.21l4.55-1.81-3.96,3.92c-.69.68-1,1.64-.85,2.6l1.37,8.7-.4.66-2.27-1.79c-.13-.11-.27-.2-.41-.28-.43-.23-.91-.36-1.4-.37l-9.38-.16-5.36-5.29c-.37-.36-.82-.62-1.31-.75l-8.68-2.4-7.04-7.22c-.57-.58-1.35-.9-2.15-.9-.27,0-.54.04-.81.11l-5.36,1.5-4.94-2.05-1.62-2.67,1.52-8.98c.11-.66,0-1.33-.32-1.92l-2.37-4.42c-.46-.86-1.31-1.44-2.28-1.56l-15.22-1.83-8.43-6.37-4.99-9.91c-.51-1.01-1.55-1.65-2.68-1.65-.02,0-10.47.18-10.47.18l-15.08-6.17-9.84-9.3s-.04-.04-.05-.07c-.08-.12-.17-.23-.27-.34-.03-.03-.07-.07-.1-.11-.13-.13-.27-.25-.42-.35l-.29-.2-1.02-.96c-.13-.13-.27-.23-.42-.32-.04-.03-.09-.06-.13-.08-.11-.06-.21-.12-.33-.17-.05-.02-.1-.04-.15-.06-.13-.05-.26-.09-.39-.12-.04,0-.07-.01-.1-.02h-.02l-9.65-6.56-12.02-8.16-.16-.11c-.09-.05-.18-.1-.28-.14-.21-.11-.43-.2-.66-.25l-17.22-3.87c-.22-.05-.44-.07-.66-.07-.18,0-.35.02-.53.05l-12.52,2.23-7.17-6.04-5.87-10.21c-.54-.94-1.55-1.5-2.6-1.5-.26,0-.51.03-.77.1l-9.81,2.61c-.15.04-.29.09-.43.15-.95.42-1.64,1.31-1.77,2.36l-.61,4.63-10.45,8.93c-.75.64-1.13,1.61-1.03,2.59.1.98.67,1.84,1.53,2.32l1.08.59-2.14,3.26-7.74.91-.45.05c-.55.07-1.06.28-1.49.61l-2-5.05c-.12-.29-.28-.56-.47-.79-.57-.7-1.42-1.1-2.32-1.1h-.05c-.28.01-.55.06-.83.14-.05.02-.09.02-.14.04l-14.46,5.23.62-11.59c.07-1.42-.86-2.7-2.24-3.06l-2.83-.74c-.13-.04-.26-.06-.39-.08l-12.38-1.53s-.09-.01-.13-.01c-.37-.16-.76-.24-1.18-.24-.02,0-7.2.12-7.2.12-1.49.03-2.74,1.14-2.93,2.62l-.93,7.29-9.92-7.72c-.53-.41-1.18-.63-1.84-.63-.15,0-.31.01-.46.04l-2.48.38c-.05-.25-.12-.49-.23-.73l-8.35-18.2,8.29-8.99c.81-.88,1.02-2.17.52-3.27l-4.32-9.49,1.29-5.96c.24-1.08-.14-2.2-.99-2.92l-3.84-3.27.52-1.44c.15-.41.2-.84.17-1.26-.03-.43-.16-.85-.37-1.23-.43-.76-1.17-1.3-2.02-1.47l-6.03-1.22.54-.19c.83-.28,1.49-.92,1.81-1.74l4.28-10.94c.34-.86.26-1.81-.19-2.59-.15-.26-.34-.49-.56-.7l-9.15-8.45c-.49-.45-1.09-.71-1.71-.78l-.32-2.52c-.08-.56-.3-1.08-.65-1.52l-6.48-7.95c-.58-.7-1.44-1.1-2.33-1.1-.17,0-.34.01-.51.04l-3.69.64c-.85.15-1.59.65-2.04,1.38-.45.73-.57,1.62-.32,2.44l2.94,9.87.15,26.05-8.1.65-3.7-3.77c-.06-.07-.12-.12-.18-.18l-.18-.18c-.41-.34-.89-.56-1.4-.65-.17-.03-.35-.04-.52-.04-.18,0-.36.02-.55.05l-4.02.74-.85-10.91c-.04-.49-.19-.96-.46-1.38l-2.44-3.84,2-4.69c.39-.91.3-1.96-.23-2.79l-13.53-21.23c-.53-.83-1.42-1.35-2.4-1.39l-21.9-.93-4.81-6.32c-.49-.65-1.23-1.07-2.04-1.17l-5.39-.64-1.3-2.02,1.07-9.54c.11-.96-.25-1.9-.95-2.55l-5.15-4.72c-.57-.52-1.29-.79-2.03-.79-.4,0-.81.08-1.2.25l-12.85,5.59-10.46-1.15-7.61-3.68c-.05-.08-.12-.14-.18-.21s-.11-.14-.18-.2c-.1-.09-.2-.17-.31-.25-.07-.05-.14-.11-.21-.15-.12-.08-.26-.13-.39-.19-.07-.03-.13-.07-.2-.09-.21-.07-.43-.12-.65-.14h-.07s-.49-.06-.49-.06l-.3-.15c-.41-.2-.86-.3-1.31-.3-.18,0-.36.02-.54.05-.05.01-.11.03-.16.04-.11.03-.21.05-.32.09l-10.61-1.09c-.1-.02-.21-.02-.31-.02-.47,0-.94.11-1.36.33l-13.34,6.81-3.89-5.86c-.08-.12-.17-.24-.27-.35-.3-.33-.66-.59-1.07-.76l-8.76-3.66c-.37-.15-.77-.23-1.16-.23-.23,0-.45.03-.67.08l-.63.14-16.67,3.82-6.8-5.37c-.54-.43-1.2-.65-1.86-.65-.57,0-1.14.16-1.64.49l-2.67,1.74-4.34-7.92c-.34-.62-.88-1.1-1.54-1.35l-7.6-2.98-4.39-5.67c-.18-.24-.4-.45-.64-.62-.07-.05-.14-.08-.21-.13-.06-.03-.11-.07-.17-.1-.14-.07-.28-.13-.42-.17l-.45-.15-11.55-3.77-8.98-7.52,2.67-4.39c.14-.23.24-.47.32-.71.21-.74.14-1.54-.22-2.24-.49-.93-1.43-1.54-2.47-1.6l-.2-.02,1.13-1.04c.33-.3.58-.68.75-1.09l6.84-17.23,5.74,7.16c.2.25.44.45.7.63.39.25.83.43,1.29.48l16.64,1.93,17.27,9.83c.42.24.9.37,1.39.39,0,0,1.31.04,3.37.1.59.02,1.24.04,1.94.06.34.01.7.02,1.07.04.74.02,1.52.04,2.33.07.4.01.81.02,1.23.04,7.89.24,17.6.54,17.62.54.62,0,1.21-.19,1.71-.54.17-.11.32-.25.47-.39.58-.62.88-1.47.81-2.32l-.94-11.32c-.07-.83-.48-1.6-1.14-2.12l-7.55-5.89c-.53-.41-1.18-.63-1.85-.63-.04,0-4.91.19-4.91.19l-2.34-4.1,1.1-10.77c.02-.14.02-.28.02-.42-.01-.36-.1-.71-.23-1.04-.02-.04-.04-.09-.06-.13-.23-.48-.58-.91-1.05-1.22l-4.95-3.3,2.69-2.21c.67-.55,1.07-1.36,1.1-2.22l.69-20.18,7.06-.24c.76-.03,1.48-.34,2.02-.88l12.55-12.55c.43-.43.72-.99.83-1.58.04-.2.05-.4.05-.6l-.43-20.59,1.97-2.04c.6-.63.91-1.49.83-2.36-.08-.86-.53-1.65-1.23-2.16l-15.09-10.9,2.06-2.17c.74-.78,1-1.9.69-2.94l-4.28-13.99,3.05-5.49c.35-.62.46-1.33.33-2.01-.04-.23-.11-.45-.21-.66-.38-.86-1.14-1.5-2.05-1.71l-7.46-1.75-5.63-7.8c-.26-.36-.61-.67-1.01-.88-.13-.07-.27-.13-.41-.18l-24.66-8.83-.32-20.87c-.01-.51-.15-1.02-.41-1.47l-5.6-9.54s-.08-.1-.12-.15c-.08-.13-.17-.25-.27-.36-.04-.05-.09-.09-.14-.13-.12-.12-.24-.23-.38-.33-.02,0-.05-.02-.07-.03-.36-.23-.75-.4-1.19-.46l-9.95-1.4-3.53-13.1c-.14-.5-.39-.94-.73-1.29-.56-.59-1.34-.93-2.17-.93-.25,0-.51.03-.76.1l-13.5,3.54-3.1-9.11c-.11-.31-.27-.61-.47-.87l-14.13-18.17c.13.02.27.03.4.03.54,0,1.09-.15,1.58-.45l11.6-7.18c.75-.46,1.25-1.23,1.39-2.09.13-.87-.12-1.75-.7-2.42l-5.78-6.7.88-6.44,2.37-.97c.24-.1.46-.23.66-.38.61-.45,1.02-1.13,1.16-1.89.17-1.01-.19-2.05-.95-2.74l-3.02-2.72,2.25-10.12c.27-1.22-.24-2.48-1.29-3.16l-13.36-8.71-4.25-23.79c-.22-1.25-1.21-2.23-2.47-2.43l-2.91-.47.46-2.88c.17-1.06-.24-2.14-1.09-2.81l-6.9-5.52c-.53-.43-1.2-.66-1.87-.66-.28,0-.55.04-.82.12-.94.26-1.68.96-2.01,1.88l-2.25,6.35-12.68-15.82,3.56-5.55c.74-1.16.6-2.68-.35-3.68l-1.94-2.05,10.07-2.4c.37-.09.71-.26,1.02-.47l.02-.02c.13-.1.26-.2.37-.31.03-.03.05-.06.08-.09.09-.1.17-.2.25-.3.03-.05.06-.1.09-.14.06-.1.12-.2.17-.3.02-.06.05-.12.08-.19.04-.09.07-.19.1-.29.02-.07.04-.15.05-.22.02-.1.03-.2.04-.3.01-.08.02-.15.02-.23.01-.03.01-.05.01-.07,0-.15-.01-.3-.03-.44l-1.94-13.02c-.18-1.16-1.01-2.11-2.13-2.44l-36.29-10.55-3.46-8.27-.05-.13c-.05-.1-.11-.18-.16-.28-.07-.12-.13-.25-.21-.36-.05-.07-.12-.12-.18-.19-.12-.13-.22-.26-.36-.37l-12.55-9.95,2.22-3.28c.88-1.29.62-3.03-.59-4.01l-2.88-2.35-6.43-7.29,4.14-14.09c.19-.65.15-1.34-.09-1.95l10.08-6.74c1.35-.9,1.73-2.71.87-4.09l-2.41-3.83,5.4-7.78c.58-.82.7-1.87.33-2.81l-.69-1.76,15.36-3.44,2.23,2.61c.59.69,1.43,1.05,2.28,1.05.17,0,.35,0,.52-.04.51-.09,1-.31,1.42-.67l1.38-1.18,3.2,2.42c.53.39,1.17.6,1.81.6.25,0,.49-.03.74-.09.88-.23,1.61-.84,1.99-1.66l4.04-8.85c.12-.27.19-.55.23-.84.09-.67-.03-1.36-.39-1.96l-.73-1.21,6.87-1.92c1.15-.32,2-1.29,2.16-2.48l.86-6.22,7.78-3.53c1.31-.59,1.98-2.01,1.68-3.38-.03-.15-.07-.3-.13-.44l-1.88-4.82.24-.4,7.75-.74.71,3.32c.19.89.77,1.65,1.59,2.05l8.04,4.02c.42.22.88.32,1.34.32.74,0,1.47-.27,2.03-.8l.86-.79,10.59,5.08c.41.19.85.29,1.3.29.01,0,1.84-.03,3.95-.07,2.11-.04,4.51-.09,5.65-.11.42-.01.67-.01.67-.01l-1.33,9.97c-.13.94.19,1.87.86,2.54l12.86,12.67c.58.57,1.34.86,2.11.86.54,0,1.08-.14,1.56-.44l10.83-6.58,20.69,1.5c.08.01.15.01.22.01.9,0,1.72-.4,2.28-1.05.33-.39.57-.87.67-1.4l.64-3.44,4.22-.58-.17,2.38c-.01.08-.01.16-.01.24,0,.54.15,1.07.43,1.53.11.17.23.34.37.49.57.61,1.37.96,2.2.96h19.07l.78,1.83c.27.64.77,1.14,1.37,1.45.05.03.1.07.15.1.16.07.34.11.51.15.07.02.13.05.2.07h.01c.17.03.35.04.52.04.21,0,.41-.02.61-.06.09-.02.17-.05.26-.08.11-.03.21-.06.31-.1.11-.04.2-.11.3-.16.08-.05.16-.08.24-.13.09-.07.18-.15.27-.23.06-.06.13-.11.19-.17,0,0,0-.01,0-.01.14-.15.27-.31.38-.49l.18-.31,1.52,1.67c.57.63,1.37.99,2.22.99h.05c.87-.02,1.69-.4,2.24-1.07l.64-.75,4.36,2.09c.42.2.86.3,1.3.3.95,0,1.87-.45,2.45-1.26l3.94-5.55c.47-.68.65-1.52.49-2.32-.16-.81-.64-1.52-1.34-1.96l-1.04-.65,9.98-1c.5-.06.98-.23,1.39-.51l24.95-17.07c.83-.57,1.32-1.51,1.31-2.49,0-.15-.01-.29-.03-.43l-.68-4.59,6.64-2.17c.91-.29,1.62-1.01,1.92-1.92.23-.68.19-1.41-.07-2.07-.09-.21-.21-.42-.35-.61l-1.05-1.46.22-.2,3.4.55c.16.03.32.04.48.04.17,0,.34-.01.5-.04,1.15-.2,2.12-1.05,2.41-2.24l1.62-6.56,2.27-.92c.54-.21.98-.57,1.3-1.01.53-.73.73-1.69.46-2.61l-.42-1.43s7.64.28,7.68.28c1.39,0,2.61-.96,2.92-2.32l2.79-12.01,3.42-.37c.72-.08,1.39-.41,1.88-.94l6.43-6.96,6.97.95,4.01,4.9c.59.72,1.45,1.1,2.32,1.1.47,0,.94-.11,1.37-.33l14.64-7.52,3.69,4.72c.06.09.14.16.22.24.04.04.07.08.11.12.09.09.2.16.31.24.02.02.05.04.07.06.28.18.58.31.89.39l9.7,2.52c.24.07.5.1.75.1.49,0,.98-.12,1.42-.36l5.84-3.13c.44-.23.81-.58,1.08-.98.03-.04.04-.09.06-.13.11-.17.2-.34.27-.53.02-.06.02-.13.04-.19.05-.18.1-.35.12-.54l1.13-12.42,6.35-3.9,4.85,6c.38.47.9.81,1.48.99l2.87.85.76,3.74c.28,1.37,1.47,2.37,2.87,2.4l13.8.3.68,8.1c.11,1.36,1.13,2.45,2.43,2.7.18.03.37.05.57.05.02,0,2.21-.09,4.39-.19,2.18-.09,4.35-.18,4.35-.18l1.62,5.15c.04.15.1.29.17.43.2.41.5.77.86,1.05l5.9,4.53c.54.41,1.18.62,1.83.62.42,0,.84-.09,1.24-.27,1.01-.46,1.68-1.43,1.75-2.54l.23-3.61,4.91-1.91.73.24.46.15,1.76,5.74c.03.08.06.15.09.22.02.06.04.13.07.19.03.05.05.09.08.14.04.08.09.16.14.24.01.02.03.04.04.06.07.1.15.19.23.28,0,.01.01.01.01.02.09.1.19.19.3.28s.23.18.35.25h.01c.25.15.51.27.79.34.14.04.28.07.43.08.11.01.22.02.33.02.27,0,.53-.04.78-.1.76-.21,1.43-.71,1.83-1.42l3.71-6.54,4.22,4.7c.55.61,1.33.97,2.15.99h.08c.8,0,1.56-.32,2.12-.88l4.44-4.45,8.03-2,42.19,11.78,6.62,5c.53.39,1.16.6,1.81.6.07,0,.15,0,.22-.01l6.8-.5c.63-.04,1.23-.29,1.71-.7l10.03-8.44,15.71-6.21c.71-.28,1.28-.82,1.61-1.5l2.12-4.47c.24-.5.33-1.05.28-1.58-.05-.53-.25-1.05-.57-1.49l-3.11-4.22c-.49-.66-1.23-1.1-2.05-1.2l-1.93-.24,11.49-4.9h3.04l6.98,7.65c.57.63,1.37.99,2.22.99h.12c.73-.03,1.41-.34,1.94-.84.11-.11.22-.21.32-.34l.48-.62,9.44-12.14,17.87,13.53-1.15,5.47c-.18.89.05,1.81.62,2.51.56.7,1.43,1.11,2.33,1.11.16,0,.32-.02.48-.04.06-.01.11-.03.16-.04.1-.02.2-.04.3-.08.06-.01.11-.04.17-.06.09-.04.18-.08.27-.12.05-.03.09-.06.14-.08.06-.04.12-.07.17-.1l11.69-8,5.54,2.2-2.88,3.94c-.11.15-.21.31-.29.47-.15.33-.25.68-.28,1.03-.08.89.24,1.79.92,2.44l5.38,5.15c.57.55,1.32.83,2.07.83.69,0,1.38-.23,1.94-.71l6.74-5.69c.46-.39.8-.92.95-1.5.06-.2.09-.4.1-.6l.42-6.67,13.03-6.3,8.09,1.32c.16.03.32.04.48.04.8,0,1.57-.32,2.14-.89l3.19-3.24,4.68,3.97,3.21,38.55.03.4s.01.07.02.11c.08.77.46,1.48,1.06,1.98l36.58,30.24-1.16,1.84c-.09.14-.17.3-.23.45-.45,1.09-.23,2.36.61,3.23l8.42,8.73-2.58,7.65c-.09.27-.14.54-.16.82-.04.82.26,1.63.85,2.24l4.25,4.35c.06.05.12.11.18.16l11.67,10.2c.44.39.99.63,1.57.71l16.02,2.16,1.93,15.25c.11.82.54,1.56,1.21,2.04l3.69,2.7,1.2.87c.39.28.83.46,1.3.53.15.03.3.04.46.04.37,0,.73-.07,1.08-.2.48-.19.89-.48,1.21-.86.25-.3.42-.65.54-1.02.04-.11.09-.2.11-.31l.22-1.11.52.11,4.36,6.13-2.64,6.62-11.47,12.75c-.11.13-.2.26-.29.4-.02.02-.04.04-.05.06-.06.1-.1.21-.15.32-.06.12-.11.25-.15.38-.03.11-.07.22-.08.33,0,.02,0,.04,0,.06-.14.88.11,1.8.76,2.5l3.57,3.86-1.59,5.38-.04.1h0c-.02.08-.02.15-.04.22-.02.11-.05.21-.06.32-.01.07,0,.15-.01.22-.01.47.07.94.27,1.38l5.14,10.92c.2.44.52.83.92,1.12l8.93,6.67c.53.4,1.16.6,1.79.6.56,0,1.12-.16,1.61-.47l3.48-2.22,11.08,6.44c.47.27.99.41,1.51.41.45,0,.9-.1,1.31-.3l3.58-1.74.29-.14,1.46,1.9c.08.09.17.17.25.25.07.08.14.17.22.23.08.07.17.11.25.17.1.07.2.14.3.2.1.04.2.07.3.11.11.04.21.09.33.12.1.03.21.03.32.04.11.02.22.05.34.05h.07c.88,0,1.72-.39,2.29-1.06l.6-.71c.42.27.91.44,1.42.47l8.73.61c.07.01.14.01.21.01.57,0,1.12-.16,1.6-.46h0c.16-.1.31-.22.45-.35.61-.56.95-1.36.95-2.19l.08-16.47,5.42-3.32-1.1,2.81c-.1.24-.15.48-.18.72-.01.03-.01.06-.02.08v.23c0,.06-.01.12-.01.18,0,.05.01.09.02.13,0,.09.01.19.02.28.01,0,.01.02.01.03.1.52.33,1.01.69,1.43.43.49,1.01.82,1.63.95.2.05.42.07.63.07.24,0,.48-.03.72-.09l19.77-4.89c.93-.23,1.69-.88,2.05-1.77l.18-.42,7.75.54c.07.01.14.01.21.01.74,0,1.45-.27,2-.77l2.34-2.09,22.16,4.43-1.82,5.79c-.11.36-.16.73-.13,1.1l.85,13.01.09,1.24c.03.57.23,1.11.57,1.57l7.35,10.03Z"/>
</svg>