<svg width="194" height="73" viewBox="0 0 194 73" fill="none" xmlns="http://www.w3.org/2000/svg">
<mask id="path-1-inside-1_94_22" fill="white">
<path d="M152.682 46.1424C158.051 46.1424 162.404 41.8253 162.404 36.4998C162.404 31.1744 158.051 26.8572 152.682 26.8572C147.313 26.8572 142.961 31.1744 142.961 36.4998C142.961 41.8253 147.313 46.1424 152.682 46.1424Z"/>
<path d="M189.471 36.4998C189.471 16.3468 173 0.00924952 152.682 0.00924952C140.918 0.00924952 130.443 5.48662 123.709 14.0118C118.888 20.1112 115.985 27.7705 115.896 36.1009C115.894 36.2351 115.894 36.3675 115.894 36.4998C115.894 38.9048 115.486 41.2152 114.735 43.365C114.693 43.4746 114.653 43.5824 114.613 43.6921C114.355 44.3916 114.066 45.0685 113.744 45.7208C113.639 45.9382 113.528 46.1538 113.412 46.3674C113.364 46.4582 113.315 46.5489 113.263 46.6397C113.233 46.6964 113.2 46.7531 113.168 46.8098C113.124 46.8892 113.078 46.9687 113.033 47.0462C112.878 47.3071 112.72 47.5642 112.556 47.8195C111.363 49.661 109.889 51.3059 108.195 52.6937C108.063 52.8034 107.932 52.9092 107.798 53.0113C107.665 53.1153 107.531 53.2174 107.394 53.3176C107.394 53.3176 107.389 53.3233 107.385 53.3252C107.261 53.416 107.137 53.5067 107.011 53.5956C106.92 53.6599 106.828 53.7223 106.737 53.7846C106.628 53.8603 106.517 53.934 106.407 54.0059C104.335 55.3634 102.03 56.3541 99.6114 56.9251C99.4475 56.9629 99.2836 57.0007 99.1177 57.0348C98.9862 57.0612 98.8566 57.0877 98.7251 57.1123C98.6012 57.1369 98.4773 57.1595 98.3534 57.1803C98.2218 57.203 98.0903 57.2238 97.9569 57.2446C97.7815 57.273 97.6062 57.2976 97.4308 57.3184C97.2935 57.3354 97.1563 57.3524 97.0191 57.3656C96.2699 57.4469 95.5075 57.4866 94.7355 57.4866C93.7786 57.4866 92.8389 57.4224 91.9163 57.3032C91.7829 57.2843 91.6475 57.2654 91.5141 57.2446C91.3654 57.2219 91.2187 57.1993 91.0719 57.1728C90.9518 57.152 90.8336 57.1312 90.7154 57.1066C90.6849 57.1028 90.6563 57.0972 90.6258 57.0915C90.481 57.0631 90.338 57.0329 90.1951 57.0007C90.0426 56.9667 89.892 56.9327 89.7414 56.8967C89.6251 56.8684 89.5107 56.84 89.3964 56.8098C88.7559 56.6434 88.1174 56.4449 87.4845 56.2161C86.663 55.9174 85.87 55.5751 85.1114 55.1913C85.0027 55.1365 84.8941 55.0817 84.7873 55.0249C84.6958 54.9777 84.6043 54.9285 84.5128 54.8775C84.4557 54.8472 84.3985 54.8151 84.3413 54.7829C84.2612 54.7394 84.1812 54.6941 84.103 54.6487C83.84 54.4955 83.5807 54.3386 83.3234 54.176C81.4668 52.9924 79.8085 51.5309 78.4094 49.8501C78.2988 49.7196 78.192 49.5892 78.0891 49.4568C77.9843 49.3245 77.8813 49.1921 77.7803 49.056C77.7784 49.0541 77.7746 49.0503 77.7727 49.0465C77.6812 48.9236 77.5897 48.8008 77.5001 48.676C77.4353 48.5852 77.3724 48.4945 77.3095 48.4037C77.2333 48.2959 77.1589 48.1863 77.0865 48.0766C75.7179 46.0214 74.719 43.7356 74.1434 41.3363C74.1053 41.1736 74.0671 41.011 74.0328 40.8466C74.0061 40.7161 73.9795 40.5875 73.9547 40.4571C73.9299 40.3342 73.907 40.2113 73.8861 40.0884C73.8632 39.9579 73.8422 39.8275 73.8213 39.6951C73.7927 39.5212 73.7679 39.3472 73.7469 39.1733C73.7298 39.0372 73.7126 38.901 73.6993 38.7649C73.6173 38.0218 73.5773 37.2656 73.5773 36.4998C73.5773 35.5507 73.6421 34.6186 73.7622 33.7035C73.7812 33.5711 73.8003 33.4369 73.8213 33.3045C73.8441 33.1571 73.867 33.0115 73.8937 32.8659C73.9147 32.7468 73.9356 32.6296 73.9604 32.5123C73.9642 32.4821 73.9699 32.4537 73.9757 32.4235C74.0042 32.2798 74.0347 32.138 74.0671 31.9962C74.1015 31.8449 74.1358 31.6956 74.172 31.5462C74.2006 31.4309 74.2292 31.3174 74.2597 31.204C74.4274 30.5687 74.6276 29.9353 74.8582 29.3076C75.1594 28.4927 75.5044 27.7062 75.8913 26.9537C75.9466 26.8459 76.0019 26.7381 76.0591 26.6322C76.1067 26.5415 76.1563 26.4507 76.2077 26.36C76.2382 26.3033 76.2707 26.2465 76.3031 26.1898C76.3469 26.1104 76.3927 26.031 76.4384 25.9535C76.5928 25.6926 76.751 25.4354 76.9149 25.1802C78.1082 23.3386 79.5816 21.6937 81.2762 20.306C81.4077 20.1963 81.5392 20.0904 81.6727 19.9883C81.8061 19.8843 81.9395 19.7822 82.0768 19.682C82.0768 19.682 82.0825 19.6763 82.0863 19.6745C82.2102 19.5837 82.3341 19.493 82.4599 19.4041C82.5514 19.3398 82.6429 19.2774 82.7344 19.215C82.843 19.1394 82.9536 19.0657 83.0642 18.9938C85.1361 17.6363 87.4407 16.6455 89.8596 16.0746C90.0235 16.0367 90.1874 15.9989 90.3533 15.9649C90.4848 15.9384 90.6144 15.912 90.7459 15.8874C90.8698 15.8628 90.9937 15.8401 91.1176 15.8193C91.2492 15.7966 91.3807 15.7758 91.5141 15.755C91.6895 15.7267 91.8648 15.7021 92.0402 15.6813C92.1775 15.6643 92.3147 15.6473 92.4519 15.634C93.201 15.5527 93.9635 15.513 94.7355 15.513C95.6924 15.513 96.6321 15.5773 97.5547 15.6964C97.6881 15.7153 97.8235 15.7342 97.9569 15.755C98.1056 15.7777 98.2523 15.8004 98.3991 15.8269C98.5192 15.8477 98.6374 15.8685 98.7556 15.8931C98.7861 15.8968 98.8147 15.9025 98.8452 15.9082C98.99 15.9365 99.133 15.9668 99.2759 15.9989C99.4284 16.033 99.579 16.067 99.7296 16.1029C99.8611 16.1351 99.9927 16.1672 100.124 16.2031C100.747 16.3657 101.369 16.5605 101.986 16.7836C102.057 16.8082 102.126 16.8327 102.196 16.8554C106.195 18.1789 110.553 16.1105 112.007 12.1589C113.463 8.19978 111.464 3.82469 107.533 2.28944C107.472 2.26486 107.408 2.24217 107.345 2.21948C107.282 2.19679 107.217 2.17411 107.154 2.15331C105.231 1.46887 103.288 0.952711 101.342 0.597258L100.953 0.529193C100.829 0.508395 100.707 0.487598 100.584 0.46869C100.484 0.451674 100.385 0.436549 100.286 0.421423C96.7789 -0.113646 93.2697 -0.132553 89.8539 0.326888C89.6823 0.349576 89.5127 0.374155 89.3411 0.398734C89.1981 0.419532 89.0552 0.44033 88.9122 0.463018C88.714 0.49516 88.5157 0.527302 88.3175 0.563226C88.1726 0.587805 88.0278 0.614275 87.8848 0.642635C87.7457 0.669105 87.6046 0.695575 87.4655 0.723935C87.3759 0.740952 87.2882 0.76175 87.2005 0.780657C87.1071 0.799564 87.0118 0.820361 86.9184 0.841159C82.012 1.8905 77.4734 3.91166 73.5106 6.69289C73.4515 6.73259 73.3924 6.77608 73.3333 6.81767C73.2018 6.91221 73.0702 7.00674 72.9387 7.10317C72.8625 7.158 72.7862 7.21472 72.71 7.27144C72.6738 7.29602 72.6394 7.32249 72.6051 7.34896C72.3592 7.53236 72.1133 7.72143 71.8713 7.9105C71.7169 8.0334 71.5625 8.15629 71.41 8.28108C71.2823 8.38318 71.1565 8.48527 71.0307 8.59493C70.781 8.80291 70.5351 9.01467 70.2911 9.23021C70.2301 9.28315 70.171 9.33987 70.1119 9.39281C70.0147 9.47978 69.9156 9.56676 69.8203 9.65562C69.7745 9.69532 69.7307 9.73692 69.6849 9.77851C69.6639 9.79742 69.6411 9.81633 69.6201 9.83713C69.6144 9.8428 69.6087 9.84847 69.603 9.85225C69.5858 9.86927 69.5686 9.88628 69.5515 9.90141C69.4752 9.97326 69.3971 10.0432 69.3227 10.1151C69.2903 10.1453 69.2579 10.1756 69.2255 10.2058C69.1226 10.3041 69.0235 10.4006 68.9225 10.4989C68.871 10.5499 68.8195 10.601 68.7681 10.652C68.6461 10.7711 68.526 10.8921 68.4078 11.0131C68.3563 11.0661 68.3049 11.1152 68.2534 11.1682C68.1428 11.2816 68.0342 11.3951 67.9255 11.5085C67.8665 11.5709 67.8093 11.6333 67.7502 11.6976C67.6606 11.7921 67.5729 11.8866 67.4852 11.9831C67.3118 12.174 67.1383 12.365 66.9687 12.5578C66.9248 12.6089 66.881 12.6599 66.839 12.7091C66.7418 12.8207 66.6465 12.9322 66.5512 13.0438C66.5093 13.0929 66.4673 13.1402 66.4254 13.1893C66.4254 13.1893 66.4235 13.1931 66.4216 13.195C66.4121 13.2064 66.4006 13.2196 66.3911 13.2309C66.3739 13.2536 66.3549 13.2744 66.3377 13.2952C66.3358 13.2971 66.3339 13.3009 66.3339 13.3009C66.2558 13.3935 66.1795 13.4862 66.1052 13.5788C65.9889 13.7225 65.8726 13.8662 65.7583 14.0099C65.7544 14.0156 65.7487 14.0213 65.7449 14.0269C65.6782 14.112 65.6153 14.1971 65.5486 14.2822C65.4456 14.4145 65.3427 14.5488 65.2417 14.683C65.2055 14.7322 65.1674 14.7794 65.1292 14.8286C65.0778 14.8967 65.0301 14.9666 64.9805 15.0347C64.87 15.184 64.7613 15.3353 64.6546 15.4866C64.605 15.5546 64.5555 15.6227 64.5059 15.6926C64.422 15.8118 64.3382 15.9328 64.2562 16.0538C64.1838 16.1578 64.1152 16.2617 64.0465 16.3676C64.0332 16.3865 64.0198 16.4054 64.0084 16.4262C63.9836 16.464 63.9589 16.5 63.9341 16.5378C63.8979 16.5907 63.8654 16.6474 63.8311 16.7004C63.6939 16.9121 63.5567 17.1258 63.4232 17.3394C63.4004 17.3754 63.3756 17.4113 63.3546 17.4491C63.3241 17.4983 63.2936 17.5474 63.2631 17.5985C63.2421 17.6325 63.2212 17.6665 63.2002 17.7025C63.1888 17.7214 63.1773 17.7403 63.1659 17.7592C63.0496 17.9482 62.9372 18.1392 62.8266 18.3302C62.7732 18.4247 62.7199 18.5192 62.6665 18.6138C62.4606 18.9749 62.2605 19.3398 62.068 19.7085C61.9726 19.89 61.8773 20.0734 61.7858 20.2568C61.7725 20.2833 61.7611 20.3097 61.7477 20.3343C61.6505 20.5291 61.5552 20.7238 61.4618 20.9204C61.4485 20.9469 61.437 20.9734 61.4237 20.9998C61.3303 21.1946 61.2388 21.3912 61.1511 21.5897C61.1378 21.62 61.1244 21.6502 61.1111 21.6805C61.0234 21.8733 60.9395 22.0681 60.8556 22.2628C60.8404 22.2969 60.8251 22.3328 60.8118 22.3687C60.7317 22.5597 60.6517 22.7506 60.5735 22.9416C60.5564 22.9813 60.5411 23.0229 60.5259 23.0626C60.4515 23.2479 60.3791 23.4351 60.3067 23.6241C60.2895 23.6695 60.2724 23.7168 60.2552 23.7622C60.1866 23.9437 60.1199 24.1252 60.0551 24.3086C60.036 24.3615 60.0169 24.4126 59.9998 24.4655C59.9388 24.6413 59.8778 24.8172 59.8187 24.9949C59.7996 25.0554 59.7787 25.114 59.7596 25.1745C59.7043 25.3428 59.651 25.5129 59.5976 25.6831C59.5766 25.7512 59.5537 25.8192 59.5328 25.8873C59.4851 26.0442 59.4375 26.2031 59.3917 26.3619C59.3688 26.4432 59.3441 26.5245 59.3212 26.6058C59.2831 26.74 59.2469 26.8743 59.2106 27.0104C59.182 27.1163 59.1516 27.2221 59.1249 27.328C59.1249 27.3356 59.1211 27.3413 59.1191 27.3488C58.9228 28.1013 58.7513 28.8633 58.6026 29.6328C58.5911 29.6876 58.5797 29.7425 58.5702 29.7973C58.5435 29.9353 58.5187 30.0752 58.4939 30.2151C58.4691 30.3531 58.4463 30.4912 58.4234 30.6311C58.4101 30.7105 58.3967 30.7899 58.3853 30.8712C58.3719 30.9525 58.3586 31.0357 58.3472 31.1189C58.3262 31.2512 58.3071 31.3836 58.29 31.5159C58.2804 31.5783 58.2747 31.6426 58.2671 31.7069C58.2442 31.8789 58.2233 32.0529 58.2042 32.2249C58.187 32.3668 58.168 32.5067 58.1527 32.6485C58.1356 32.8111 58.1203 32.9737 58.1051 33.1363V33.1457C58.0955 33.244 58.086 33.3424 58.0784 33.4407C58.0784 33.452 58.0784 33.4634 58.0765 33.4747C58.0765 33.4955 58.0727 33.5163 58.0708 33.5352C58.067 33.5863 58.0631 33.6373 58.0593 33.6884C58.0536 33.7715 58.046 33.8547 58.0403 33.936C58.0365 33.9776 58.0365 34.0211 58.0326 34.0646C57.9716 34.9457 57.945 35.823 57.9488 36.6984C57.8439 48.1995 48.4123 57.4904 36.7924 57.4904C25.1726 57.4904 15.6342 48.0936 15.6342 36.5036V7.76113C15.6342 7.40001 15.6094 7.04456 15.5599 6.69667C15.3235 4.9818 14.521 3.44655 13.3449 2.27998C11.9268 0.877083 9.97296 0.00924952 7.8152 0.00924952C3.49969 0.00924952 0 3.48058 0 7.76113V36.4998C0 48.8405 6.17592 59.7498 15.6304 66.354C21.6138 70.5363 28.9105 72.9904 36.7886 72.9904C48.5534 72.9904 59.0257 67.513 65.7602 58.9897L65.7659 58.9954C65.9374 59.211 66.1109 59.4265 66.2863 59.6383C68.8805 62.7882 72.0333 65.5354 75.6607 67.7097C75.8055 67.7966 75.9542 67.8836 76.101 67.9706C76.2135 68.0368 76.3259 68.1011 76.4403 68.1653C76.5299 68.2164 76.6195 68.2674 76.711 68.3166C76.8654 68.4036 77.0217 68.4886 77.178 68.5737C77.3858 68.6872 77.5954 68.7968 77.807 68.9046C79.9209 69.9974 82.1568 70.8823 84.4881 71.5478C84.5433 71.5629 84.5967 71.578 84.652 71.5932C84.7969 71.6348 84.9417 71.6764 85.0885 71.7161C85.241 71.7577 85.3916 71.7974 85.5441 71.8352C85.5612 71.839 85.5765 71.8428 85.5936 71.8465C86.032 71.9581 86.4724 72.064 86.9108 72.1604C87.1052 72.202 87.3015 72.2436 87.4979 72.2814C87.6713 72.3192 87.8448 72.3513 88.0201 72.3835C88.022 72.3854 88.0239 72.3854 88.0259 72.3835C88.1574 72.4081 88.287 72.4308 88.4185 72.4534C88.55 72.478 88.6835 72.4988 88.815 72.5215C92.4253 73.1095 96.0412 73.1473 99.558 72.6803C99.7849 72.6501 100.014 72.6179 100.24 72.5839C100.351 72.5688 100.462 72.5518 100.57 72.5329C100.763 72.5026 100.957 72.4705 101.152 72.4364C101.308 72.41 101.462 72.3816 101.619 72.3514C101.758 72.3249 101.897 72.2984 102.036 72.2701C102.19 72.2398 102.343 72.2077 102.497 72.1736C102.621 72.1472 102.743 72.1188 102.867 72.0923C103.004 72.0621 103.144 72.0299 103.281 71.9959C103.42 71.9638 103.557 71.9297 103.694 71.8957C103.803 71.8692 103.91 71.839 104.018 71.8106C104.074 71.7955 104.129 71.7822 104.184 71.7671C106.643 71.1243 109.001 70.2338 111.227 69.1182C111.353 69.054 111.479 68.9916 111.605 68.9273C111.731 68.863 111.856 68.7987 111.98 68.7325C112.106 68.6683 112.23 68.6021 112.354 68.534H112.356C112.459 68.4773 112.562 68.4187 112.665 68.362C112.707 68.3393 112.747 68.3166 112.789 68.2939C112.874 68.2466 112.96 68.1994 113.046 68.1521C113.061 68.1426 113.078 68.1332 113.094 68.1256C113.2 68.0632 113.307 68.0008 113.414 67.9384C113.441 67.9233 113.467 67.9063 113.494 67.8912C113.517 67.8779 113.542 67.8628 113.566 67.8496C113.707 67.7664 113.847 67.6813 113.984 67.5962C114.05 67.5565 114.117 67.5168 114.184 67.4771C114.279 67.4185 114.373 67.3599 114.466 67.3032C114.594 67.2219 114.721 67.1406 114.849 67.0574C115.074 66.9118 115.299 66.7624 115.52 66.6131C115.692 66.4958 115.861 66.3786 116.031 66.2595C116.271 66.0912 116.509 65.9173 116.746 65.7433C117.072 65.5013 117.394 65.2536 117.712 65.0022C117.851 64.8925 117.989 64.781 118.128 64.6675C118.166 64.6373 118.202 64.6051 118.24 64.573C120.245 62.93 122.085 61.0657 123.715 58.9973C124.607 57.8648 125.438 56.6736 126.196 55.4239C126.275 55.2934 126.353 55.1649 126.431 55.0344C126.486 54.9436 126.54 54.851 126.593 54.7602C126.69 54.5939 126.785 54.4275 126.879 54.2611C126.991 54.0607 127.102 53.8603 127.211 53.6561C127.31 53.4708 127.407 53.2855 127.502 53.0983C127.561 52.983 127.617 52.8658 127.676 52.7504C127.733 52.637 127.79 52.5235 127.845 52.4082C129.004 50.0429 129.915 47.5359 130.537 44.921C130.584 44.7263 130.628 44.5296 130.672 44.333C130.703 44.2026 130.729 44.0721 130.756 43.9416C130.785 43.8112 130.811 43.6807 130.836 43.5503C130.857 43.4444 130.878 43.3404 130.897 43.2364C130.914 43.1438 130.931 43.053 130.948 42.9623C131.314 40.96 131.505 38.954 131.53 36.9631C131.536 36.6568 131.536 36.3505 131.53 36.0461C131.774 24.6659 141.152 15.5149 152.682 15.5149C164.213 15.5149 173.841 24.9117 173.841 36.5017V62.9716C173.841 64.0341 174.006 65.0589 174.317 66.0194C175.617 70.0636 179.435 72.9923 183.943 72.9923C189.198 72.9923 193.518 69.0105 194 63.9226C191.322 62.6653 189.471 59.9597 189.471 56.8268V36.4998Z"/>
</mask>
<path d="M152.682 46.1424C158.051 46.1424 162.404 41.8253 162.404 36.4998C162.404 31.1744 158.051 26.8572 152.682 26.8572C147.313 26.8572 142.961 31.1744 142.961 36.4998C142.961 41.8253 147.313 46.1424 152.682 46.1424Z" stroke="#00677E" stroke-width="4" stroke-linejoin="round" mask="url(#path-1-inside-1_94_22)"/>
<path d="M189.471 36.4998C189.471 16.3468 173 0.00924952 152.682 0.00924952C140.918 0.00924952 130.443 5.48662 123.709 14.0118C118.888 20.1112 115.985 27.7705 115.896 36.1009C115.894 36.2351 115.894 36.3675 115.894 36.4998C115.894 38.9048 115.486 41.2152 114.735 43.365C114.693 43.4746 114.653 43.5824 114.613 43.6921C114.355 44.3916 114.066 45.0685 113.744 45.7208C113.639 45.9382 113.528 46.1538 113.412 46.3674C113.364 46.4582 113.315 46.5489 113.263 46.6397C113.233 46.6964 113.2 46.7531 113.168 46.8098C113.124 46.8892 113.078 46.9687 113.033 47.0462C112.878 47.3071 112.72 47.5642 112.556 47.8195C111.363 49.661 109.889 51.3059 108.195 52.6937C108.063 52.8034 107.932 52.9092 107.798 53.0113C107.665 53.1153 107.531 53.2174 107.394 53.3176C107.394 53.3176 107.389 53.3233 107.385 53.3252C107.261 53.416 107.137 53.5067 107.011 53.5956C106.92 53.6599 106.828 53.7223 106.737 53.7846C106.628 53.8603 106.517 53.934 106.407 54.0059C104.335 55.3634 102.03 56.3541 99.6114 56.9251C99.4475 56.9629 99.2836 57.0007 99.1177 57.0348C98.9862 57.0612 98.8566 57.0877 98.7251 57.1123C98.6012 57.1369 98.4773 57.1595 98.3534 57.1803C98.2218 57.203 98.0903 57.2238 97.9569 57.2446C97.7815 57.273 97.6062 57.2976 97.4308 57.3184C97.2935 57.3354 97.1563 57.3524 97.0191 57.3656C96.2699 57.4469 95.5075 57.4866 94.7355 57.4866C93.7786 57.4866 92.8389 57.4224 91.9163 57.3032C91.7829 57.2843 91.6475 57.2654 91.5141 57.2446C91.3654 57.2219 91.2187 57.1993 91.0719 57.1728C90.9518 57.152 90.8336 57.1312 90.7154 57.1066C90.6849 57.1028 90.6563 57.0972 90.6258 57.0915C90.481 57.0631 90.338 57.0329 90.1951 57.0007C90.0426 56.9667 89.892 56.9327 89.7414 56.8967C89.6251 56.8684 89.5107 56.84 89.3964 56.8098C88.7559 56.6434 88.1174 56.4449 87.4845 56.2161C86.663 55.9174 85.87 55.5751 85.1114 55.1913C85.0027 55.1365 84.8941 55.0817 84.7873 55.0249C84.6958 54.9777 84.6043 54.9285 84.5128 54.8775C84.4557 54.8472 84.3985 54.8151 84.3413 54.7829C84.2612 54.7394 84.1812 54.6941 84.103 54.6487C83.84 54.4955 83.5807 54.3386 83.3234 54.176C81.4668 52.9924 79.8085 51.5309 78.4094 49.8501C78.2988 49.7196 78.192 49.5892 78.0891 49.4568C77.9843 49.3245 77.8813 49.1921 77.7803 49.056C77.7784 49.0541 77.7746 49.0503 77.7727 49.0465C77.6812 48.9236 77.5897 48.8008 77.5001 48.676C77.4353 48.5852 77.3724 48.4945 77.3095 48.4037C77.2333 48.2959 77.1589 48.1863 77.0865 48.0766C75.7179 46.0214 74.719 43.7356 74.1434 41.3363C74.1053 41.1736 74.0671 41.011 74.0328 40.8466C74.0061 40.7161 73.9795 40.5875 73.9547 40.4571C73.9299 40.3342 73.907 40.2113 73.8861 40.0884C73.8632 39.9579 73.8422 39.8275 73.8213 39.6951C73.7927 39.5212 73.7679 39.3472 73.7469 39.1733C73.7298 39.0372 73.7126 38.901 73.6993 38.7649C73.6173 38.0218 73.5773 37.2656 73.5773 36.4998C73.5773 35.5507 73.6421 34.6186 73.7622 33.7035C73.7812 33.5711 73.8003 33.4369 73.8213 33.3045C73.8441 33.1571 73.867 33.0115 73.8937 32.8659C73.9147 32.7468 73.9356 32.6296 73.9604 32.5123C73.9642 32.4821 73.9699 32.4537 73.9757 32.4235C74.0042 32.2798 74.0347 32.138 74.0671 31.9962C74.1015 31.8449 74.1358 31.6956 74.172 31.5462C74.2006 31.4309 74.2292 31.3174 74.2597 31.204C74.4274 30.5687 74.6276 29.9353 74.8582 29.3076C75.1594 28.4927 75.5044 27.7062 75.8913 26.9537C75.9466 26.8459 76.0019 26.7381 76.0591 26.6322C76.1067 26.5415 76.1563 26.4507 76.2077 26.36C76.2382 26.3033 76.2707 26.2465 76.3031 26.1898C76.3469 26.1104 76.3927 26.031 76.4384 25.9535C76.5928 25.6926 76.751 25.4354 76.9149 25.1802C78.1082 23.3386 79.5816 21.6937 81.2762 20.306C81.4077 20.1963 81.5392 20.0904 81.6727 19.9883C81.8061 19.8843 81.9395 19.7822 82.0768 19.682C82.0768 19.682 82.0825 19.6763 82.0863 19.6745C82.2102 19.5837 82.3341 19.493 82.4599 19.4041C82.5514 19.3398 82.6429 19.2774 82.7344 19.215C82.843 19.1394 82.9536 19.0657 83.0642 18.9938C85.1361 17.6363 87.4407 16.6455 89.8596 16.0746C90.0235 16.0367 90.1874 15.9989 90.3533 15.9649C90.4848 15.9384 90.6144 15.912 90.7459 15.8874C90.8698 15.8628 90.9937 15.8401 91.1176 15.8193C91.2492 15.7966 91.3807 15.7758 91.5141 15.755C91.6895 15.7267 91.8648 15.7021 92.0402 15.6813C92.1775 15.6643 92.3147 15.6473 92.4519 15.634C93.201 15.5527 93.9635 15.513 94.7355 15.513C95.6924 15.513 96.6321 15.5773 97.5547 15.6964C97.6881 15.7153 97.8235 15.7342 97.9569 15.755C98.1056 15.7777 98.2523 15.8004 98.3991 15.8269C98.5192 15.8477 98.6374 15.8685 98.7556 15.8931C98.7861 15.8968 98.8147 15.9025 98.8452 15.9082C98.99 15.9365 99.133 15.9668 99.2759 15.9989C99.4284 16.033 99.579 16.067 99.7296 16.1029C99.8611 16.1351 99.9927 16.1672 100.124 16.2031C100.747 16.3657 101.369 16.5605 101.986 16.7836C102.057 16.8082 102.126 16.8327 102.196 16.8554C106.195 18.1789 110.553 16.1105 112.007 12.1589C113.463 8.19978 111.464 3.82469 107.533 2.28944C107.472 2.26486 107.408 2.24217 107.345 2.21948C107.282 2.19679 107.217 2.17411 107.154 2.15331C105.231 1.46887 103.288 0.952711 101.342 0.597258L100.953 0.529193C100.829 0.508395 100.707 0.487598 100.584 0.46869C100.484 0.451674 100.385 0.436549 100.286 0.421423C96.7789 -0.113646 93.2697 -0.132553 89.8539 0.326888C89.6823 0.349576 89.5127 0.374155 89.3411 0.398734C89.1981 0.419532 89.0552 0.44033 88.9122 0.463018C88.714 0.49516 88.5157 0.527302 88.3175 0.563226C88.1726 0.587805 88.0278 0.614275 87.8848 0.642635C87.7457 0.669105 87.6046 0.695575 87.4655 0.723935C87.3759 0.740952 87.2882 0.76175 87.2005 0.780657C87.1071 0.799564 87.0118 0.820361 86.9184 0.841159C82.012 1.8905 77.4734 3.91166 73.5106 6.69289C73.4515 6.73259 73.3924 6.77608 73.3333 6.81767C73.2018 6.91221 73.0702 7.00674 72.9387 7.10317C72.8625 7.158 72.7862 7.21472 72.71 7.27144C72.6738 7.29602 72.6394 7.32249 72.6051 7.34896C72.3592 7.53236 72.1133 7.72143 71.8713 7.9105C71.7169 8.0334 71.5625 8.15629 71.41 8.28108C71.2823 8.38318 71.1565 8.48527 71.0307 8.59493C70.781 8.80291 70.5351 9.01467 70.2911 9.23021C70.2301 9.28315 70.171 9.33987 70.1119 9.39281C70.0147 9.47978 69.9156 9.56676 69.8203 9.65562C69.7745 9.69532 69.7307 9.73692 69.6849 9.77851C69.6639 9.79742 69.6411 9.81633 69.6201 9.83713C69.6144 9.8428 69.6087 9.84847 69.603 9.85225C69.5858 9.86927 69.5686 9.88628 69.5515 9.90141C69.4752 9.97326 69.3971 10.0432 69.3227 10.1151C69.2903 10.1453 69.2579 10.1756 69.2255 10.2058C69.1226 10.3041 69.0235 10.4006 68.9225 10.4989C68.871 10.5499 68.8195 10.601 68.7681 10.652C68.6461 10.7711 68.526 10.8921 68.4078 11.0131C68.3563 11.0661 68.3049 11.1152 68.2534 11.1682C68.1428 11.2816 68.0342 11.3951 67.9255 11.5085C67.8665 11.5709 67.8093 11.6333 67.7502 11.6976C67.6606 11.7921 67.5729 11.8866 67.4852 11.9831C67.3118 12.174 67.1383 12.365 66.9687 12.5578C66.9248 12.6089 66.881 12.6599 66.839 12.7091C66.7418 12.8207 66.6465 12.9322 66.5512 13.0438C66.5093 13.0929 66.4673 13.1402 66.4254 13.1893C66.4254 13.1893 66.4235 13.1931 66.4216 13.195C66.4121 13.2064 66.4006 13.2196 66.3911 13.2309C66.3739 13.2536 66.3549 13.2744 66.3377 13.2952C66.3358 13.2971 66.3339 13.3009 66.3339 13.3009C66.2558 13.3935 66.1795 13.4862 66.1052 13.5788C65.9889 13.7225 65.8726 13.8662 65.7583 14.0099C65.7544 14.0156 65.7487 14.0213 65.7449 14.0269C65.6782 14.112 65.6153 14.1971 65.5486 14.2822C65.4456 14.4145 65.3427 14.5488 65.2417 14.683C65.2055 14.7322 65.1674 14.7794 65.1292 14.8286C65.0778 14.8967 65.0301 14.9666 64.9805 15.0347C64.87 15.184 64.7613 15.3353 64.6546 15.4866C64.605 15.5546 64.5555 15.6227 64.5059 15.6926C64.422 15.8118 64.3382 15.9328 64.2562 16.0538C64.1838 16.1578 64.1152 16.2617 64.0465 16.3676C64.0332 16.3865 64.0198 16.4054 64.0084 16.4262C63.9836 16.464 63.9589 16.5 63.9341 16.5378C63.8979 16.5907 63.8654 16.6474 63.8311 16.7004C63.6939 16.9121 63.5567 17.1258 63.4232 17.3394C63.4004 17.3754 63.3756 17.4113 63.3546 17.4491C63.3241 17.4983 63.2936 17.5474 63.2631 17.5985C63.2421 17.6325 63.2212 17.6665 63.2002 17.7025C63.1888 17.7214 63.1773 17.7403 63.1659 17.7592C63.0496 17.9482 62.9372 18.1392 62.8266 18.3302C62.7732 18.4247 62.7199 18.5192 62.6665 18.6138C62.4606 18.9749 62.2605 19.3398 62.068 19.7085C61.9726 19.89 61.8773 20.0734 61.7858 20.2568C61.7725 20.2833 61.7611 20.3097 61.7477 20.3343C61.6505 20.5291 61.5552 20.7238 61.4618 20.9204C61.4485 20.9469 61.437 20.9734 61.4237 20.9998C61.3303 21.1946 61.2388 21.3912 61.1511 21.5897C61.1378 21.62 61.1244 21.6502 61.1111 21.6805C61.0234 21.8733 60.9395 22.0681 60.8556 22.2628C60.8404 22.2969 60.8251 22.3328 60.8118 22.3687C60.7317 22.5597 60.6517 22.7506 60.5735 22.9416C60.5564 22.9813 60.5411 23.0229 60.5259 23.0626C60.4515 23.2479 60.3791 23.4351 60.3067 23.6241C60.2895 23.6695 60.2724 23.7168 60.2552 23.7622C60.1866 23.9437 60.1199 24.1252 60.0551 24.3086C60.036 24.3615 60.0169 24.4126 59.9998 24.4655C59.9388 24.6413 59.8778 24.8172 59.8187 24.9949C59.7996 25.0554 59.7787 25.114 59.7596 25.1745C59.7043 25.3428 59.651 25.5129 59.5976 25.6831C59.5766 25.7512 59.5537 25.8192 59.5328 25.8873C59.4851 26.0442 59.4375 26.2031 59.3917 26.3619C59.3688 26.4432 59.3441 26.5245 59.3212 26.6058C59.2831 26.74 59.2469 26.8743 59.2106 27.0104C59.182 27.1163 59.1516 27.2221 59.1249 27.328C59.1249 27.3356 59.1211 27.3413 59.1191 27.3488C58.9228 28.1013 58.7513 28.8633 58.6026 29.6328C58.5911 29.6876 58.5797 29.7425 58.5702 29.7973C58.5435 29.9353 58.5187 30.0752 58.4939 30.2151C58.4691 30.3531 58.4463 30.4912 58.4234 30.6311C58.4101 30.7105 58.3967 30.7899 58.3853 30.8712C58.3719 30.9525 58.3586 31.0357 58.3472 31.1189C58.3262 31.2512 58.3071 31.3836 58.29 31.5159C58.2804 31.5783 58.2747 31.6426 58.2671 31.7069C58.2442 31.8789 58.2233 32.0529 58.2042 32.2249C58.187 32.3668 58.168 32.5067 58.1527 32.6485C58.1356 32.8111 58.1203 32.9737 58.1051 33.1363V33.1457C58.0955 33.244 58.086 33.3424 58.0784 33.4407C58.0784 33.452 58.0784 33.4634 58.0765 33.4747C58.0765 33.4955 58.0727 33.5163 58.0708 33.5352C58.067 33.5863 58.0631 33.6373 58.0593 33.6884C58.0536 33.7715 58.046 33.8547 58.0403 33.936C58.0365 33.9776 58.0365 34.0211 58.0326 34.0646C57.9716 34.9457 57.945 35.823 57.9488 36.6984C57.8439 48.1995 48.4123 57.4904 36.7924 57.4904C25.1726 57.4904 15.6342 48.0936 15.6342 36.5036V7.76113C15.6342 7.40001 15.6094 7.04456 15.5599 6.69667C15.3235 4.9818 14.521 3.44655 13.3449 2.27998C11.9268 0.877083 9.97296 0.00924952 7.8152 0.00924952C3.49969 0.00924952 0 3.48058 0 7.76113V36.4998C0 48.8405 6.17592 59.7498 15.6304 66.354C21.6138 70.5363 28.9105 72.9904 36.7886 72.9904C48.5534 72.9904 59.0257 67.513 65.7602 58.9897L65.7659 58.9954C65.9374 59.211 66.1109 59.4265 66.2863 59.6383C68.8805 62.7882 72.0333 65.5354 75.6607 67.7097C75.8055 67.7966 75.9542 67.8836 76.101 67.9706C76.2135 68.0368 76.3259 68.1011 76.4403 68.1653C76.5299 68.2164 76.6195 68.2674 76.711 68.3166C76.8654 68.4036 77.0217 68.4886 77.178 68.5737C77.3858 68.6872 77.5954 68.7968 77.807 68.9046C79.9209 69.9974 82.1568 70.8823 84.4881 71.5478C84.5433 71.5629 84.5967 71.578 84.652 71.5932C84.7969 71.6348 84.9417 71.6764 85.0885 71.7161C85.241 71.7577 85.3916 71.7974 85.5441 71.8352C85.5612 71.839 85.5765 71.8428 85.5936 71.8465C86.032 71.9581 86.4724 72.064 86.9108 72.1604C87.1052 72.202 87.3015 72.2436 87.4979 72.2814C87.6713 72.3192 87.8448 72.3513 88.0201 72.3835C88.022 72.3854 88.0239 72.3854 88.0259 72.3835C88.1574 72.4081 88.287 72.4308 88.4185 72.4534C88.55 72.478 88.6835 72.4988 88.815 72.5215C92.4253 73.1095 96.0412 73.1473 99.558 72.6803C99.7849 72.6501 100.014 72.6179 100.24 72.5839C100.351 72.5688 100.462 72.5518 100.57 72.5329C100.763 72.5026 100.957 72.4705 101.152 72.4364C101.308 72.41 101.462 72.3816 101.619 72.3514C101.758 72.3249 101.897 72.2984 102.036 72.2701C102.19 72.2398 102.343 72.2077 102.497 72.1736C102.621 72.1472 102.743 72.1188 102.867 72.0923C103.004 72.0621 103.144 72.0299 103.281 71.9959C103.42 71.9638 103.557 71.9297 103.694 71.8957C103.803 71.8692 103.91 71.839 104.018 71.8106C104.074 71.7955 104.129 71.7822 104.184 71.7671C106.643 71.1243 109.001 70.2338 111.227 69.1182C111.353 69.054 111.479 68.9916 111.605 68.9273C111.731 68.863 111.856 68.7987 111.98 68.7325C112.106 68.6683 112.23 68.6021 112.354 68.534H112.356C112.459 68.4773 112.562 68.4187 112.665 68.362C112.707 68.3393 112.747 68.3166 112.789 68.2939C112.874 68.2466 112.96 68.1994 113.046 68.1521C113.061 68.1426 113.078 68.1332 113.094 68.1256C113.2 68.0632 113.307 68.0008 113.414 67.9384C113.441 67.9233 113.467 67.9063 113.494 67.8912C113.517 67.8779 113.542 67.8628 113.566 67.8496C113.707 67.7664 113.847 67.6813 113.984 67.5962C114.05 67.5565 114.117 67.5168 114.184 67.4771C114.279 67.4185 114.373 67.3599 114.466 67.3032C114.594 67.2219 114.721 67.1406 114.849 67.0574C115.074 66.9118 115.299 66.7624 115.52 66.6131C115.692 66.4958 115.861 66.3786 116.031 66.2595C116.271 66.0912 116.509 65.9173 116.746 65.7433C117.072 65.5013 117.394 65.2536 117.712 65.0022C117.851 64.8925 117.989 64.781 118.128 64.6675C118.166 64.6373 118.202 64.6051 118.24 64.573C120.245 62.93 122.085 61.0657 123.715 58.9973C124.607 57.8648 125.438 56.6736 126.196 55.4239C126.275 55.2934 126.353 55.1649 126.431 55.0344C126.486 54.9436 126.54 54.851 126.593 54.7602C126.69 54.5939 126.785 54.4275 126.879 54.2611C126.991 54.0607 127.102 53.8603 127.211 53.6561C127.31 53.4708 127.407 53.2855 127.502 53.0983C127.561 52.983 127.617 52.8658 127.676 52.7504C127.733 52.637 127.79 52.5235 127.845 52.4082C129.004 50.0429 129.915 47.5359 130.537 44.921C130.584 44.7263 130.628 44.5296 130.672 44.333C130.703 44.2026 130.729 44.0721 130.756 43.9416C130.785 43.8112 130.811 43.6807 130.836 43.5503C130.857 43.4444 130.878 43.3404 130.897 43.2364C130.914 43.1438 130.931 43.053 130.948 42.9623C131.314 40.96 131.505 38.954 131.53 36.9631C131.536 36.6568 131.536 36.3505 131.53 36.0461C131.774 24.6659 141.152 15.5149 152.682 15.5149C164.213 15.5149 173.841 24.9117 173.841 36.5017V62.9716C173.841 64.0341 174.006 65.0589 174.317 66.0194C175.617 70.0636 179.435 72.9923 183.943 72.9923C189.198 72.9923 193.518 69.0105 194 63.9226C191.322 62.6653 189.471 59.9597 189.471 56.8268V36.4998Z" stroke="#00677E" stroke-width="4" stroke-linejoin="round" mask="url(#path-1-inside-1_94_22)"/>
</svg>
