<svg width="202" height="52" viewBox="0 0 202 52" fill="none" xmlns="http://www.w3.org/2000/svg">
<path d="M3.728 51C2.78933 51 2 50.68 1.36 50.04C0.72 49.4 0.4 48.6107 0.4 47.672V4.344C0.4 3.36266 0.72 2.57333 1.36 1.976C2 1.336 2.78933 1.016 3.728 1.016H37.776C38.7573 1.016 39.5467 1.336 40.144 1.976C40.784 2.57333 41.104 3.36266 41.104 4.344V47.672C41.104 48.6107 40.784 49.4 40.144 50.04C39.5467 50.68 38.7573 51 37.776 51C36.8373 51 36.048 50.68 35.408 50.04C34.768 49.4 34.448 48.6107 34.448 47.672V6.904H7.056V47.672C7.056 48.6107 6.736 49.4 6.096 50.04C5.49867 50.68 4.70933 51 3.728 51ZM57.228 51C56.2893 51 55.5 50.68 54.86 50.04C54.22 49.4 53.9 48.6107 53.9 47.672V4.344C53.9 3.36266 54.22 2.57333 54.86 1.976C55.5 1.336 56.2893 1.016 57.228 1.016H91.276C92.2573 1.016 93.0467 1.336 93.644 1.976C94.284 2.57333 94.604 3.36266 94.604 4.344V47.672C94.604 48.6107 94.284 49.4 93.644 50.04C93.0467 50.68 92.2573 51 91.276 51C90.3373 51 89.548 50.68 88.908 50.04C88.268 49.4 87.948 48.6107 87.948 47.672V6.904H60.556V47.672C60.556 48.6107 60.236 49.4 59.596 50.04C58.9987 50.68 58.2093 51 57.228 51ZM129.224 45.24C125.683 45.24 122.44 44.7707 119.496 43.832C116.552 42.8933 113.992 41.5707 111.816 39.864C109.683 38.1147 108.019 36.0667 106.824 33.72C105.672 31.3733 105.096 28.792 105.096 25.976C105.096 23.16 105.672 20.6 106.824 18.296C108.019 15.9493 109.683 13.9227 111.816 12.216C113.992 10.4667 116.552 9.12267 119.496 8.184C122.44 7.24533 125.683 6.776 129.224 6.776C132.765 6.776 136.008 7.24533 138.952 8.184C141.896 9.12267 144.435 10.4667 146.568 12.216C148.744 13.9227 150.408 15.9493 151.56 18.296C152.755 20.6 153.352 23.16 153.352 25.976C153.352 28.792 152.755 31.3733 151.56 33.72C150.408 36.0667 148.744 38.1147 146.568 39.864C144.435 41.5707 141.896 42.8933 138.952 43.832C136.008 44.7707 132.765 45.24 129.224 45.24ZM129.224 39.864C132.68 39.864 135.731 39.288 138.376 38.136C141.064 36.984 143.155 35.3627 144.648 33.272C146.184 31.1813 146.952 28.7493 146.952 25.976C146.952 23.2027 146.184 20.792 144.648 18.744C143.155 16.6533 141.064 15.032 138.376 13.88C135.731 12.728 132.68 12.152 129.224 12.152C125.768 12.152 122.696 12.728 120.008 13.88C117.363 15.032 115.272 16.6533 113.736 18.744C112.243 20.792 111.496 23.2027 111.496 25.976C111.496 28.7493 112.243 31.1813 113.736 33.272C115.272 35.3627 117.363 36.984 120.008 38.136C122.696 39.288 125.768 39.864 129.224 39.864ZM129.352 51C128.413 51 127.624 50.68 126.984 50.04C126.344 49.4 126.024 48.6107 126.024 47.672V44.024L126.344 41.336V10.872L126.024 8.888V4.344C126.024 3.36266 126.344 2.57333 126.984 1.976C127.624 1.336 128.413 1.016 129.352 1.016C130.333 1.016 131.123 1.336 131.72 1.976C132.36 2.57333 132.68 3.36266 132.68 4.344V8.952L132.36 10.872V41.336L132.68 43.512V47.672C132.68 48.6107 132.36 49.4 131.72 50.04C131.123 50.68 130.333 51 129.352 51ZM200.511 50.168C199.914 50.7653 199.103 51.0427 198.079 51C197.055 51 196.244 50.6587 195.647 49.976L174.655 25.528L194.239 2.104C194.836 1.37866 195.604 1.016 196.543 1.016C197.524 0.97333 198.314 1.29333 198.911 1.976C199.508 2.65866 199.786 3.384 199.743 4.152C199.743 4.87733 199.444 5.58133 198.847 6.264L182.655 25.08L200.511 45.816C201.108 46.4987 201.428 47.224 201.471 47.992C201.556 48.7173 201.236 49.4427 200.511 50.168ZM167.103 51C166.164 51 165.375 50.68 164.735 50.04C164.095 49.4 163.775 48.6107 163.775 47.672V4.344C163.775 3.36266 164.095 2.57333 164.735 1.976C165.375 1.336 166.164 1.016 167.103 1.016C168.084 1.016 168.874 1.336 169.471 1.976C170.111 2.57333 170.431 3.36266 170.431 4.344V22.712H180.927V28.6H170.431V47.672C170.431 48.6107 170.111 49.4 169.471 50.04C168.874 50.68 168.084 51 167.103 51Z" fill="white"/>
</svg>
