<?xml version="1.0" encoding="UTF-8"?>
<svg id="_Шар_2" data-name="Шар 2" xmlns="http://www.w3.org/2000/svg" viewBox="0 0 256.04 304.05">
  <g id="_Шар_1-2" data-name="Шар 1">
    <path d="M0,224.03c0,14.08,6.24,26.72,16,35.53v20.48c0,13.28,10.72,24,24,24s24-10.72,24-24v-8h128.02v8c0,13.12,10.72,24,24,24s24-10.72,24-24v-20.48c9.76-8.8,16-21.44,16-35.53V64.01C256.04,8,198.75,0,128.02,0S0,8,0,64.01v160.02ZM56.01,240.04c-13.28,0-24-10.72-24-24s10.72-24,24-24,24,10.72,24,24-10.72,24-24,24h0ZM200.03,240.04c-13.28,0-24-10.72-24-24s10.72-24,24-24,24,10.72,24,24-10.72,24-24,24h0ZM224.03,144.02H32v-80.01h192.03v80.01Z"/>
  </g>
</svg>