<?xml version="1.0" encoding="UTF-8"?>
<svg id="_Шар_2" data-name="Шар 2" xmlns="http://www.w3.org/2000/svg" viewBox="0 0 333 304.04">
  <g id="_Шар_6" data-name="Шар 6">
    <path d="M317,78.02h-22.48v-14.01C294.52,8,237.23,0,166.5,0S38.48,8,38.48,64.01v14.01h-22.48c-8.84,0-16,7.16-16,16v50c0,8.84,7.16,16,16,16h0c8.84,0,16-7.16,16-16v-34h6.48v114.01c0,14.08,6.24,26.73,16,35.53v20.48c0,13.28,10.72,24,24.01,24s24-10.72,24-24v-8h128.02v8c0,13.12,10.72,24,24,24s24.01-10.72,24.01-24v-20.48c9.76-8.8,16-21.45,16-35.53v-114.01h6.48v34c0,8.84,7.16,16,16,16h0c8.84,0,16-7.16,16-16v-50h0c0-8.84-7.16-16-16-16ZM94.49,240.03c-13.28,0-24-10.72-24-24s10.72-24,24-24,24,10.72,24,24-10.72,24-24,24ZM238.51,240.03c-13.28,0-24-10.72-24-24s10.72-24,24-24,24,10.72,24,24-10.72,24-24,24ZM262.51,144.02H70.49v-80.01h192.02v80.01Z"/>
  </g>
</svg>