<?xml version="1.0" encoding="UTF-8"?>
<svg id="_Шар_2" data-name="Шар 2" xmlns="http://www.w3.org/2000/svg" viewBox="0 0 257 305.18">
  <g id="_Шар_4" data-name="Шар 4">
    <path d="M246.96,30.32c-6.69-8.44-15.86-14.86-27.51-19.28-11.64-4.42-25.29-7.36-40.96-8.83-15.66-1.48-32.32-2.21-49.99-2.21-16.06,0-31.79.73-47.18,2.21-15.4,1.47-29.12,4.41-41.16,8.83-12.05,4.42-21.76,10.84-29.12,19.28C3.68,38.75,0,50.06,0,64.25v152.59c0,2.7.16,5.33.48,7.88,1.53,12.4,6.79,23.08,15.78,32.08,10.85,10.84,24.16,16.26,39.96,16.26l-24.1,24.09v8.03h32.13l31.95-31.94.18-.18h64.25l32.12,32.12h32.13v-8.03l-24.1-24.09c15.8,0,29.11-5.42,39.96-16.26,8.99-9,14.25-19.68,15.78-32.08.32-2.55.48-5.18.48-7.88V64.25c0-14.19-3.35-25.5-10.04-33.93ZM58.43,241.15c-14.81,1.16-27.02-11.05-25.86-25.86.75-9.68,7.41-17.84,16.33-20.83,1.8-.61,3.69-1,5.65-1.15,14.81-1.16,27.02,11.05,25.86,25.86-.13,1.63-.42,3.22-.87,4.75-2.72,9.37-11.1,16.46-21.11,17.23ZM112.44,128.5H32.12v-48.19h80.32v48.19ZM224.43,219.17c-.9,11.64-10.34,21.08-21.98,21.98-11.79.92-21.93-6.63-24.99-17.22.22.06.45.12.68.17-.23-.06-.46-.12-.68-.18-.79-2.71-1.11-5.61-.87-8.63.9-11.64,10.34-21.08,21.98-21.98,3.35-.26,6.57.16,9.53,1.15,10.12,3.35,17.23,13.25,16.33,24.71ZM224.88,128.5h-80.32v-48.19h80.32v48.19Z"/>
  </g>
</svg>