<?xml version="1.0" encoding="UTF-8"?>
<svg id="_Шар_2" data-name="Шар 2" xmlns="http://www.w3.org/2000/svg" viewBox="0 0 256.04 304.04">
  <g id="_Шар_3" data-name="Шар 3">
    <path d="M224.69,64.02L166.14,5.46c-3.01-3.01-7.03-4.79-11.29-4.97-8.65-.36-17.63-.49-26.83-.49s-17.88.13-26.4.48c-4.26.17-8.29,1.96-11.3,4.97l-58.56,58.57-26.78,26.78c-3.19,3.19-4.98,7.52-4.98,12.03v121.2c0,14.08,6.24,26.73,16,35.53v20.48c0,13.47,11.03,24.31,24.58,23.99,12.9-.29,23.43-11.6,23.43-24.5v-7.49h128.02v8c0,13.12,10.72,24,24,24s24.01-10.72,24.01-24v-20.48c9.76-8.8,16-21.45,16-35.53v-121.62c0-4.51-1.79-8.83-4.98-12.02l-26.37-26.37ZM224.03,64.02h0s0,0,0,0h0ZM79.93,217.97c-.9,11.64-10.34,21.08-21.98,21.98-14.81,1.16-27.02-11.05-25.86-25.86.9-11.64,10.34-21.08,21.98-21.98,14.81-1.16,27.02,11.05,25.86,25.86ZM223.95,217.97c-.9,11.64-10.34,21.08-21.98,21.98-14.81,1.16-27.02-11.05-25.86-25.86.9-11.64,10.34-21.08,21.98-21.98,14.81-1.16,27.02,11.05,25.86,25.86ZM32.01,144.02v-34.86l45.15-45.15h101.61l45.26,45.26v34.75H32.01Z"/>
  </g>
</svg>