<?xml version="1.0" encoding="UTF-8"?>
<svg id="_Шар_2" data-name="Шар 2" xmlns="http://www.w3.org/2000/svg" viewBox="0 0 257.73 318.51">
  <g id="_Шар_5" data-name="Шар 5">
    <g>
      <path d="M257.72,231.3c-.14-3.02-1.78-3.29-7.04-3.29-8.35,0-16.7-.07-25.06-.01-1.89.02-3.78.04-5.67.07-3.58.07-5.31-.83-5-4.77.29-3.74.26-7.54,0-11.29-.23-3.48,1.17-5.07,4.46-6.1,2.07-.65,4.14-1.32,6.21-2,8.94-2.93,17.84-6.03,26.82-8.84,3.71-1.16,5.24-2.86,5.19-6.97-.22-19.13-.33-38.27-.02-57.4.23-13.84-1.76-27.27-5.77-40.44-.57-1.85-.68-4.09-2.71-5.37-1.41,1.07-1.42,2.55-1.74,3.78-3.77,14.62-8.7,28.82-15.12,42.47-7.29,15.53-15.94,30.07-26.91,42.81-5,5.82-10.47,11.26-16.52,16.26-1.21.99-2.44,1.97-3.69,2.93-7.38,5.65-14.98,10.24-22.83,13.64-18.88,8.2-39.13,9.52-60.81,2.21-1.8-.61-3.57-1.26-5.3-1.97-10.21-4.12-19.28-9.82-27.46-16.7-5.85-4.9-11.25-10.41-16.29-16.37-1.64-1.94-3.25-3.93-4.82-5.97-17.93-23.24-29.44-49.58-36.98-77.8-.47-1.77-.31-3.93-2.2-5.09-1.1.41-1.36,1.35-1.63,2.16-2.82,8.53-5.16,17.21-6.09,26.09-.24,2.31-.39,4.63-.43,6.97-.36,22.9-.06,45.8-.21,68.7,0,1.34.19,2.37.64,3.18.66,1.23,1.88,1.96,3.69,2.52,7.9,2.47,15.72,5.2,23.58,7.77,1.83.6,3.44,1.13,4.85,1.61,10.17,3.54,10.08,5.24,9.89,19.2-.05,3.47-1.11,4.83-4.69,4.77-1.73-.03-3.47-.05-5.2-.05-8.66-.09-17.32-.01-25.99,0-3.4,0-5.23.09-6.13.99-.95.96-.85,2.83-.44,6.48.57,5.08,1.87,10.03,3.81,14.7,2.68,7.39,6.98,14.03,12.89,19.95,10.85,10.84,24.16,16.26,39.96,16.26l-24.1,24.09v8.03h32.13l32.12-32.12h64.25l32.13,32.12h32.13v-8.03l-24.1-24.09c15.8,0,29.11-5.42,39.96-16.26,10.13-10.14,15.53-22.43,16.19-36.89.06-.75.08-1.39.05-1.94Z"/>
      <path d="M44.7,106.31c9.09,23.74,21.36,45.47,40.86,62.47,23.3,20.31,52.24,22.94,77.49,6.72,13.81-8.88,24.33-21.02,32.99-34.79,17.12-27.22,26.02-57.32,30.75-88.86.71-4.77-.49-8.32-3.99-11.62-4.16-3.93-8.37-7.79-12.62-11.61-3.14-2.82-5.07-2.9-7.76.81-9.17,12.68-18.76,25.07-28.06,37.66-1.97,2.67-4.17,3.9-7.56,3.83-8.88-.19-17.77-.06-27.1-.05-16.26,0-32.07-.1-47.88.06-3.8.04-6.36-.96-8.7-4.17-9.31-12.77-19.02-25.25-28.38-37.99-2.17-2.95-3.71-3.04-6.42-.76-5.42,4.57-10.58,9.38-15.42,14.57-1.64,1.76-2.38,3.54-2.1,6.07,2.15,19.83,6.79,39.08,13.91,57.68Z"/>
      <path d="M98.46,41.29c1.37,1.85,3.14,2.03,5.16,2.03,16.71-.02,33.41-.06,50.12.04,2.84.02,4.78-.87,6.45-3.19,4.76-6.59,9.7-13.04,14.76-19.8,2.02-3.26,5.06-5.52,5.99-9.08-24.12-15.16-83.54-15.01-104.19.23.19.5.29,1.12.62,1.56,7.02,9.41,14.09,18.78,21.07,28.21Z"/>
    </g>
  </g>
</svg>