<?xml version="1.0" encoding="UTF-8"?>
<svg id="_Шар_2" data-name="Шар 2" xmlns="http://www.w3.org/2000/svg" viewBox="0 0 256.04 354.45">
  <g id="_Шар_2-2" data-name="Шар 2">
    <path d="M182.97,53.12l25.81-25.81c6.25-6.25,6.25-16.38,0-22.63h0c-6.25-6.25-16.38-6.25-22.63,0l-45.81,45.81c-4.05-.06-8.16-.09-12.32-.09-4.54,0-9.03.03-13.44.11l23.2-23.2c6.25-6.25,6.25-16.38,0-22.63h0c-6.25-6.25-16.38-6.25-22.63,0l-49.49,49.49C26.48,60.45,0,76.34,0,114.41v160.02c0,14.08,6.24,26.72,16,35.53v20.48c0,13.28,10.72,24,24,24s24-10.72,24-24v-8h128.02v8c0,13.12,10.72,24,24,24s24-10.72,24-24v-20.48c9.76-8.8,16-21.44,16-35.53V114.41c0-40.43-29.86-55.84-73.07-61.29ZM56.01,290.44c-13.28,0-24-10.72-24-24s10.72-24,24-24,24,10.72,24,24-10.72,24-24,24ZM200.03,290.44c-13.28,0-24-10.72-24-24s10.72-24,24-24,24,10.72,24,24-10.72,24-24,24ZM224.03,194.42H32.01v-80.01h192.03v80.01Z"/>
  </g>
</svg>